<svg width="56" height="56" viewBox="0 0 56 56" fill="none" xmlns="http://www.w3.org/2000/svg">
<g clip-path="url(#clip0_2_2462)">
<path d="M55.6174 33.4376C55.4157 33.1091 55.0652 32.9128 54.6796 32.9128H54.4843L46.58 15.4988H48.4305C49.6708 15.4988 50.6799 14.4898 50.6799 13.2494C50.6799 12.0091 49.6708 11 48.4305 11H30.434V8.03817C31.6114 7.25024 32.3885 5.90865 32.3885 4.38855C32.3885 1.96875 30.4197 0 27.9999 0C25.5801 0 23.6114 1.96875 23.6114 4.38855C23.6114 5.90865 24.3884 7.25024 25.5659 8.03817V10.9999H7.56927C6.32885 10.9999 5.31987 12.009 5.31987 13.2493C5.31987 14.4896 6.32896 15.4987 7.56927 15.4987H9.41978L1.51549 32.9127H1.32014C0.934597 32.9127 0.584051 33.109 0.382364 33.4375C0.180677 33.7661 0.16449 34.1676 0.339161 34.5116L1.76781 37.3235C2.32092 38.4123 3.42331 39.0888 4.6447 39.0888H17.2844C18.5058 39.0888 19.608 38.4124 20.1613 37.3235L21.5898 34.5118C21.7646 34.168 21.7485 33.7666 21.5469 33.4378C21.3452 33.1092 20.9946 32.9128 20.6089 32.9128H20.4137L12.5094 15.4988H25.5658V46.196H19.6304C18.1733 46.196 16.9879 47.3814 16.9879 48.8385V50.2749H15.6735C14.2164 50.2749 13.031 51.4603 13.031 52.9173V55.1768C13.031 55.6314 13.3995 56 13.8542 56H42.1456C42.6003 56 42.9688 55.6315 42.9688 55.1768V52.9173C42.9688 51.4603 41.7833 50.2749 40.3263 50.2749H39.0119V48.8385C39.0119 47.3814 37.8265 46.196 36.3694 46.196H30.434V22.4253C30.434 21.9708 30.0655 21.6022 29.6108 21.6022C29.1561 21.6022 28.7877 21.9707 28.7877 22.4253V46.1959H27.2119V14.6757C27.2119 14.2211 26.8434 13.8525 26.3887 13.8525H7.56927C7.23666 13.8525 6.96607 13.5819 6.96607 13.2493C6.96607 12.9167 7.23666 12.6461 7.56927 12.6461H26.3888C26.8435 12.6461 27.212 12.2776 27.212 11.823V8.707C27.2427 8.71258 27.2738 8.71673 27.3047 8.72165C27.3205 8.72417 27.3361 8.7268 27.3518 8.72909C27.4046 8.73686 27.4578 8.74353 27.511 8.74944C27.5307 8.75162 27.5504 8.75414 27.5702 8.756C27.6203 8.76081 27.6706 8.76431 27.7209 8.76748C27.743 8.76891 27.765 8.77087 27.7872 8.77186C27.8499 8.77481 27.9127 8.77623 27.9754 8.77667C27.9836 8.77667 27.9916 8.77733 27.9998 8.77733C28.008 8.77733 28.0161 8.77678 28.0242 8.77667C28.087 8.77634 28.1498 8.77492 28.2125 8.77186C28.2347 8.77076 28.2566 8.7688 28.2787 8.76748C28.329 8.76431 28.3794 8.76081 28.4295 8.756C28.4492 8.75403 28.4689 8.75162 28.4887 8.74944C28.542 8.74353 28.595 8.73697 28.6479 8.7292C28.6636 8.7269 28.6793 8.72428 28.6949 8.72176C28.7257 8.71684 28.7569 8.71269 28.7877 8.70711V11.8231C28.7877 12.2776 29.1561 12.6462 29.6108 12.6462H48.4304C48.763 12.6462 49.0336 12.9168 49.0336 13.2494C49.0336 13.5821 48.763 13.8526 48.4304 13.8526H29.6109C29.1562 13.8526 28.7878 14.2211 28.7878 14.6758V18.5234C28.7878 18.9779 29.1562 19.3465 29.6109 19.3465C30.0656 19.3465 30.4341 18.9781 30.4341 18.5234V15.4988H43.4905L35.5862 32.9127H35.3909C35.0053 32.9127 34.6546 33.1091 34.4529 33.4377C34.2514 33.7665 34.2353 34.168 34.41 34.5116L35.8386 37.3235C36.3917 38.4123 37.4941 39.0888 38.7155 39.0888H51.3552C52.5766 39.0888 53.6788 38.4124 54.2321 37.3235L55.6608 34.5115C55.8354 34.1677 55.8192 33.7662 55.6174 33.4376ZM36.3695 47.8422C36.9188 47.8422 37.3657 48.2891 37.3657 48.8384V50.2748H24.771C24.3163 50.2748 23.9478 50.6433 23.9478 51.0979C23.9478 51.5525 24.3163 51.9211 24.771 51.9211H40.3263C40.8755 51.9211 41.3224 52.368 41.3224 52.9173V54.3537H14.6773V52.9173C14.6773 52.368 15.1242 51.9211 15.6735 51.9211H20.9507C21.4054 51.9211 21.7739 51.5526 21.7739 51.0979C21.7739 50.6434 21.4054 50.2748 20.9507 50.2748H18.6341V48.8384C18.6341 48.289 19.081 47.8422 19.6302 47.8422H36.3695ZM18.6936 36.5779C18.4226 37.1112 17.8827 37.4425 17.2844 37.4425H4.64481C4.04653 37.4425 3.50655 37.1112 3.23562 36.5779L2.20991 34.559H19.7193L18.6936 36.5779ZM18.6157 32.9127H3.3135L10.9646 16.0565L18.6157 32.9127ZM29.2163 6.84555C29.1863 6.86042 29.156 6.87453 29.1257 6.88832C29.1103 6.89532 29.095 6.90264 29.0794 6.90932C29.045 6.92408 29.0103 6.93775 28.9756 6.9511C28.9489 6.96127 28.9219 6.971 28.8947 6.98041C28.8662 6.99036 28.8375 7.00031 28.8087 7.00928C28.7824 7.01738 28.7557 7.0246 28.7291 7.03192C28.709 7.0375 28.6889 7.04319 28.6685 7.04833C28.6411 7.05522 28.6133 7.06145 28.5855 7.06758C28.5652 7.07195 28.5448 7.07633 28.5245 7.08027C28.4973 7.08552 28.47 7.09044 28.4425 7.09492C28.4198 7.09864 28.3971 7.10181 28.3743 7.10488C28.349 7.10838 28.3236 7.11188 28.298 7.11461C28.2697 7.11767 28.241 7.11986 28.2125 7.12205C28.1919 7.12369 28.1714 7.12566 28.1509 7.12675C28.1008 7.12949 28.0506 7.13113 28 7.13113C27.9495 7.13113 27.8992 7.12949 27.8492 7.12675C27.8285 7.12566 27.8081 7.12369 27.7876 7.12205C27.7591 7.11986 27.7305 7.11767 27.7021 7.11461C27.6765 7.11188 27.6511 7.10838 27.6258 7.10488C27.603 7.10181 27.5803 7.09853 27.5576 7.09492C27.5302 7.09044 27.5028 7.08552 27.4756 7.08027C27.4551 7.07633 27.4348 7.07195 27.4146 7.06758C27.3868 7.06156 27.359 7.05533 27.3315 7.04833C27.3113 7.04319 27.2912 7.0375 27.271 7.03192C27.2444 7.0246 27.2177 7.01738 27.1914 7.00928C27.1626 7.00031 27.134 6.99036 27.1054 6.98041C27.0782 6.971 27.0512 6.96138 27.0245 6.9511C26.9897 6.93775 26.9551 6.92408 26.9207 6.90932C26.9051 6.90264 26.8898 6.89532 26.8744 6.88832C26.8441 6.87453 26.8138 6.86053 26.7838 6.84555C25.8804 6.39646 25.2578 5.46404 25.2578 4.38855C25.2578 2.87645 26.4879 1.6462 28.0002 1.6462C29.5124 1.6462 30.7425 2.87645 30.7425 4.38855C30.7423 5.46404 30.1198 6.39646 29.2163 6.84555ZM45.0353 16.0565L52.6864 32.9127H37.3841L45.0353 16.0565ZM52.7642 36.5779C52.4933 37.1112 51.9533 37.4425 51.3551 37.4425H38.7154C38.1171 37.4425 37.5771 37.1112 37.3062 36.5779L36.2805 34.559H53.7899L52.7642 36.5779Z" fill="#327FFC"/>
</g>
<defs>
<clipPath id="clip0_2_2462">
<rect width="56" height="56" fill="white"/>
</clipPath>
</defs>
</svg>
