<svg width="56" height="56" viewBox="0 0 56 56" fill="none" xmlns="http://www.w3.org/2000/svg">
<g clip-path="url(#clip0_2_2481)">
<path d="M32.7294 37.4326C34.8472 36.368 36.544 34.6201 37.5451 32.4716C38.5463 30.3231 38.7934 27.8997 38.2464 25.5934C37.6993 23.287 36.3902 21.2327 34.5308 19.7627C32.6713 18.2927 30.3703 17.493 28 17.493C25.6297 17.493 23.3287 18.2927 21.4692 19.7627C19.6098 21.2327 18.3007 23.287 17.7537 25.5934C17.2066 27.8997 17.4537 30.3231 18.4549 32.4716C19.4561 34.6201 21.1528 36.368 23.2706 37.4326C19.3811 38.4835 15.9457 40.7854 13.4945 43.983C11.0433 47.1806 9.71274 51.0961 9.70813 55.1251C9.70813 55.3571 9.80032 55.5797 9.96441 55.7438C10.1285 55.9079 10.3511 56.0001 10.5831 56.0001C10.8152 56.0001 11.0378 55.9079 11.2018 55.7438C11.3659 55.5797 11.4581 55.3571 11.4581 55.1251C11.4581 50.7321 13.2032 46.519 16.3095 43.4127C19.4158 40.3064 23.6289 38.5613 28.0219 38.5613C32.4149 38.5613 36.6279 40.3064 39.7342 43.4127C42.8405 46.519 44.5856 50.7321 44.5856 55.1251C44.5856 55.3571 44.6778 55.5797 44.8419 55.7438C45.006 55.9079 45.2286 56.0001 45.4606 56.0001C45.6927 56.0001 45.9153 55.9079 46.0793 55.7438C46.2434 55.5797 46.3356 55.3571 46.3356 55.1251C46.3284 51.0903 44.9915 47.1705 42.5319 43.9721C40.0723 40.7738 36.627 38.4754 32.7294 37.4326ZM19.2194 28.0307C19.2194 26.294 19.7344 24.5964 20.6992 23.1524C21.664 21.7085 23.0354 20.583 24.6398 19.9184C26.2443 19.2538 28.0097 19.08 29.713 19.4188C31.4163 19.7576 32.9809 20.5938 34.2088 21.8218C35.4368 23.0498 36.2731 24.6144 36.6119 26.3177C36.9507 28.0209 36.7768 29.7864 36.1122 31.3909C35.4477 32.9953 34.3222 34.3667 32.8783 35.3315C31.4343 36.2963 29.7366 36.8113 28 36.8113C25.6719 36.809 23.4399 35.8831 21.7937 34.237C20.1475 32.5908 19.2217 30.3587 19.2194 28.0307Z" fill="#327FFC"/>
<path d="M31.4125 12.2499C31.2708 12.2499 31.1311 12.2153 31.0056 12.1493L28 10.5699L24.9944 12.1493C24.8499 12.2251 24.687 12.259 24.5242 12.2471C24.3614 12.2352 24.2052 12.178 24.0732 12.082C23.9412 11.9859 23.8387 11.8549 23.7773 11.7037C23.7159 11.5524 23.698 11.3871 23.7256 11.2262L24.2988 7.87494L21.875 5.51244C21.7584 5.3987 21.6758 5.25463 21.6366 5.09648C21.5973 4.93833 21.6031 4.77237 21.6531 4.61729C21.7031 4.46222 21.7954 4.3242 21.9197 4.21877C22.0439 4.11334 22.1951 4.04469 22.3563 4.02057L25.7119 3.53057L27.2169 0.489941C27.2895 0.344335 27.4012 0.221844 27.5395 0.136225C27.6779 0.0506055 27.8373 0.00524902 28 0.00524902C28.1627 0.00524902 28.3222 0.0506055 28.4605 0.136225C28.5989 0.221844 28.7106 0.344335 28.7831 0.489941L30.2881 3.55244L33.6438 4.02057C33.8049 4.04469 33.9561 4.11334 34.0804 4.21877C34.2046 4.3242 34.2969 4.46222 34.347 4.61729C34.397 4.77237 34.4027 4.93833 34.3635 5.09648C34.3243 5.25463 34.2417 5.3987 34.125 5.51244L31.7013 7.87494L32.2744 11.2218C32.2963 11.3485 32.2899 11.4785 32.2559 11.6025C32.2218 11.7265 32.1608 11.8414 32.0773 11.9392C31.9938 12.0369 31.8897 12.115 31.7725 12.168C31.6554 12.221 31.528 12.2474 31.3994 12.2456L31.4125 12.2499ZM28 8.70619C28.1418 8.70627 28.2814 8.74081 28.4069 8.80682L30.2488 9.77369L29.8988 7.72182C29.8745 7.58219 29.8846 7.43877 29.928 7.30388C29.9714 7.16899 30.047 7.04667 30.1482 6.94744L31.64 5.49494L29.5794 5.19744C29.4396 5.17683 29.307 5.12269 29.1927 5.03965C29.0784 4.9566 28.9859 4.84712 28.9231 4.72057L28 2.85244L27.0813 4.72057C27.0181 4.84768 26.9249 4.95751 26.8099 5.04059C26.6948 5.12367 26.5612 5.1775 26.4206 5.19744L24.36 5.49494L25.8519 6.94744C25.9531 7.04667 26.0286 7.16899 26.0721 7.30388C26.1155 7.43877 26.1255 7.58219 26.1013 7.72182L25.7513 9.77369L27.5931 8.80682C27.7186 8.74081 27.8582 8.70627 28 8.70619Z" fill="#327FFC"/>
<path d="M13.4751 21.4374C13.3333 21.4374 13.1937 21.4028 13.0682 21.3368L10.0626 19.7574L7.05693 21.3368C6.91238 21.4126 6.74951 21.4465 6.58673 21.4346C6.42394 21.4227 6.26773 21.3655 6.13574 21.2695C6.00376 21.1734 5.90127 21.0424 5.83985 20.8912C5.77843 20.7399 5.76053 20.5746 5.78818 20.4137L6.36131 17.0624L3.93756 14.6999C3.82081 14.5859 3.73828 14.4415 3.69929 14.283C3.6603 14.1245 3.66641 13.9583 3.71692 13.8031C3.76744 13.648 3.86034 13.51 3.98515 13.4048C4.10995 13.2997 4.26168 13.2315 4.42318 13.2081L7.77881 12.7181L9.28381 9.67744C9.35638 9.53184 9.46811 9.40934 9.60644 9.32372C9.74478 9.2381 9.90425 9.19275 10.0669 9.19275C10.2296 9.19275 10.3891 9.2381 10.5274 9.32372C10.6658 9.40934 10.7775 9.53184 10.8501 9.67744L12.3551 12.7399L15.7107 13.2299C15.8671 13.2575 16.013 13.3272 16.1329 13.4314C16.2527 13.5357 16.3419 13.6705 16.3909 13.8216C16.4399 13.9727 16.4469 14.1343 16.4111 14.289C16.3752 14.4437 16.298 14.5858 16.1876 14.6999L13.7638 17.0624L14.3369 20.4093C14.3588 20.536 14.3525 20.666 14.3184 20.79C14.2844 20.914 14.2234 21.0289 14.1398 21.1267C14.0563 21.2244 13.9522 21.3025 13.8351 21.3555C13.7179 21.4085 13.5905 21.4349 13.4619 21.4331L13.4751 21.4374ZM10.0626 17.8937C10.2043 17.8938 10.344 17.9283 10.4694 17.9943L12.3113 18.9612L11.9613 16.9093C11.9371 16.7697 11.9471 16.6263 11.9905 16.4914C12.034 16.3565 12.1095 16.2342 12.2107 16.1349L13.7026 14.6824L11.6419 14.3849C11.5022 14.3643 11.3695 14.3102 11.2552 14.2271C11.1409 14.1441 11.0484 14.0346 10.9857 13.9081L10.0626 12.0399L9.14381 13.9081C9.08063 14.0352 8.98748 14.145 8.87239 14.2281C8.7573 14.3112 8.62372 14.365 8.48318 14.3849L6.42256 14.6824L7.91443 16.1349C8.0156 16.2342 8.09115 16.3565 8.13459 16.4914C8.17803 16.6263 8.18806 16.7697 8.16381 16.9093L7.81381 18.9612L9.65568 17.9943C9.78115 17.9283 9.92078 17.8938 10.0626 17.8937Z" fill="#327FFC"/>
<path d="M49.3499 21.4374C49.2082 21.4374 49.0685 21.4028 48.9431 21.3368L45.9374 19.7574L42.9318 21.3368C42.7873 21.4126 42.6244 21.4465 42.4616 21.4346C42.2988 21.4227 42.1426 21.3655 42.0106 21.2695C41.8786 21.1734 41.7761 21.0424 41.7147 20.8912C41.6533 20.7399 41.6354 20.5746 41.6631 20.4137L42.2362 17.0624L39.8124 14.6999C39.6957 14.5859 39.6132 14.4415 39.5742 14.283C39.5352 14.1245 39.5413 13.9583 39.5918 13.8031C39.6423 13.648 39.7352 13.51 39.86 13.4048C39.9848 13.2997 40.1366 13.2315 40.2981 13.2081L43.6537 12.7181L45.1587 9.67744C45.2313 9.53184 45.343 9.40934 45.4813 9.32372C45.6197 9.2381 45.7791 9.19275 45.9418 9.19275C46.1045 9.19275 46.264 9.2381 46.4023 9.32372C46.5406 9.40934 46.6524 9.53184 46.7249 9.67744L48.2299 12.7399L51.5856 13.2299C51.742 13.2575 51.8879 13.3272 52.0077 13.4314C52.1276 13.5357 52.2168 13.6705 52.2658 13.8216C52.3148 13.9727 52.3218 14.1343 52.2859 14.289C52.2501 14.4437 52.1729 14.5858 52.0624 14.6999L49.6387 17.0624L50.2118 20.4093C50.2337 20.536 50.2274 20.666 50.1933 20.79C50.1592 20.914 50.0983 21.0289 50.0147 21.1267C49.9312 21.2244 49.8271 21.3025 49.71 21.3555C49.5928 21.4085 49.4654 21.4349 49.3368 21.4331L49.3499 21.4374ZM45.9374 17.8937C46.0792 17.8938 46.2188 17.9283 46.3443 17.9943L48.1862 18.9612L47.8362 16.9093C47.8119 16.7697 47.822 16.6263 47.8654 16.4914C47.9088 16.3565 47.9844 16.2342 48.0856 16.1349L49.5774 14.6824L47.5168 14.3849C47.3771 14.3643 47.2444 14.3102 47.1301 14.2271C47.0158 14.1441 46.9233 14.0346 46.8606 13.9081L45.9374 12.0399L45.0187 13.9081C44.9555 14.0352 44.8624 14.145 44.7473 14.2281C44.6322 14.3112 44.4986 14.365 44.3581 14.3849L42.2974 14.6824L43.7893 16.1349C43.8905 16.2342 43.966 16.3565 44.0095 16.4914C44.0529 16.6263 44.0629 16.7697 44.0387 16.9093L43.6887 18.9612L45.5306 17.9943C45.656 17.9283 45.7957 17.8938 45.9374 17.8937Z" fill="#327FFC"/>
<path d="M2.98376 38.5C2.85519 38.5018 2.72779 38.4754 2.61062 38.4224C2.49346 38.3694 2.3894 38.2913 2.30586 38.1936C2.22232 38.0958 2.16134 37.9809 2.12728 37.8569C2.09321 37.7329 2.08689 37.6029 2.10876 37.4762L2.69501 34.125L0.262511 31.7625C0.14576 31.6484 0.0632282 31.504 0.0242389 31.3455C-0.0147504 31.1871 -0.00864256 31.0209 0.0418722 30.8657C0.092387 30.7105 0.185295 30.5725 0.3101 30.4674C0.434904 30.3622 0.586631 30.294 0.748136 30.2706L4.10814 29.7806L5.60876 26.74C5.68088 26.5932 5.79268 26.4696 5.93149 26.3831C6.07029 26.2967 6.23055 26.2509 6.39407 26.2509C6.5576 26.2509 6.71785 26.2967 6.85666 26.3831C6.99547 26.4696 7.10727 26.5932 7.17939 26.74L8.68001 29.7806L12.04 30.2706C12.2015 30.294 12.3532 30.3622 12.478 30.4674C12.6029 30.5725 12.6958 30.7105 12.7463 30.8657C12.7968 31.0209 12.8029 31.1871 12.7639 31.3455C12.7249 31.504 12.6424 31.6484 12.5256 31.7625L10.0931 34.125L10.6663 37.4718C10.6939 37.6327 10.676 37.7981 10.6146 37.9493C10.5532 38.1005 10.4507 38.2316 10.3187 38.3276C10.1867 38.4236 10.0305 38.4808 9.86772 38.4927C9.70493 38.5046 9.54206 38.4708 9.39751 38.395L6.39626 36.8156L3.39064 38.3993C3.26517 38.4653 3.12554 38.4999 2.98376 38.5ZM2.75626 31.745L4.24376 33.1975C4.34571 33.2963 4.42208 33.4184 4.46628 33.5533C4.51049 33.6882 4.52121 33.8319 4.49751 33.9718L4.14314 36.0237L5.98939 35.0568C6.11488 34.9909 6.25451 34.9565 6.39626 34.9565C6.53801 34.9565 6.67764 34.9909 6.80314 35.0568L8.64501 36.0237L8.31251 33.9718C8.28881 33.8319 8.29953 33.6882 8.34374 33.5533C8.38795 33.4184 8.46432 33.2963 8.56626 33.1975L10.0538 31.745L7.99751 31.4475C7.85697 31.4275 7.7234 31.3737 7.60831 31.2906C7.49322 31.2075 7.40006 31.0977 7.33689 30.9706L6.41814 29.1025L5.49501 30.9706C5.42981 31.1005 5.33327 31.2122 5.21412 31.2954C5.09496 31.3787 4.95693 31.4309 4.81251 31.4475L2.75626 31.745Z" fill="#327FFC"/>
<path d="M53.0163 38.5C52.8745 38.4999 52.7349 38.4653 52.6094 38.3993L49.6038 36.82L46.6025 38.3993C46.458 38.4751 46.2951 38.509 46.1323 38.4971C45.9696 38.4852 45.8133 38.428 45.6814 38.332C45.5494 38.236 45.4469 38.1049 45.3855 37.9537C45.324 37.8025 45.3062 37.6371 45.3338 37.4762L45.9069 34.125L43.4744 31.7625C43.3577 31.6484 43.2751 31.504 43.2362 31.3455C43.1972 31.1871 43.2033 31.0209 43.2538 30.8657C43.3043 30.7105 43.3972 30.5725 43.522 30.4674C43.6468 30.3622 43.7985 30.294 43.9601 30.2706L47.3201 29.7806L48.8207 26.74C48.8928 26.5932 49.0046 26.4696 49.1434 26.3831C49.2822 26.2967 49.4425 26.2509 49.606 26.2509C49.7695 26.2509 49.9298 26.2967 50.0686 26.3831C50.2074 26.4696 50.3192 26.5932 50.3913 26.74L51.8919 29.7806L55.2519 30.2706C55.4134 30.294 55.5652 30.3622 55.69 30.4674C55.8148 30.5725 55.9077 30.7105 55.9582 30.8657C56.0087 31.0209 56.0148 31.1871 55.9758 31.3455C55.9368 31.504 55.8543 31.6484 55.7376 31.7625L53.305 34.125L53.8782 37.4718C53.9 37.5985 53.8937 37.7285 53.8597 37.8525C53.8256 37.9765 53.7646 38.0914 53.6811 38.1892C53.5975 38.2869 53.4935 38.3651 53.3763 38.418C53.2591 38.471 53.1317 38.4975 53.0032 38.4956L53.0163 38.5ZM49.6038 34.9562C49.7456 34.9563 49.8852 34.9908 50.0107 35.0568L51.8569 36.0237L51.5026 33.9718C51.4789 33.8319 51.4896 33.6882 51.5338 33.5533C51.578 33.4184 51.6544 33.2963 51.7563 33.1975L53.2438 31.745L51.1876 31.4475C51.047 31.4275 50.9134 31.3737 50.7983 31.2906C50.6833 31.2075 50.5901 31.0977 50.5269 30.9706L49.6038 29.1025L48.685 30.9706C48.6219 31.0977 48.5287 31.2075 48.4136 31.2906C48.2985 31.3737 48.165 31.4275 48.0244 31.4475L45.9682 31.745L47.4557 33.1975C47.5576 33.2963 47.634 33.4184 47.6782 33.5533C47.7224 33.6882 47.7331 33.8319 47.7094 33.9718L47.355 36.0237L49.1969 35.0568C49.3224 34.9908 49.462 34.9563 49.6038 34.9562Z" fill="#327FFC"/>
</g>
<defs>
<clipPath id="clip0_2_2481">
<rect width="56" height="56" fill="white"/>
</clipPath>
</defs>
</svg>
