<svg width="56" height="42" viewBox="0 0 56 42" fill="none" xmlns="http://www.w3.org/2000/svg">
<path d="M32.4185 8.18891C32.5234 7.93581 32.495 7.64706 32.3428 7.41923C32.1906 7.19141 31.9348 7.05469 31.6608 7.05469H4.10156C1.83991 7.05469 0 8.89459 0 11.1562V21C0 21.453 0.367172 21.8203 0.820312 21.8203H24.9965L24.3169 23.4609H7.38281C6.92967 23.4609 6.5625 23.8282 6.5625 24.2812V29.2031C6.5625 29.6562 6.92967 30.0234 7.38281 30.0234H21.5986L17.5211 39.8672H4.10156C2.74466 39.8672 1.64062 38.7633 1.64062 37.4062V24.2812C1.64062 23.8282 1.27345 23.4609 0.820312 23.4609C0.367172 23.4609 0 23.8282 0 24.2812V37.4062C0 39.6679 1.83991 41.5078 4.10156 41.5078H18.0693C18.401 41.5078 18.7003 41.308 18.8272 41.0014L32.4185 8.18891ZM8.20312 28.3828V25.1016H23.6374L22.2782 28.3828H8.20312ZM4.10156 8.69531H30.433L28.3943 13.6172H1.64062V11.1562C1.64062 9.79923 2.74466 8.69531 4.10156 8.69531ZM1.64062 20.1797V15.2578H27.7147L25.676 20.1797H1.64062Z" fill="#327FFC"/>
<path d="M48.6172 16.8984H40.9609C40.5078 16.8984 40.1406 17.2657 40.1406 17.7188V22.6406C40.1406 23.0937 40.5078 23.4609 40.9609 23.4609H48.6172C49.0703 23.4609 49.4375 23.0937 49.4375 22.6406V17.7188C49.4375 17.2657 49.0703 16.8984 48.6172 16.8984ZM47.7969 21.8203H41.7812V18.5391H47.7969V21.8203Z" fill="#327FFC"/>
<path d="M51.8985 0.492188H37.9308C37.599 0.492188 37.2998 0.692015 37.1729 0.998593L23.5814 33.8111C23.4765 34.0642 23.505 34.3529 23.6571 34.5808C23.8093 34.8086 24.0652 34.9453 24.3392 34.9453H51.8985C54.1601 34.9453 56 33.1054 56 30.8438V4.59375C56 2.33209 54.1601 0.492188 51.8985 0.492188ZM38.4789 2.13281H51.8985C53.2554 2.13281 54.3594 3.23673 54.3594 4.59375V7.05469H36.4402L38.4789 2.13281ZM54.3594 8.69531V13.6172H33.7219L35.7606 8.69531H54.3594ZM31.6831 18.5391H36.8594V21.8203H30.324L31.6831 18.5391ZM51.8985 33.3047H25.567L29.6445 23.4609H37.6797C38.1329 23.4609 38.5 23.0937 38.5 22.6406V17.7188C38.5 17.2657 38.1329 16.8984 37.6797 16.8984H32.3627L33.0422 15.2578H54.3594V30.8438C54.3594 32.2008 53.2554 33.3047 51.8985 33.3047Z" fill="#327FFC"/>
</svg>
