<svg width="30" height="23" viewBox="0 0 30 23" fill="none" xmlns="http://www.w3.org/2000/svg">
<path d="M15.6268 16.4685C16.6205 17.4622 16.6205 19.1657 15.6268 20.1594L13.5685 22.2177C12.5748 23.2114 10.8713 23.2114 9.87763 22.2177L0.863432 13.1325C-0.130259 12.1388 -0.130259 10.4354 0.863432 9.44169L2.92179 7.38333C3.91548 6.38964 5.61895 6.38964 6.61264 7.38333L15.6268 16.4685Z" fill="#327FFC"/>
<path d="M23.5054 0.782255C24.4991 -0.211435 26.2026 -0.211435 27.1963 0.782255L29.2546 2.84061C30.2483 3.83431 30.2483 5.53778 29.2546 6.53147L13.6395 22.0756C12.6458 23.0693 10.9423 23.0693 9.94865 22.0756L7.89029 20.0173C6.8966 19.0236 6.8966 17.3201 7.89029 16.3264L23.5054 0.782255Z" fill="#327FFC"/>
</svg>
