<svg width="45" height="45" viewBox="0 0 45 45" fill="none" xmlns="http://www.w3.org/2000/svg">
<g clip-path="url(#clip0_1_1578)">
<path d="M22.5 45C34.9264 45 45 34.9264 45 22.5C45 10.0736 34.9264 0 22.5 0C10.0736 0 0 10.0736 0 22.5C0 34.9264 10.0736 45 22.5 45Z" fill="#32BA7C"/>
<path d="M16.7507 32.6498L28.3201 44.2192C37.9022 41.664 44.9999 32.9338 44.9999 22.5C44.9999 22.2871 44.9999 22.0741 44.9999 21.8612L35.9148 13.4858L16.7507 32.6498Z" fill="#0AA06E"/>
<path d="M23.0678 27.5394C24.0614 28.5331 24.0614 30.2366 23.0678 31.2303L21.0094 33.2886C20.0157 34.2823 18.3122 34.2823 17.3185 33.2886L8.30435 24.2035C7.31066 23.2098 7.31066 21.5063 8.30435 20.5126L10.3627 18.4543C11.3564 17.4606 13.0599 17.4606 14.0536 18.4543L23.0678 27.5394Z" fill="white"/>
<path d="M30.9463 11.8533C31.94 10.8596 33.6435 10.8596 34.6372 11.8533L36.6956 13.9117C37.6892 14.9054 37.6892 16.6088 36.6956 17.6025L21.0804 33.1467C20.0867 34.1404 18.3833 34.1404 17.3896 33.1467L15.3312 31.0883C14.3375 30.0946 14.3375 28.3912 15.3312 27.3975L30.9463 11.8533Z" fill="white"/>
</g>
<defs>
<clipPath id="clip0_1_1578">
<rect width="45" height="45" fill="white"/>
</clipPath>
</defs>
</svg>
