<svg width="56" height="56" viewBox="0 0 56 56" fill="none" xmlns="http://www.w3.org/2000/svg">
<g clip-path="url(#clip0_2_2488)">
<path d="M27.9999 14.5733L34.6493 9.03226H43.3548V0H21.6774V9.03226H27.9999V14.5733ZM23.4838 7.22581V1.80645H41.5483V7.22581H33.9957L29.8064 10.717V7.22581H23.4838Z" fill="#327FFC"/>
<path d="M25.2903 3.61279H27.0967V5.41924H25.2903V3.61279Z" fill="#327FFC"/>
<path d="M28.9032 3.61279H36.129V5.41924H28.9032V3.61279Z" fill="#327FFC"/>
<path d="M37.9354 3.61279H39.7419V5.41924H37.9354V3.61279Z" fill="#327FFC"/>
<path d="M45.9785 54.1935L45.2482 46.8817C48.2639 46.4049 50.5806 43.7936 50.5806 40.6451V28.9032H46.9677V27.6551C46.9677 26.4272 46.293 25.3247 45.208 24.7593C46.2868 23.7683 46.9677 22.3513 46.9677 20.7741V18.9677C46.9677 15.9788 44.5372 13.5483 41.5484 13.5483C38.5595 13.5483 36.129 15.9788 36.129 18.9677V20.7741C36.129 23.1125 37.6202 25.1033 39.6996 25.8618L34.8518 30.7096H29.7866C29.6856 29.204 28.6514 27.8915 27.1863 27.4725L23.4839 26.4158V24.8025C24.5895 23.8097 25.2903 22.3746 25.2903 20.7741V18.9677C25.2903 15.9788 22.8598 13.5483 19.871 13.5483C16.8821 13.5483 14.4516 15.9788 14.4516 18.9677V20.7741C14.4516 22.3738 15.1524 23.8089 16.2581 24.8025V26.4167L12.5556 27.4734C11.0129 27.9131 9.93548 29.342 9.93548 30.9473V34.3225H6.32258V39.7419H8.12903V54.1935H0V56H56V54.1935H45.9785ZM37.9355 39.7419V35.5998L44.3357 29.1996C44.7983 28.7369 45.0735 28.1155 45.1353 27.4672C45.1432 27.5303 45.1613 27.5898 45.1613 27.6551V38.8387C45.1613 40.3324 43.9454 41.5483 42.4516 41.5483H35.2258V39.7419H37.9355ZM35.2258 46.9677H39.8279L40.5503 54.1935H35.2258V46.9677ZM41.6432 46.9677H43.4408L44.1632 54.1935H42.3656L41.6432 46.9677ZM46.9677 38.8387V30.7096H48.7742V40.6451C48.7742 43.1352 46.7481 45.1612 44.2581 45.1612H35.2258V43.3548H42.4516C44.9417 43.3548 46.9677 41.3287 46.9677 38.8387ZM37.9355 20.7741V18.9677C37.9355 16.9751 39.5558 15.3548 41.5484 15.3548C43.541 15.3548 45.1613 16.9751 45.1613 18.9677V20.7741C45.1613 22.7667 43.541 24.3871 41.5484 24.3871C39.5558 24.3871 37.9355 22.7667 37.9355 20.7741ZM35.5998 32.5161L41.626 26.4899C41.8148 26.3011 42.0759 26.1935 42.3422 26.1935C42.9006 26.1935 43.3548 26.6478 43.3548 27.2061C43.3548 27.4725 43.2472 27.7336 43.0585 27.9223L36.6583 34.3225H27.0968C26.5984 34.3225 26.1936 33.9177 26.1936 33.4193C26.1936 32.9209 26.5984 32.5161 27.0968 32.5161H35.5998ZM16.2581 18.9677C16.2581 16.9751 17.8784 15.3548 19.871 15.3548C21.8635 15.3548 23.4839 16.9751 23.4839 18.9677V20.7741C23.4839 22.7667 21.8635 24.3871 19.871 24.3871C17.8784 24.3871 16.2581 22.7667 16.2581 20.7741V18.9677ZM19.871 26.1935C20.5052 26.1935 21.1111 26.078 21.6774 25.8773V26.8475C21.4534 27.1933 20.8311 28 19.871 28C18.9109 28 18.2886 27.1933 18.0645 26.8475V25.8773C18.6308 26.078 19.2368 26.1935 19.871 26.1935ZM11.7419 30.9473C11.7419 30.1442 12.2813 29.4306 13.0518 29.2101L16.7727 28.1473C17.2967 28.83 18.3163 29.8064 19.871 29.8064C21.4256 29.8064 22.4452 28.83 22.9692 28.1464L26.6901 29.2093C27.3821 29.4073 27.8646 30.0088 27.9612 30.7087H27.0968C25.603 30.7087 24.3871 31.9247 24.3871 33.4184C24.3871 33.7364 24.4519 34.0381 24.5534 34.3217H11.7419V30.9473ZM8.12903 36.129H36.129V37.9354H8.12903V36.129ZM9.93548 43.3548H12.6452V41.5483H9.93548V39.7419H33.4194V41.5483H14.4516V43.3548H33.4194V54.1935H31.268L29.4616 50.5806H13.8933L12.0868 54.1935H9.93548V43.3548ZM29.2481 54.1935H14.1067L15.01 52.3871H28.3449L29.2481 54.1935Z" fill="#327FFC"/>
</g>
<defs>
<clipPath id="clip0_2_2488">
<rect width="56" height="56" fill="white"/>
</clipPath>
</defs>
</svg>
