<svg width="56" height="56" viewBox="0 0 56 56" fill="none" xmlns="http://www.w3.org/2000/svg">
<g clip-path="url(#clip0_2_2494)">
<path d="M22.3823 30.7845C22.3819 30.3315 22.0143 29.9644 21.5614 29.9647L16.7089 29.9681C15.6228 30.0066 15.6246 31.5722 16.7101 31.6087L21.5626 31.6053C22.0156 31.605 22.3826 31.2375 22.3823 30.7845Z" fill="#327FFC"/>
<path d="M18.5001 23.1537V21.0547C18.5001 20.6017 18.1328 20.2344 17.6798 20.2344H12.0037C11.5506 20.2344 11.1833 20.6017 11.1833 21.0547V23.1537C11.3847 28.0015 18.3004 27.9978 18.5001 23.1537ZM16.8595 23.1537C16.7483 25.8245 12.934 25.8225 12.824 23.1537V21.875H16.8595V23.1537Z" fill="#327FFC"/>
<path d="M23.4297 26.807C25.4469 26.807 27.0881 25.1682 27.0881 23.1537V21.0547C27.0881 20.6017 26.7208 20.2344 26.2678 20.2344H20.5917C20.1386 20.2344 19.7714 20.6017 19.7714 21.0547V23.1537C19.7714 25.1682 21.4125 26.807 23.4297 26.807ZM21.412 21.875H25.4475V23.1537C25.3364 25.8245 21.5221 25.8225 21.412 23.1537V21.875Z" fill="#327FFC"/>
<path d="M14.8417 23.974C15.8973 23.974 15.8991 22.3334 14.8417 22.3334C13.7861 22.3334 13.7843 23.974 14.8417 23.974Z" fill="#327FFC"/>
<path d="M23.4298 23.974C24.4854 23.974 24.4872 22.3334 23.4298 22.3334C22.3741 22.3334 22.3723 23.974 23.4298 23.974Z" fill="#327FFC"/>
<path d="M19.1357 44.7639C18.08 44.7639 18.0782 46.4045 19.1357 46.4045C20.1914 46.4045 20.1931 44.7639 19.1357 44.7639Z" fill="#327FFC"/>
<path d="M19.1357 47.9196C18.08 47.9196 18.0782 49.5602 19.1357 49.5602C20.1914 49.5602 20.1931 47.9196 19.1357 47.9196Z" fill="#327FFC"/>
<path d="M19.1357 52.7159C20.1914 52.7159 20.1931 51.0753 19.1357 51.0753C18.08 51.0753 18.0782 52.7159 19.1357 52.7159Z" fill="#327FFC"/>
<path d="M32.4314 45.8497C31.9783 45.8497 31.6111 46.217 31.6111 46.67V53.9909C31.6111 55.0988 32.5136 56.0001 33.623 56.0001H47.0864C47.3013 56.0001 47.5138 55.9125 47.6658 55.7605L52.9083 50.5294C53.061 50.3767 53.1491 50.1647 53.1491 49.9487V30.9264C53.1491 29.8186 52.2467 28.9172 51.1373 28.9172H47.3517V28.1846C47.3602 26.341 45.1747 25.3101 43.7639 26.4715C43.0083 25.8239 41.7519 25.824 40.9964 26.4715C39.5848 25.3099 37.4002 26.3414 37.4087 28.1846V28.9172H33.623C32.5136 28.9172 31.6111 29.8186 31.6111 30.9264V37.8955H25.0663C24.4944 37.0263 23.4079 37.1466 22.7464 37.7776V36.9563C27.1472 35.4092 30.1027 30.9524 29.7893 26.0996C32.269 26.2655 34.0794 23.6985 32.7695 21.4916V18.2971C34.1882 18.3552 35.4207 17.2165 35.4207 15.7842C35.4207 14.3987 34.2933 13.2715 32.9078 13.2715H31.1374V3.31439C31.1374 1.48684 29.6502 0 27.8223 0H10.4492C8.62126 0 7.13409 1.48684 7.13409 3.31439V13.2715H5.36386C3.97829 13.2715 2.85107 14.3987 2.85107 15.7842C2.85107 17.2165 4.0834 18.3552 5.50211 18.2971V21.4918C4.19136 23.7024 6.00436 26.2593 8.48246 26.0997C8.16889 30.9527 11.1245 35.4092 15.5253 36.9564V37.7775C14.8636 37.1469 13.7773 37.0263 13.2054 37.8956C12.4627 37.8956 11.7103 37.8956 10.977 37.8956C6.88143 37.8956 3.54954 41.2265 3.54954 45.3208V55.1797C3.54954 56.2062 5.19017 56.253 5.19017 55.1797V45.3207C5.19017 42.89 6.69856 40.8061 8.8282 39.9513L7.32725 43.6417C7.23745 43.8624 7.24806 44.1112 7.35634 44.3235L13.0826 55.5523C13.5512 56.4714 15.0305 55.7608 14.544 54.807L8.98832 43.9124L10.3783 40.4945C10.6151 39.9124 11.1741 39.5362 11.8024 39.5362H12.9731V44.4974C12.9731 45.2972 13.696 45.9659 14.4915 45.9044L15.8599 55.298C16.0139 56.3548 17.6378 56.1222 17.4835 55.0616L16.0217 45.0267L19.1374 42.6809L22.3128 45.0737L20.783 55.0554C20.6303 56.0518 22.234 56.4184 22.4047 55.3039L23.8446 45.9085C24.6258 45.9317 25.2982 45.2671 25.2982 44.4972V39.5361H26.4632C27.0916 39.5361 27.6507 39.9122 27.8873 40.4945L29.2774 43.9124L23.7216 54.807C23.2568 55.7183 24.6907 56.5182 25.183 55.5523L30.9093 44.3235C31.0174 44.1113 31.028 43.8624 30.9384 43.6417C30.9384 43.6417 29.3028 39.6456 29.2425 39.5361H31.6109V41.7389C31.6109 42.192 31.9781 42.5592 32.4312 42.5592C32.8844 42.5592 33.2515 42.192 33.2515 41.7389V30.9264C33.2515 30.7232 33.418 30.5578 33.6227 30.5578H37.4084V31.3131C37.3999 33.1567 39.5853 34.1876 40.9962 33.0262C41.7517 33.6738 43.0081 33.6737 43.7637 33.0262C45.1753 34.1878 47.3598 33.1563 47.3515 31.3131V30.5578H51.1371C51.3417 30.5578 51.5083 30.7232 51.5083 30.9264V49.1283H48.2777C47.1683 49.1283 46.2658 50.0297 46.2658 51.1375V54.3594H33.6229C33.4182 54.3594 33.2516 54.194 33.2516 53.9908V46.6699C33.2517 46.217 32.8845 45.8497 32.4314 45.8497ZM30.1528 24.459H29.7892V21.645C30.658 21.5519 31.5598 22.0901 31.5598 23.052C31.5598 23.8278 30.9286 24.459 30.1528 24.459ZM31.1287 20.1656C30.7023 20.0211 30.2376 19.9789 29.789 20.0044V18.297H31.1287V20.1656ZM8.77471 11.1995H10.967C12.0532 11.1618 12.0524 9.59612 10.967 9.55883H8.77471V3.31439C8.77471 2.39148 9.5259 1.64062 10.4492 1.64062H27.8221C28.7455 1.64062 29.4967 2.39148 29.4967 3.31439V9.55883H15.9437C14.8575 9.59645 14.8584 11.1622 15.9437 11.1995H29.4968V13.2713H8.77471V11.1995ZM4.49159 15.7841C4.49159 15.3032 4.88282 14.912 5.36375 14.912H32.9077C33.3886 14.912 33.7799 15.3032 33.7799 15.7841C33.7799 16.265 33.3887 16.6564 32.9077 16.6564H5.36386C4.88293 16.6564 4.49159 16.265 4.49159 15.7841ZM8.48236 18.297V20.0044C8.03381 19.9789 7.56896 20.021 7.14262 20.1656V18.297H8.48236ZM8.11868 24.459C7.34289 24.459 6.71168 23.8278 6.71168 23.052C6.71168 22.0999 7.616 21.5615 8.48236 21.645V24.459H8.11868ZM10.123 26.9414V18.297H28.1484V26.9414C28.1489 31.9102 24.0992 35.9518 19.1287 35.9437C14.163 35.9437 10.123 31.9053 10.123 26.9414ZM14.6138 44.033V39.1475L17.7917 41.6404L14.6138 44.033ZM17.1659 39.0644V37.4023C17.8023 37.5214 18.4582 37.5843 19.1287 37.5843H19.1427C19.8132 37.5843 20.4691 37.5213 21.1055 37.4023V39.0658L19.1374 40.611L17.1659 39.0644ZM23.6577 39.1478V44.0327L20.4831 41.6404L23.6577 39.1478ZM39.6126 31.8765C39.3019 31.8765 39.0493 31.6237 39.0493 31.3131V28.1846C39.073 27.4398 40.1525 27.4404 40.1761 28.1846V31.3131C40.1759 31.6237 39.9233 31.8765 39.6126 31.8765ZM42.3801 31.8765C42.0693 31.8765 41.8167 31.6237 41.8167 31.3131V28.1846C41.8404 27.4398 42.9201 27.4403 42.9436 28.1846V31.3131C42.9435 31.6237 42.6907 31.8765 42.3801 31.8765ZM45.711 31.3131C45.6872 32.0579 44.6076 32.0574 44.5841 31.3131V28.1846C44.6078 27.4398 45.6875 27.4403 45.711 28.1846V31.3131ZM48.2777 50.7689H50.3452L47.9066 53.2023V51.1374C47.9066 50.9343 48.073 50.7689 48.2777 50.7689Z" fill="#327FFC"/>
<path d="M36.4738 37.4961H48.2863C49.3725 37.4585 49.3716 35.8927 48.2863 35.8555H36.4738C35.3876 35.8931 35.3884 37.4588 36.4738 37.4961Z" fill="#327FFC"/>
<path d="M36.4738 41.0184H48.2863C49.3725 40.9808 49.3716 39.415 48.2863 39.3778H36.4738C35.3876 39.4154 35.3884 40.9812 36.4738 41.0184Z" fill="#327FFC"/>
</g>
<defs>
<clipPath id="clip0_2_2494">
<rect width="56" height="56" fill="white"/>
</clipPath>
</defs>
</svg>
