<svg width="56" height="56" viewBox="0 0 56 56" fill="none" xmlns="http://www.w3.org/2000/svg">
<path d="M8.43083 31.7334C9.077 31.7366 9.70407 31.5145 10.2042 31.1053L18.5108 24.4021C18.9661 24.8325 19.5529 25.0974 20.1768 25.1543C20.2618 25.1609 20.3467 25.1655 20.4307 25.1655C21.1108 25.1659 21.7679 24.9191 22.2796 24.4711L23.1084 23.7525L23.4668 24.2051C23.1477 24.8513 23.2275 25.6232 23.6722 26.1903L24.5952 27.357C24.9011 27.7466 25.3508 27.9969 25.8431 28.0514C25.9135 28.0588 25.9842 28.0625 26.055 28.0626C26.4762 28.0632 26.8849 27.9189 27.2123 27.6538L34.7667 21.5871C35.562 20.9425 35.6929 19.779 35.0607 18.9738L34.1386 17.8071C33.7278 17.2731 33.0535 17.0128 32.3904 17.1323L24.8015 7.52925C25.0889 6.8949 24.9993 6.15329 24.5691 5.60565L23.647 4.43899C23.3403 4.0523 22.8923 3.80364 22.4019 3.74795C21.9116 3.69226 21.4192 3.83412 21.0336 4.14219L13.4792 10.2089C12.6816 10.8541 12.5502 12.0203 13.1843 12.8269L14.1027 14.0001C14.4091 14.3898 14.8596 14.6397 15.3524 14.6935C15.4221 14.7014 15.4923 14.7051 15.5624 14.7047C15.6826 14.7038 15.8023 14.691 15.9199 14.6665L16.4286 15.3095L15.4355 16.1113C14.2492 17.0612 14.0246 18.7784 14.9268 20.0014L6.65749 26.6701C5.4436 27.657 5.24738 29.4359 6.21696 30.6638C6.75108 31.3419 7.56762 31.7364 8.43083 31.7334ZM26.0606 26.1987L25.1375 25.0274L29.9908 21.1317L32.6779 18.9738L32.6882 18.9663L33.6 20.1283L26.0606 26.1987ZM24.8118 22.8947L23.9419 21.7953L18.4763 14.8886C18.4707 14.8821 18.4698 14.8737 18.4642 14.8671C18.4586 14.8606 18.452 14.8587 18.4474 14.8522L17.5075 13.665L23.4808 8.86859L30.7851 18.1021L24.8118 22.8947ZM22.1891 5.60472L23.1066 6.76765L23.0422 6.81992L15.6156 12.7867C15.6026 12.7979 15.596 12.8147 15.5839 12.8259L15.5671 12.839L14.6422 11.6667L22.1891 5.60472ZM16.605 17.5635L17.5868 16.7711L21.9511 22.2871L21.0588 23.0609C20.8622 23.2327 20.6041 23.317 20.3439 23.2943C20.0838 23.2716 19.8441 23.1438 19.6803 22.9405L16.4603 18.9467C16.2938 18.7417 16.2165 18.4784 16.2456 18.2159C16.2734 17.9592 16.4028 17.7242 16.605 17.5635ZM7.83163 28.1195L16.0888 21.4602L17.3106 22.9741L9.02909 29.6558C8.86042 29.7938 8.64876 29.8684 8.43083 29.8667C8.13895 29.8659 7.86364 29.731 7.68416 29.5009C7.34615 29.0781 7.41151 28.462 7.83069 28.1195H7.83163Z" fill="#327FFC"/>
<path d="M6.53331 36.4H28C28.5154 36.4 28.9333 35.9821 28.9333 35.4667C28.9333 34.9512 28.5154 34.5333 28 34.5333H6.53331C6.01784 34.5333 5.59998 34.9512 5.59998 35.4667C5.59998 35.9821 6.01784 36.4 6.53331 36.4Z" fill="#327FFC"/>
<path d="M6.53331 41.0666H23.3333C23.8488 41.0666 24.2666 40.6488 24.2666 40.1333C24.2666 39.6178 23.8488 39.2 23.3333 39.2H6.53331C6.01784 39.2 5.59998 39.6178 5.59998 40.1333C5.59998 40.6488 6.01784 41.0666 6.53331 41.0666Z" fill="#327FFC"/>
<path d="M6.53331 45.7334H20.5333C21.0488 45.7334 21.4666 45.3155 21.4666 44.8C21.4666 44.2846 21.0488 43.8667 20.5333 43.8667H6.53331C6.01784 43.8667 5.59998 44.2846 5.59998 44.8C5.59998 45.3155 6.01784 45.7334 6.53331 45.7334Z" fill="#327FFC"/>
<path d="M53.5957 19.4227C52.1167 17.9729 49.7454 17.9867 48.2832 19.4535L43.6949 24.0436L41.0667 26.6737V2.8C41.0667 1.2536 39.8131 0 38.2667 0H7.46667C7.21915 5.2864e-05 6.98179 0.0984206 6.8068 0.273467L0.273467 6.8068C0.0984206 6.98179 5.2864e-05 7.21915 0 7.46667V53.2C0 54.7464 1.2536 56 2.8 56H38.2667C39.8131 56 41.0667 54.7464 41.0667 53.2V39.8655L50.2777 30.6544C50.2824 30.6497 50.2889 30.6488 50.2945 30.6441C50.3001 30.6395 50.3001 30.632 50.3048 30.6273L52.9181 28.014C52.9237 28.014 52.9303 28.0084 52.9349 28.0028C52.9396 27.9972 52.9405 27.9916 52.9461 27.9869L54.8856 26.0475C55.5941 25.3481 55.9955 24.3957 56.0011 23.4002C56.0067 22.4047 55.6161 21.4478 54.9155 20.7405L53.5957 19.4227ZM49.6319 28.6627L47.6551 26.6868L45.6755 24.7072L46.9952 23.3865L50.9525 27.3439L49.6319 28.6627ZM32.4725 45.8201L31.1556 44.5032L46.9943 28.6636L48.3121 29.9815L32.4725 45.8201ZM26.1184 48.5175C26.0343 48.5517 25.9378 48.5305 25.8757 48.4643C25.8133 48.4092 25.7885 48.3229 25.8123 48.2431L27.5651 43.5521L30.7879 46.7749L26.1184 48.5175ZM44.3548 26.0241L45.6745 27.3467L29.8359 43.1835L28.5189 41.8665L44.3548 26.0241ZM6.53333 3.1864V5.6C6.53333 6.11547 6.11547 6.53333 5.6 6.53333H3.1864L6.53333 3.1864ZM39.2 53.2C39.2 53.7155 38.7821 54.1333 38.2667 54.1333H2.8C2.28453 54.1333 1.86667 53.7155 1.86667 53.2V8.4H5.6C7.1464 8.4 8.4 7.1464 8.4 5.6V1.86667H38.2667C38.7821 1.86667 39.2 2.28453 39.2 2.8V28.5413L26.8427 40.9043C26.5481 41.186 26.3226 41.5319 26.1837 41.9151L24.0548 47.6131C23.9589 47.9098 23.9306 48.2242 23.9717 48.5333H6.53333C6.01787 48.5333 5.6 48.9512 5.6 49.4667C5.6 49.9821 6.01787 50.4 6.53333 50.4H26.1333C26.3416 50.376 26.5473 50.3342 26.7484 50.2749L32.4203 48.16C32.7984 48.0242 33.1403 47.8036 33.4199 47.5151L39.2 41.7321V53.2ZM53.5733 24.7231L52.2713 26.0213L48.3131 22.064L49.6029 20.7732C49.9636 20.4118 50.4532 20.2086 50.9637 20.2085C51.4558 20.2065 51.9286 20.3995 52.2788 20.7452L53.592 22.0584C53.9426 22.4118 54.1375 22.8906 54.1333 23.3884C54.1316 23.8901 53.9301 24.3703 53.5733 24.7231Z" fill="#327FFC"/>
</svg>
