<svg width="56" height="56" viewBox="0 0 56 56" fill="none" xmlns="http://www.w3.org/2000/svg">
<g clip-path="url(#clip0_2_2521)">
<path d="M48.0711 31.6992C47.7327 32.0004 47.7025 32.5189 48.0037 32.8574C48.1309 33.0003 48.1948 33.1841 48.1837 33.3751C48.1726 33.5661 48.0878 33.7414 47.9448 33.8686L46.8089 34.8795C46.4705 35.1807 46.4403 35.6992 46.7415 36.0377C47.0436 36.377 47.5624 36.4054 47.8997 36.1051L49.0356 35.0941C50.0063 34.2302 50.0933 32.7374 49.2293 31.7666C48.9279 31.4282 48.4094 31.3981 48.0711 31.6992Z" fill="#327FFC"/>
<path d="M53.6432 24.8821H49.7162C48.4166 24.8821 47.3594 25.9394 47.3594 27.239C47.3969 28.3249 48.9626 28.3247 49 27.239C49 26.8441 49.3212 26.5227 49.7162 26.5227H53.6432C54.0381 26.5227 54.3594 26.8441 54.3594 27.239V28.7595C54.3594 29.1545 54.038 29.4758 53.6432 29.4758H49.7162C48.63 29.5135 48.6309 31.0793 49.7162 31.1165H53.6432C54.9428 31.1165 56 30.0591 56 28.7595V27.239C56 25.9394 54.9428 24.8821 53.6432 24.8821Z" fill="#327FFC"/>
<path d="M45.5569 28.2105L44.0132 28.5015C43.5904 27.3647 42.2309 26.7258 41.0842 27.1293L37.3543 28.3575C36.1199 28.764 35.4464 30.0989 35.8528 31.3332L35.9204 31.5384L35.6892 31.6359C35.2565 31.1239 34.6099 30.7982 33.8886 30.7982H29.9618C28.7008 30.7982 27.6679 31.7935 27.6077 33.0398L27.2201 32.9534C27.3025 32.4577 27.1991 31.9562 26.9247 31.5312C26.6326 31.0783 26.1816 30.7665 25.655 30.653L22.5469 29.9827C22.54 29.9811 22.533 29.9798 22.5261 29.9784L20.2717 29.4922V24.0757C21.2931 23.6075 22.3138 22.8134 23.3448 21.5148C23.6264 21.1599 23.5671 20.6439 23.2124 20.3623C22.8576 20.0807 22.3416 20.1398 22.0599 20.4947C19.4875 23.8338 17.0239 23.0588 13.7075 22.7118C13.6745 22.7084 13.6417 22.7071 13.6092 22.7076H8.97969C6.19643 22.7076 3.93204 20.4418 3.93204 17.6567V14.2653C5.55341 15.2364 7.78029 14.4804 8.51069 12.7886C9.76041 13.7371 11.6848 13.5623 12.7451 12.4285C13.3722 13.2212 14.395 13.7147 15.4724 13.6496C14.9215 14.1302 14.477 14.6612 14.1167 15.1372C13.8433 15.4985 13.9144 16.013 14.2756 16.2864C14.6368 16.56 15.1514 16.4888 15.4247 16.1276C16.7019 14.4404 17.9221 13.7441 19.5028 13.7977C19.7917 13.8064 20.1941 13.7492 20.6071 13.6145C20.6356 13.6065 20.6634 13.5971 20.6905 13.5863C21.4234 13.329 22.1676 12.8259 22.3507 12.0121C22.4695 11.4838 22.2001 10.9341 21.7099 10.7051L20.5477 10.1623C18.8066 9.34887 18.457 7.19648 18.6181 6.51551C18.7355 6.01917 18.9047 5.74945 19.0068 5.63143C19.4796 5.84624 20.8464 6.46826 22.234 7.10712C22.2478 7.1139 22.2618 7.12046 22.2759 7.12648C23.5456 7.71131 24.8254 8.30707 25.4463 8.61496C25.6774 8.7297 25.8243 8.97109 25.8205 9.2302L25.7572 13.5204C25.7365 14.9189 25.2795 16.2474 24.4357 17.362C24.1623 17.7233 24.2334 18.2378 24.5946 18.5112C24.9526 18.783 25.4689 18.7156 25.7437 18.3524C26.7998 16.9573 27.3718 15.2948 27.3976 13.5446L27.4609 9.25437C27.474 8.36701 26.9693 7.53904 26.1752 7.14529C25.6094 6.86474 24.5381 6.3637 23.4172 5.84603V3.25526C23.4235 0.374979 19.8847 -1.08977 17.8583 0.952588C17.8119 0.999073 17.7671 1.04665 17.7238 1.09532C16.2719 -0.57724 13.5177 -0.271318 12.4551 1.65346C10.8333 0.313619 8.28866 0.948213 7.45621 2.84324C5.34637 1.28684 2.27698 2.8381 2.29152 5.47984V8.72204C2.29152 8.72488 2.29141 8.72773 2.29141 8.73057V17.6567C2.29141 20.053 3.55699 22.1592 5.45454 23.3413V26.2966L2.34271 25.6255C1.54591 25.4539 0.757648 25.9624 0.586039 26.7589L0.0336953 29.3216C-0.0494297 29.7075 0.0224296 30.1027 0.236148 30.4343C0.450195 30.7663 0.780726 30.9952 1.16693 31.0783L5.45454 32.0031V55.179C5.45454 55.6321 5.82182 55.9993 6.27485 55.9993H19.4513C19.9043 55.9993 20.2716 55.6321 20.2716 55.179V52.1123C20.2339 51.0261 18.6682 51.027 18.6309 52.1123V54.3586H7.09505V32.3568L18.6309 34.8446V48.1747C18.6686 49.2609 20.2343 49.26 20.2716 48.1747V35.1986L22.4416 35.6666C22.4489 35.6681 22.4561 35.6696 22.4634 35.6709L24.479 36.1057C25.0007 36.2189 25.5445 36.1221 25.9979 35.829C26.4506 35.5368 26.7625 35.0859 26.8762 34.5593L26.8765 34.5578L27.6054 34.7201C27.6291 35.9993 28.677 37.0327 29.9618 37.0327H33.8886C35.1882 37.0327 36.2455 35.9753 36.2455 34.6757V33.1818L36.4578 33.0924C36.9695 34.1354 38.216 34.6477 39.3042 34.2794L43.0341 33.0512C44.2684 32.6446 44.9421 31.3097 44.5356 30.0753L44.5349 30.0729L45.861 29.8229C46.3062 29.7389 46.5991 29.31 46.5151 28.8648C46.4311 28.4195 46.0024 28.1264 45.5569 28.2105ZM19.8533 11.6486L20.4258 11.916C20.3608 11.9502 20.2897 11.9832 20.2155 12.0131C19.4404 12.0409 18.7667 11.5062 18.5916 10.7826C18.9493 11.1251 19.3687 11.4222 19.8533 11.6486ZM19.0184 2.11262C20.0165 1.09828 21.7859 1.8312 21.7766 3.25515V5.09156C20.579 4.54315 19.6064 4.10182 19.5191 4.06223C19.2128 3.91906 18.8732 3.90265 18.5456 4.0117V3.25515C18.5456 2.82334 18.7135 2.41756 19.0184 2.11262ZM15.2892 1.63979C16.18 1.63979 16.9047 2.36451 16.9047 3.25537V10.3988C16.8156 12.5424 13.7619 12.5406 13.6736 10.3988V10.256C13.6747 10.2215 13.6754 10.1868 13.6754 10.1519V4.19293C13.6754 4.15804 13.6747 4.12337 13.6736 4.08881V3.25537C13.6737 2.36451 14.3985 1.63979 15.2892 1.63979ZM8.80371 4.19293C8.88476 2.09337 11.8594 2.03212 12.0331 4.11889V10.2259C11.8587 12.3142 8.8841 12.2498 8.80371 10.1519V4.19293ZM3.93215 5.47984C4.02118 3.33609 7.07504 3.33773 7.16319 5.47984V11.4389C7.07416 13.5827 4.0203 13.581 3.93215 11.4389V5.47984ZM2.15557 27.2635L7.5413 28.425C8.61066 28.6175 8.94043 27.0864 7.88715 26.8213L7.09505 26.6505V24.0777C7.69301 24.2537 8.32552 24.3482 8.97958 24.3482H13.5818C13.9427 24.3857 14.2987 24.4285 14.6435 24.4701C15.9918 24.6309 17.2985 24.7937 18.6308 24.5742V29.1384L11.6644 27.636C10.5949 27.4438 10.2653 28.9745 11.3186 29.2397L21.399 31.4137L20.9148 33.6588L1.67159 29.5088L2.15557 27.2635ZM25.1084 34.4502C25.0593 34.4818 24.9574 34.5304 24.825 34.5019L22.5187 34.0045L23.0029 31.7597L23.2717 31.8177C23.2792 31.8193 23.2866 31.8207 23.294 31.8221L25.3093 32.2568C25.4418 32.2854 25.5146 32.3718 25.5463 32.4206C25.5779 32.4695 25.6266 32.5715 25.5979 32.7041L25.2724 34.2132C25.2438 34.3459 25.1574 34.4186 25.1084 34.4502ZM34.6047 34.6756C34.6047 35.0706 34.2834 35.3919 33.8885 35.3919H29.9616C29.7122 35.3919 29.4921 35.2636 29.3638 35.0696C29.7063 35.0353 30.0034 34.7859 30.0824 34.4316C30.1809 33.9894 29.9024 33.551 29.4602 33.4526L29.2456 33.4048V33.155C29.2456 32.7601 29.5669 32.4388 29.9618 32.4388H33.7887C33.4076 32.6315 33.2353 33.0893 33.4038 33.4889C33.5798 33.9107 34.0711 34.101 34.4783 33.9263L34.6049 33.8729V34.6756H34.6047ZM42.9772 30.5883C43.1006 30.9634 42.896 31.3692 42.5208 31.4927L38.7909 32.7209C38.4839 32.8224 38.1565 32.7033 37.9799 32.4509L38.1615 32.3745C38.579 32.1987 38.7749 31.7176 38.599 31.3001C38.4231 30.8826 37.9422 30.6865 37.5245 30.8627L37.4372 30.8995L37.4111 30.8202C37.3512 30.6385 37.3658 30.4442 37.452 30.2735C37.5382 30.1027 37.6857 29.9757 37.8674 29.9159L41.5973 28.6877C41.7783 28.6281 41.9728 28.6421 42.1439 28.7285C42.1972 28.7554 42.2463 28.7883 42.2904 28.8264L41.6291 28.9511C41.184 29.0351 40.8911 29.4639 40.9751 29.9092C41.0569 30.3571 41.4987 30.6486 41.9332 30.5632L42.9085 30.3794L42.9772 30.5883Z" fill="#327FFC"/>
</g>
<defs>
<clipPath id="clip0_2_2521">
<rect width="56" height="56" fill="white"/>
</clipPath>
</defs>
</svg>
