<svg width="281" height="66" viewBox="0 0 281 66" fill="none" xmlns="http://www.w3.org/2000/svg">
<path d="M42.2068 22.4673C42.2068 19.8637 42.692 17.6033 43.6624 15.6861C44.6565 13.7453 46.0767 12.2423 47.9229 11.1772C49.769 10.1121 51.9584 9.57951 54.491 9.57951C57.0236 9.57951 59.213 10.1121 61.0591 11.1772C62.9053 12.2423 64.3255 13.7453 65.3196 15.6861C66.3373 17.6033 66.8462 19.8518 66.8462 22.4318C66.8462 25.059 66.3373 27.3431 65.3196 29.2839C64.3255 31.2011 62.9053 32.7041 61.0591 33.7929C59.213 34.858 57.0236 35.3905 54.491 35.3905C51.9584 35.3905 49.769 34.858 47.9229 33.7929C46.1003 32.7041 44.692 31.1893 43.6979 29.2484C42.7038 27.3076 42.2068 25.0472 42.2068 22.4673ZM47.9939 22.4673C47.9939 25.0472 48.5264 27.0709 49.5915 28.5384C50.6803 29.9822 52.3135 30.7041 54.491 30.7041C56.6212 30.7041 58.2425 29.9822 59.355 28.5384C60.4674 27.0709 61.0236 25.0472 61.0236 22.4673C61.0236 19.8637 60.4674 17.8518 59.355 16.4317C58.2662 14.9879 56.6449 14.266 54.491 14.266C52.3135 14.266 50.6803 14.9879 49.5915 16.4317C48.5264 17.8518 47.9939 19.8637 47.9939 22.4673ZM71.1749 35V9.97005H89.6367V14.195H76.4294V20.0885H83.3525C86.1218 20.0885 88.2875 20.7276 89.8497 22.0057C91.4118 23.2602 92.1929 25.0945 92.1929 27.5088C92.1929 29.923 91.4118 31.781 89.8497 33.0828C88.2875 34.3609 86.1218 35 83.3525 35H71.1749ZM76.4294 30.8106H82.6425C84.1336 30.8106 85.2224 30.5384 85.9088 29.994C86.5952 29.4496 86.9384 28.6212 86.9384 27.5088C86.9384 26.42 86.5952 25.6152 85.9088 25.0945C85.2224 24.5501 84.1336 24.2779 82.6425 24.2779H76.4294V30.8106ZM95.8955 35V9.97005H101.434V20.0175H112.902V9.97005H118.476V35H112.902V24.5975H101.434V35H95.8955ZM127.22 35L131.694 26.5147L131.765 28.1123L120.261 9.97005H126.12L134.463 23.3549H133.433L140.392 9.97005H146.108L132.972 35H127.22ZM148.645 35.6391L145.911 31.6627C146.905 31.0946 147.769 30.4437 148.503 29.71C149.26 28.9526 149.876 28.0413 150.349 26.9762C150.822 25.9111 151.177 24.6211 151.414 23.1063C151.651 21.5915 151.769 19.7808 151.769 17.6743V9.97005H170.586V35H165.083V14.4435H156.846V19.0234C156.846 21.2957 156.657 23.3312 156.278 25.13C155.923 26.9052 155.39 28.4674 154.68 29.8165C153.994 31.1656 153.142 32.3254 152.124 33.2958C151.106 34.2426 149.947 35.0237 148.645 35.6391ZM175.674 35V9.97005H193.071V14.266H180.964V20.124H192.219V24.4555H180.964V30.7041H193.071V35H175.674ZM196.928 35V9.97005H202.466V20.0175H213.934V9.97005H219.508V35H213.934V24.5975H202.466V35H196.928ZM224.596 35V9.97005H229.708V27.3668H228.821L242.383 9.97005H246.501V35H241.353V17.6033H242.241L228.643 35H224.596ZM251.57 35V9.97005H268.967V14.266H256.86V20.124H268.115V24.4555H256.86V30.7041H268.967V35H251.57Z" fill="#282533"/>
<path d="M0.426042 63.7143V53.4183H3.0533C4.16574 52.0692 4.99416 50.223 5.53854 47.8798C6.08293 45.5129 6.35512 42.6371 6.35512 39.2524V32.6488H25.1365V53.4183H28.7933V63.7143H24.0004V57.6787H5.25451V63.7143H0.426042ZM8.52083 53.4183H19.6334V36.8737H11.3966V39.785C11.3966 42.9803 11.1599 45.6904 10.6865 47.9153C10.2132 50.1401 9.49126 51.9745 8.52083 53.4183ZM31.3854 45.146C31.3854 42.5424 31.8706 40.282 32.841 38.3648C33.8351 36.424 35.2552 34.921 37.1014 33.8559C38.9476 32.7908 41.137 32.2582 43.6696 32.2582C46.2021 32.2582 48.3915 32.7908 50.2377 33.8559C52.0839 34.921 53.504 36.424 54.4981 38.3648C55.5159 40.282 56.0248 42.5306 56.0248 45.1105C56.0248 47.7377 55.5159 50.0218 54.4981 51.9627C53.504 53.8798 52.0839 55.3828 50.2377 56.4716C48.3915 57.5367 46.2021 58.0692 43.6696 58.0692C41.137 58.0692 38.9476 57.5367 37.1014 56.4716C35.2789 55.3828 33.8706 53.868 32.8765 51.9271C31.8824 49.9863 31.3854 47.7259 31.3854 45.146ZM37.1724 45.146C37.1724 47.7259 37.705 49.7496 38.7701 51.2171C39.8588 52.6609 41.492 53.3828 43.6696 53.3828C45.7998 53.3828 47.4211 52.6609 48.5335 51.2171C49.646 49.7496 50.2022 47.7259 50.2022 45.146C50.2022 42.5424 49.646 40.5305 48.5335 39.1104C47.4448 37.6666 45.8234 36.9447 43.6696 36.9447C41.492 36.9447 39.8588 37.6666 38.7701 39.1104C37.705 40.5305 37.1724 42.5424 37.1724 45.146ZM60.853 58.3178L58.1192 54.3414C59.1133 53.7733 59.9772 53.1224 60.7109 52.3887C61.4683 51.6313 62.0837 50.72 62.5571 49.6549C63.0305 48.5898 63.3855 47.2999 63.6222 45.785C63.8589 44.2702 63.9773 42.4596 63.9773 40.353V32.6488H82.7941V57.6787H77.2911V37.1222H69.0543V41.7021C69.0543 43.9744 68.8649 46.0099 68.4862 47.8087C68.1312 49.5839 67.5986 51.1461 66.8885 52.4952C66.2021 53.8443 65.3501 55.0041 64.3323 55.9745C63.3145 56.9213 62.1547 57.7024 60.853 58.3178ZM87.8825 57.6787V32.6488H105.386V37.1222H93.3855V57.6787H87.8825ZM107.454 45.146C107.454 42.5424 107.94 40.282 108.91 38.3648C109.904 36.424 111.324 34.921 113.17 33.8559C115.017 32.7908 117.206 32.2582 119.739 32.2582C122.271 32.2582 124.46 32.7908 126.307 33.8559C128.153 34.921 129.573 36.424 130.567 38.3648C131.585 40.282 132.094 42.5306 132.094 45.1105C132.094 47.7377 131.585 50.0218 130.567 51.9627C129.573 53.8798 128.153 55.3828 126.307 56.4716C124.46 57.5367 122.271 58.0692 119.739 58.0692C117.206 58.0692 115.017 57.5367 113.17 56.4716C111.348 55.3828 109.94 53.868 108.945 51.9271C107.951 49.9863 107.454 47.7259 107.454 45.146ZM113.241 45.146C113.241 47.7259 113.774 49.7496 114.839 51.2171C115.928 52.6609 117.561 53.3828 119.739 53.3828C121.869 53.3828 123.49 52.6609 124.603 51.2171C125.715 49.7496 126.271 47.7259 126.271 45.146C126.271 42.5424 125.715 40.5305 124.603 39.1104C123.514 37.6666 121.892 36.9447 119.739 36.9447C117.561 36.9447 115.928 37.6666 114.839 39.1104C113.774 40.5305 113.241 42.5424 113.241 45.146ZM136.422 57.6787V32.6488H147.961C150.707 32.6488 152.825 33.2286 154.316 34.3884C155.807 35.5482 156.553 37.134 156.553 39.1459C156.553 40.637 156.103 41.9033 155.204 42.9448C154.328 43.9862 153.121 44.6844 151.582 45.0395V44.4714C153.381 44.7791 154.766 45.4655 155.736 46.5306C156.73 47.5721 157.227 48.933 157.227 50.6135C157.227 52.8384 156.435 54.5781 154.849 55.8325C153.287 57.0633 151.121 57.6787 148.352 57.6787H136.422ZM141.712 53.5603H147.677C149.05 53.5603 150.103 53.2999 150.837 52.7792C151.571 52.2585 151.937 51.4301 151.937 50.294C151.937 49.1342 151.571 48.3058 150.837 47.8087C150.103 47.288 149.05 47.0277 147.677 47.0277H141.712V53.5603ZM141.712 42.9448H146.967C148.411 42.9448 149.476 42.6844 150.162 42.1637C150.849 41.643 151.192 40.8619 151.192 39.8205C151.192 38.8027 150.849 38.0335 150.162 37.5127C149.476 36.992 148.411 36.7317 146.967 36.7317H141.712V42.9448Z" fill="#327FFC"/>
</svg>
