<svg width="56" height="56" viewBox="0 0 56 56" fill="none" xmlns="http://www.w3.org/2000/svg">
<g clip-path="url(#clip0_2_2527)">
<path d="M50.526 43.5428C51.6322 42.0218 52.2317 40.1912 52.2396 38.3105C52.2516 38.0632 52.1647 37.8213 51.9983 37.638C51.8318 37.4548 51.5993 37.3452 51.352 37.3333C50.8391 37.3142 50.4049 37.7085 50.3748 38.2209C50.3819 39.7115 49.9227 41.1669 49.0616 42.3836C47.2407 44.6833 43.7855 44.8 43.1107 44.8C42.5952 44.8 42.1774 45.2178 42.1774 45.7333C42.1774 46.2488 42.5952 46.6666 43.1107 46.6666C43.9358 46.6666 48.1703 46.5164 50.526 43.5428Z" fill="#327FFC"/>
<path d="M55.2197 31.5196C52.92 21.7466 47.8072 16.0841 44.1149 13.1264C48.7452 13.4754 50.2357 15.4018 50.2796 15.4597C50.572 15.8771 51.1452 15.9828 51.5672 15.6971C51.9893 15.4114 52.1041 14.84 51.8252 14.4134C51.758 14.3126 50.4616 12.4609 46.6919 11.6134C47.6558 10.821 48.226 9.64749 48.2533 8.39996C48.1285 6.33165 46.6887 4.57775 44.6843 4.0525C44.7664 3.37831 44.8082 2.69981 44.8093 2.02063C44.8083 1.39492 44.4939 0.811336 43.9719 0.466338C43.4499 0.12134 42.7898 0.060824 42.2137 0.305164C41.7425 0.518501 41.3049 0.799264 40.9145 1.13863C40.4565 1.60933 39.826 1.87234 39.1692 1.86663C38.5135 1.87125 37.8842 1.60835 37.4267 1.13863C35.7818 -0.38052 33.2457 -0.38052 31.6008 1.13863C31.1427 1.61035 30.5111 1.87351 29.8536 1.86663C29.198 1.87208 28.5687 1.60903 28.112 1.13863C27.7227 0.799993 27.2863 0.519567 26.8165 0.306097C26.2409 0.063395 25.582 0.124737 25.0611 0.469531C24.5401 0.814324 24.2262 1.39685 24.2247 2.02156C24.2247 4.3437 24.6839 8.48583 27.5912 11.2672C26.0633 12.1962 24.6363 13.282 23.3333 14.5068V7.46663C23.3333 5.33863 20.3233 3.7333 16.3333 3.7333C12.3433 3.7333 9.33333 5.33863 9.33333 7.46663V16.87C6.06013 17.1966 3.73333 18.6666 3.73333 20.5333V44.2726C1.4784 44.8784 0 46.1066 0 47.6V52.2666C0 54.3946 3.01 56 7 56C10.5681 56 13.3467 54.7148 13.8945 52.92C15.5056 53.773 17.3113 54.1912 19.1333 54.1333C23.1233 54.1333 26.1333 52.528 26.1333 50.4V38.2666C26.1333 36.1386 23.1233 34.5333 19.1333 34.5333C18.6658 34.533 18.1985 34.5564 17.7333 34.6033V20.5333C17.7333 18.4893 14.9548 16.9325 11.2 16.8121V10.051C12.7878 10.8581 14.553 11.2532 16.3333 11.2C18.1137 11.2532 19.8789 10.8581 21.4667 10.051V16.4164C20.8516 17.1042 20.2337 17.8537 19.6243 18.6844C19.3452 19.1 19.4437 19.6617 19.8475 19.9576C20.2513 20.2535 20.8167 20.178 21.1288 19.7866C21.7283 18.9751 22.3707 18.1962 23.0533 17.4533C23.0608 17.4449 23.0673 17.4365 23.0748 17.429C24.8565 15.449 26.9487 13.7722 29.2693 12.4646C29.7269 12.6853 30.2109 12.8462 30.7095 12.9434L28.3033 15.189C27.9265 15.5411 27.9065 16.132 28.2585 16.5088C28.6106 16.8856 29.2015 16.9056 29.5783 16.5536L33.3116 13.0713H33.6093V15.8713C33.6093 16.3868 34.0272 16.8046 34.5427 16.8046C35.0581 16.8046 35.476 16.3868 35.476 15.8713V13.0666H35.7737L39.5071 16.5489C39.7508 16.7766 40.0976 16.857 40.4167 16.7598C40.7358 16.6626 40.9788 16.4025 41.0541 16.0776C41.1295 15.7526 41.0258 15.4121 40.782 15.1844L38.36 12.9294C38.8556 12.8313 39.3365 12.6698 39.7908 12.4488C42.2576 13.7834 50.3664 19.0568 53.4035 31.947C54.7241 37.5582 54.2481 41.8506 51.9895 44.702C49.0999 48.3466 44.086 48.5333 43.1107 48.5333H29.8667C29.3512 48.5333 28.9333 48.9512 28.9333 49.4666C28.9333 49.9821 29.3512 50.4 29.8667 50.4H43.1107C44.6973 50.4 50.1153 50.0724 53.452 45.8612C56.0821 42.5394 56.6776 37.7141 55.2197 31.5196ZM7 45.7333C10.0865 45.7333 12.1333 46.8533 12.1333 47.6C12.1333 48.3466 10.0865 49.4666 7 49.4666C3.91347 49.4666 1.86667 48.3466 1.86667 47.6C1.86667 46.8533 3.91347 45.7333 7 45.7333ZM7 54.1333C3.91347 54.1333 1.86667 53.0133 1.86667 52.2666V50.1844C3.45448 50.9914 5.21965 51.3865 7 51.3333C8.78035 51.3865 10.5455 50.9914 12.1333 50.1844V52.2666C12.1333 53.0133 10.0865 54.1333 7 54.1333ZM19.1333 52.2666C16.0468 52.2666 14 51.1466 14 50.4V40.851C15.5878 41.6581 17.353 42.0532 19.1333 42C20.9137 42.0532 22.6789 41.6581 24.2667 40.851V50.4C24.2667 51.1466 22.2199 52.2666 19.1333 52.2666ZM24.2667 38.2666C24.2667 39.0133 22.2199 40.1333 19.1333 40.1333C16.0468 40.1333 14 39.0133 14 38.2666C14 37.52 16.0468 36.4 19.1333 36.4C22.2199 36.4 24.2667 37.52 24.2667 38.2666ZM12.1333 38.2666V45.0156C10.5455 44.2085 8.78035 43.8134 7 43.8666C6.53245 43.8663 6.06519 43.8897 5.6 43.9366V23.1177C7.18782 23.9247 8.95298 24.3198 10.7333 24.2666C12.5137 24.3198 14.2789 23.9247 15.8667 23.1177V34.9393C13.6117 35.545 12.1333 36.7733 12.1333 38.2666ZM15.8667 20.5333C15.8667 21.28 13.8199 22.4 10.7333 22.4C7.6468 22.4 5.6 21.28 5.6 20.5333C5.6 19.7866 7.6468 18.6666 10.7333 18.6666C13.8199 18.6666 15.8667 19.7866 15.8667 20.5333ZM16.3333 9.3333C13.2468 9.3333 11.2 8.2133 11.2 7.46663C11.2 6.71996 13.2468 5.59996 16.3333 5.59996C19.4199 5.59996 21.4667 6.71996 21.4667 7.46663C21.4667 8.2133 19.4199 9.3333 16.3333 9.3333ZM46.3867 8.39996C46.3867 9.9297 44.73 11.185 42.6533 11.2C42.306 11.1978 41.9599 11.158 41.6211 11.0814C42.9757 9.63621 43.9173 7.85367 44.3473 5.9201C45.4708 6.25112 46.2788 7.23373 46.3867 8.39996ZM26.9435 2.59463C27.7317 3.33321 28.7735 3.74083 29.8536 3.7333C30.9344 3.74141 31.977 3.33374 32.7656 2.59463C33.2269 2.12884 33.8553 1.86679 34.5109 1.86679C35.1665 1.86679 35.7949 2.12884 36.2563 2.59463C37.0449 3.33429 38.088 3.74203 39.1692 3.7333C40.2503 3.74165 41.2933 3.33396 42.0821 2.59463C42.3408 2.36604 42.6286 2.17271 42.938 2.0197C42.938 3.7529 42.616 8.03783 39.6088 10.387C38.9323 10.8951 38.1121 11.1758 37.2661 11.1888C38.0741 9.801 38.7136 8.32179 39.1711 6.7825C39.2604 6.46105 39.1715 6.11635 38.9378 5.87824C38.7041 5.64013 38.3612 5.54478 38.0381 5.62811C37.715 5.71144 37.461 5.96079 37.3716 6.28223C36.8547 8.03668 36.06 9.69696 35.0177 11.2H34.0583C33.0181 9.69564 32.2233 8.03574 31.7035 6.28223C31.5651 5.78558 31.0503 5.49516 30.5536 5.63356C30.057 5.77197 29.7665 6.28678 29.9049 6.78343C30.3628 8.32405 31.003 9.80452 31.8117 11.1934C30.9488 11.189 30.1103 10.9065 29.4205 10.388C26.4133 8.0397 26.0913 3.75476 26.0913 2.02716C26.4006 2.17535 26.6875 2.36638 26.9435 2.59463Z" fill="#327FFC"/>
<path d="M50.526 43.5427C51.6322 42.0217 52.2317 40.1912 52.2396 38.3104C52.2516 38.0631 52.1647 37.8212 51.9983 37.638C51.8318 37.4547 51.5993 37.3451 51.352 37.3332C50.8395 37.3151 50.4059 37.7089 50.3748 38.2208C50.3819 39.7114 49.9227 41.1668 49.0616 42.3835C47.2407 44.6832 43.7855 44.7999 43.1107 44.7999C42.5952 44.7999 42.1774 45.2178 42.1774 45.7332C42.1774 46.2487 42.5952 46.6666 43.1107 46.6666C43.9358 46.6666 48.1703 46.5163 50.526 43.5427Z" fill="#327FFC"/>
</g>
<defs>
<clipPath id="clip0_2_2527">
<rect width="56" height="56" fill="white"/>
</clipPath>
</defs>
</svg>
