<svg width="56" height="56" viewBox="0 0 56 56" fill="none" xmlns="http://www.w3.org/2000/svg">
<path d="M55.3781 32.8586L54.1517 31.6322C53.8312 31.3118 53.3119 31.3118 52.9915 31.6322C52.6712 31.9526 52.6712 32.472 52.9915 32.7922L54.2181 34.0187C54.3092 34.1098 54.3594 34.231 54.3594 34.3599C54.3594 34.4888 54.3092 34.61 54.218 34.7012C54.1072 34.8121 53.9485 34.8622 53.7945 34.8355L51.3739 34.4161C50.9212 34.3377 50.5926 33.9473 50.5926 33.4881C50.5926 32.7982 50.324 32.1497 49.8362 31.6619L48.1066 29.9323C47.6649 29.4904 47.0774 29.2472 46.4525 29.2472C45.8277 29.2472 45.2402 29.4905 44.7985 29.9324C44.1933 30.5377 43.967 31.424 44.2082 32.2452L44.4383 33.029C44.5103 33.2742 44.4428 33.5389 44.262 33.7196L43.5999 34.3817C42.9744 35.0072 42.63 35.8389 42.63 36.7234C42.63 38.3173 43.9266 39.614 45.5207 39.614H46.1374C46.8121 39.614 47.4529 39.9059 47.8957 40.4147L49.1191 41.8209C49.4811 42.2369 49.6804 42.7697 49.6804 43.3212V45.4233C49.6804 45.9525 49.2498 46.3831 48.7208 46.3831C48.1917 46.3831 47.7611 45.9525 47.7611 45.4233V44.0628C47.7611 42.9146 46.8269 41.9804 45.6787 41.9804C45.1225 41.9804 44.5996 42.197 44.2063 42.5904L42.9326 43.8638C42.8501 43.9464 42.7402 43.9919 42.6234 43.9919H42.3213C42.2045 43.9919 42.0947 43.9464 42.012 43.8638L40.1725 42.0241C39.7799 41.6316 39.2581 41.4155 38.703 41.4155C37.5572 41.4155 36.6251 42.3477 36.6251 43.4935V45.3176C36.6251 45.7151 36.3017 46.0385 35.9041 46.0385H34.9967C34.7692 46.0385 34.5553 45.9499 34.3943 45.7889L34.248 45.6428C33.3175 44.7122 31.8035 44.7122 30.8731 45.6428L29.494 47.0219C29.3486 47.1673 29.1552 47.2475 28.9496 47.2475C28.7439 47.2475 28.5506 47.1674 28.4051 47.0219C27.9498 46.5666 27.3445 46.3158 26.7006 46.3158C26.0567 46.3158 25.4513 46.5666 24.9961 47.0219L23.9676 48.0505C23.8221 48.196 23.6287 48.276 23.4231 48.276C22.9074 48.276 22.4877 47.8565 22.4877 47.3406V46.9262C22.4969 45.2952 21.0814 43.8821 19.3953 43.933C19.2502 43.933 19.1322 43.8149 19.1322 43.6699C19.1322 42.6202 18.2782 41.7662 17.2285 41.7662H16.3004C14.9889 41.7662 13.9219 42.8332 13.9219 44.1447C13.9219 44.2897 13.8039 44.4077 13.6589 44.4077H12.7293C12.2667 44.4077 11.832 44.2277 11.5049 43.9006L10.0636 42.4594C9.57042 41.9664 8.91483 41.6948 8.21756 41.6948H7.6463C6.61872 41.6948 5.78288 42.5308 5.78288 43.5582C5.78288 43.7986 5.68925 44.0248 5.51917 44.1948L4.27208 45.442C4.05344 45.6606 3.69786 45.6605 3.47933 45.442L2.02847 43.9911C1.77844 43.741 1.64062 43.4085 1.64062 43.0547V42.0155C1.64062 41.8774 1.75306 41.7649 1.8912 41.7649C2.93398 41.7649 3.78241 40.9165 3.78241 39.8737V37.8792C3.78241 37.1507 3.4988 36.4659 2.98364 35.9509L2.25509 35.2223C1.79922 34.7665 1.7442 34.0577 2.12428 33.537L4.61377 30.1257C4.95819 29.6537 5.51261 29.372 6.09689 29.372C7.01914 29.4401 8.19689 29.1315 8.98177 28.4544C9.52569 29.2987 10.1337 30.1495 10.8072 31.0062C10.969 31.2121 11.2096 31.3196 11.4527 31.3196C11.6301 31.3196 11.8088 31.2623 11.9591 31.1442C12.3152 30.8642 12.377 30.3485 12.097 29.9923C9.87853 27.1705 7.23406 22.8656 7.23406 18.3825C7.23406 12.3062 11.5612 7.72414 17.2993 7.72414C23.0373 7.72414 27.3644 12.3063 27.3644 18.3825C27.3644 26.4191 19.1216 33.8489 17.2961 35.3942C16.7891 34.9709 15.7901 34.0972 14.5599 32.8171C14.2459 32.4905 13.7267 32.4801 13.4001 32.794C13.0735 33.1079 13.0631 33.6272 13.377 33.9538C14.8462 35.4826 16.1273 36.5781 16.6523 36.9841C16.8429 37.1317 17.0711 37.2054 17.2994 37.2054C17.5276 37.2054 17.7556 37.1318 17.9458 36.9845C17.9762 36.961 21.0207 34.5886 23.9608 30.789C25.2002 29.1875 26.2127 27.6067 26.9972 26.0523H27.8515C28.0832 26.0523 28.2717 26.2409 28.2717 26.4725V26.7681C28.2717 27.8891 29.1837 28.8009 30.3046 28.8009H33.3017C33.8448 28.8009 34.3552 28.5895 34.7393 28.2055L37.4864 25.4583C37.7709 25.1737 38.1492 25.0171 38.5516 25.0171C39.3924 25.0171 40.1826 24.6897 40.7771 24.0953L43.3088 21.5635C43.683 21.1894 44.1804 20.9833 44.7093 20.9833C45.6765 20.9833 46.5859 20.6068 47.2699 19.9227L48.8124 18.3802C48.8948 18.2979 49.0043 18.2525 49.1208 18.2525C49.3612 18.2525 49.5568 18.4481 49.5568 18.6887V19.4716C49.5568 20.3899 49.9145 21.2532 50.5636 21.9022C50.903 22.2416 51.0899 22.6928 51.0899 23.1728V23.7098C51.0899 24.1899 50.903 24.6411 50.5636 24.9804L50.1392 25.4048C49.49 26.0541 49.1325 26.9174 49.1325 27.8355C49.1325 28.5434 49.4082 29.2092 49.9089 29.7098L50.2826 30.0836C50.4429 30.2437 50.6529 30.3239 50.8628 30.3239C51.0727 30.3239 51.2827 30.2438 51.4429 30.0836C51.7632 29.7632 51.7632 29.2438 51.4429 28.9235L51.0692 28.5498C50.8783 28.3589 50.7732 28.1053 50.7732 27.8355C50.7732 27.3555 50.9601 26.9042 51.2995 26.5649L51.7239 26.1405C52.3731 25.4912 52.7306 24.628 52.7306 23.7098V23.1728C52.7306 22.2546 52.373 21.3913 51.7238 20.7421C51.3844 20.4028 51.1975 19.9515 51.1975 19.4716V18.6887C51.1975 17.5435 50.2658 16.6118 49.1208 16.6118C48.566 16.6118 48.0445 16.8279 47.6522 17.2202L46.1098 18.7626C45.7356 19.1367 45.2383 19.3427 44.7092 19.3427C43.742 19.3427 42.8328 19.7194 42.1486 20.4033L39.6168 22.9352C39.3323 23.2197 38.954 23.3765 38.5516 23.3765C37.7109 23.3765 36.9206 23.7038 36.3262 24.2983L33.579 27.0454C33.505 27.1195 33.4065 27.1603 33.3017 27.1603H30.3046C30.0883 27.1603 29.9123 26.9843 29.9123 26.7681V26.4725C29.9193 25.3721 28.9277 24.3584 27.7448 24.4117C28.5829 22.3452 29.005 20.3306 29.005 18.3825C29.0225 11.4503 23.9037 6.07312 17.2993 6.08351C10.3142 6.0764 5.56872 11.8646 5.59344 18.3823C5.59344 21.1439 6.44055 24.0364 8.11672 27.0202C7.78662 27.4054 6.8763 27.8082 6.09689 27.7312C4.99056 27.7312 3.94078 28.2648 3.28858 29.1584L0.799094 32.5697C-0.0605937 33.7476 0.0637656 35.3511 1.09506 36.3822L1.82361 37.1108C2.0288 37.316 2.14178 37.5889 2.14178 37.879V39.8736C2.14178 40.0117 2.02934 40.1242 1.8912 40.1242C0.848422 40.1242 0 40.9726 0 42.0154V43.0546C0 43.8465 0.308438 44.5912 0.868438 45.1512L2.3193 46.602C3.17767 47.4604 4.57406 47.4603 5.43211 46.602L6.67931 45.3548C7.15914 44.8749 7.4235 44.2368 7.4235 43.5582C7.4235 43.4354 7.52347 43.3354 7.6463 43.3354H8.21756C8.47667 43.3354 8.72036 43.4364 8.90356 43.6196L10.3447 45.0607C10.9816 45.6976 11.8284 46.0484 12.7292 46.0484H13.6587C14.7084 46.0484 15.5624 45.1944 15.5624 44.1447C15.5624 43.7378 15.8934 43.4069 16.3003 43.4069H17.2284C17.3735 43.4069 17.4915 43.5249 17.4915 43.6699C17.4915 44.7196 18.3455 45.5736 19.3951 45.5736C20.0496 45.5246 20.8427 46.0947 20.847 46.9262V47.3406C20.847 48.761 22.0025 49.9166 23.423 49.9166C24.0668 49.9166 24.672 49.666 25.1275 49.2106L26.1562 48.182C26.3015 48.0365 26.4949 47.9564 26.7005 47.9564C26.9061 47.9564 27.0994 48.0365 27.2449 48.182C27.7002 48.6373 28.3055 48.888 28.9494 48.888C29.5933 48.888 30.1985 48.6373 30.6539 48.182L32.033 46.8028C32.3236 46.5121 32.7969 46.512 33.0878 46.803L33.234 46.9491C33.7049 47.4198 34.3307 47.6792 34.9965 47.6792H35.9039C37.2061 47.6792 38.2655 46.6198 38.2655 45.3176V43.4935C38.2655 43.2523 38.4617 43.0561 38.7028 43.0561C38.8196 43.0561 38.9294 43.1016 39.012 43.1842L40.8517 45.0239C41.2442 45.4163 41.7659 45.6324 42.3211 45.6324H42.6232C43.1783 45.6324 43.7001 45.4163 44.0926 45.0239L45.3662 43.7504C45.4497 43.667 45.5605 43.621 45.6785 43.621C45.9222 43.621 46.1203 43.8192 46.1203 44.0628V45.4232C46.1203 46.857 47.2868 48.0236 48.7205 48.0236C50.1543 48.0236 51.3208 46.857 51.3208 45.4232V43.3212C51.3208 42.3739 50.9784 41.4587 50.3567 40.7441L49.1333 39.3379C48.3789 38.4707 47.2867 37.9733 46.1372 37.9733H45.5205C44.8312 37.9733 44.2704 37.4127 44.2704 36.7234C44.2704 36.277 44.4443 35.8574 44.76 35.5417L45.4219 34.8798C46.0272 34.2745 46.2536 33.3882 46.0123 32.5668L45.7822 31.783C45.7102 31.5378 45.7778 31.2731 45.9585 31.0924C46.0904 30.9604 46.2658 30.8878 46.4524 30.8878C46.639 30.8878 46.8145 30.9604 46.9465 31.0924L48.676 32.8221C48.854 32.9999 48.9519 33.2365 48.9519 33.4882C48.9519 34.7476 49.8526 35.8179 51.0937 36.0329L53.5142 36.4523C54.1939 36.5698 54.8903 36.3491 55.378 35.8615C55.779 35.4604 55.9999 34.9272 55.9999 34.3601C56 33.7928 55.7791 33.2596 55.3781 32.8586Z" fill="#327FFC"/>
<path d="M25.3766 17.7397C25.3766 13.2858 21.7531 9.66235 17.2993 9.66235C12.8454 9.66235 9.22192 13.2858 9.22192 17.7397C9.22192 22.1936 12.8454 25.817 17.2993 25.817C21.7531 25.817 25.3766 22.1934 25.3766 17.7397ZM17.2993 11.303C19.6695 11.303 21.7432 12.5917 22.8603 14.5045H19.7388C19.2857 14.5045 18.9185 14.8718 18.9185 15.3248C18.9185 15.7778 19.2857 16.1451 19.7388 16.1451H23.5358C23.6663 16.6552 23.736 17.1894 23.736 17.7397C23.736 18.2943 23.6654 18.8328 23.5329 19.3466H11.0657C10.9331 18.8328 10.8625 18.2943 10.8625 17.7397C10.8625 17.1894 10.9322 16.6552 11.0627 16.1451H15.9105C16.3636 16.1451 16.7308 15.7778 16.7308 15.3248C16.7308 14.8718 16.3636 14.5045 15.9105 14.5045H11.7382C12.8554 12.5917 14.929 11.303 17.2993 11.303ZM11.7453 20.9871H22.8531C21.7343 22.8931 19.6644 24.1763 17.2992 24.1763C14.9339 24.1763 12.8641 22.8931 11.7453 20.9871Z" fill="#327FFC"/>
</svg>
