<?xml version="1.0" encoding="utf-8"?><svg xmlns="http://www.w3.org/2000/svg" xmlns:xlink="http://www.w3.org/1999/xlink"><symbol viewBox="0 0 22 24" id="basket" xmlns="http://www.w3.org/2000/svg"><g clip-path="url(#aa)"><path d="M10.363 18.443a2.046 2.046 0 0 0-2.045 2.042 2.046 2.046 0 0 0 4.09 0 2.046 2.046 0 0 0-2.045-2.042Zm6.134 0a2.046 2.046 0 0 0-2.045 2.042 2.046 2.046 0 0 0 4.089 0 2.046 2.046 0 0 0-2.044-2.042Zm3.978-8.199L7.413 6.891a.614.614 0 0 0-.75.73L8.67 16.4h-.786L5.482 5.895a.613.613 0 0 0-.474-.464l-4.27-.882A.614.614 0 0 0 .489 5.75l3.885.802L6.797 17.15a.613.613 0 0 0 .598.477h12.07a.615.615 0 0 0 .607-.53l.858-6.175a.613.613 0 0 0-.455-.678Zm-8.14 3.91a.613.613 0 0 1-1.227 0v-2.696a.613.613 0 0 1 1.227 0v2.696Zm2.625 0a.613.613 0 0 1-1.227 0v-1.88a.613.613 0 0 1 1.227 0v1.88Zm2.625 0a.613.613 0 0 1-1.227 0v-1.226a.613.613 0 0 1 1.227 0v1.226Z"/></g><path fill-rule="evenodd" clip-rule="evenodd" d="M16.268 4.568a2.996 2.996 0 0 0-1.693-.523c-.627 0-1.21.193-1.693.523-.28-.843-.492-1.752-.492-2.383C12.39.98 13.37 0 14.575 0s2.185.98 2.185 2.185c0 .631-.212 1.54-.492 2.383Zm-4.722 2.274.024.006v-.011l-.024.005Zm4.972 1.217c-1.333-.33-2.766-.681-4.129-1.013a2.185 2.185 0 1 1 4.129 1.013Zm4.436 1.103c-.866-.217-2.155-.538-3.618-.9a2.995 2.995 0 0 0 .243-1.425c.87.18 1.762.45 2.308.765.596.344.969.928 1.067 1.56ZM9.869 6.439c-.36-.086-.706-.167-1.03-.243a2.19 2.19 0 0 1-.376-2.667 2.188 2.188 0 0 1 3.147-.7c.098.738.338 1.599.61 2.353a3.01 3.01 0 0 0-.449.774c-.628.113-1.305.278-1.902.483Zm10.124.075a3.43 3.43 0 0 1-.217.114c-.696-.295-1.587-.526-2.397-.672a3.01 3.01 0 0 0-.449-.774c.262-.727.494-1.553.599-2.273.095-.067.189-.128.278-.18a2.188 2.188 0 0 1 2.986.8 2.188 2.188 0 0 1-.8 2.985Z"/><defs><clipPath id="aa"><path transform="translate(0 3.064)" d="M0 0h20.936v20.936H0z"/></clipPath></defs></symbol><symbol viewBox="0 0 24 25" id="calendar" xmlns="http://www.w3.org/2000/svg"><g clip-path="url(#ba)"><path d="M18.094 11.281a.937.937 0 1 0 0-1.875.937.937 0 0 0 0 1.875Z"/><path d="M20.25 2.375h-1.219v-.938a.937.937 0 1 0-1.875 0v.938h-4.265v-.938a.937.937 0 1 0-1.875 0v.938h-4.22v-.938a.937.937 0 1 0-1.874 0v.938H3.75A3.754 3.754 0 0 0 0 6.125V20.75a3.754 3.754 0 0 0 3.75 3.75h7.172a.937.937 0 1 0 0-1.875H3.75a1.877 1.877 0 0 1-1.875-1.875V6.125c0-1.034.841-1.875 1.875-1.875h1.172v.938a.937.937 0 1 0 1.875 0V4.25h4.219v.938a.937.937 0 1 0 1.875 0V4.25h4.265v.938a.938.938 0 0 0 1.875 0V4.25h1.219c1.034 0 1.875.841 1.875 1.875v5.344a.937.937 0 0 0 1.875 0V6.125a3.754 3.754 0 0 0-3.75-3.75Z"/><path d="M18.328 13.156a5.678 5.678 0 0 0-5.672 5.672 5.678 5.678 0 0 0 5.672 5.672A5.678 5.678 0 0 0 24 18.828a5.678 5.678 0 0 0-5.672-5.672Zm0 9.469a3.801 3.801 0 0 1-3.797-3.797 3.801 3.801 0 0 1 3.797-3.797 3.801 3.801 0 0 1 3.797 3.797 3.801 3.801 0 0 1-3.797 3.797Z"/><path d="M19.688 17.89h-.422v-.984a.937.937 0 0 0-1.875 0v1.922c0 .518.42.938.937.938h1.36a.937.937 0 1 0 0-1.875Zm-5.672-6.609a.937.937 0 1 0 0-1.875.937.937 0 0 0 0 1.875ZM9.938 15.36a.938.938 0 1 0 0-1.876.938.938 0 0 0 0 1.875ZM5.86 11.281a.937.937 0 1 0 0-1.875.937.937 0 0 0 0 1.875Zm0 4.079a.938.938 0 1 0 0-1.876.938.938 0 0 0 0 1.875Zm0 4.078a.937.937 0 1 0 0-1.875.937.937 0 0 0 0 1.875Zm4.078 0a.937.937 0 1 0 0-1.875.937.937 0 0 0 0 1.875Zm0-8.157a.937.937 0 1 0 0-1.875.937.937 0 0 0 0 1.875Z"/></g><defs><clipPath id="ba"><path transform="translate(0 .5)" d="M0 0h24v24H0z"/></clipPath></defs></symbol><symbol viewBox="0 0 344.96 344.96" id="check" xmlns="http://www.w3.org/2000/svg"><g data-name="Слой 2"><path class="ccls-1" d="m321.85 86.24-40-23.11-23.1-40H212.5L172.48 0l-40 23.11H86.24l-23.11 40-40 23.1v46.21L0 172.48l23.11 40v46.21l40 23.11 23.11 40h46.21l40 23.1 40-23.11h46.21l23.11-40 40-23.11V212.5l23.11-40-23.11-40V86.24ZM156.91 243.07a16.79 16.79 0 0 1-23.34 0l-50.45-50.44a16.19 16.19 0 0 1 0-22.89l13.35-13.35a16.19 16.19 0 0 1 22.89 0l25.87 25.87 80.34-80.35a16.19 16.19 0 0 1 22.89 0l13.35 13.35a16.19 16.19 0 0 1 0 22.89Z" data-name="Capa 1"/></g></symbol><symbol viewBox="0 0 16 16" id="clock" xmlns="http://www.w3.org/2000/svg"><g clip-path="url(#da)"><path d="M8 0C3.589 0 0 3.589 0 8s3.589 8 8 8 8-3.589 8-8-3.589-8-8-8Zm0 14.251A6.258 6.258 0 0 1 1.749 8 6.258 6.258 0 0 1 8 1.749 6.258 6.258 0 0 1 14.251 8 6.258 6.258 0 0 1 8 14.251Z"/><path d="M8.692 8.01V4.655a.678.678 0 1 0-1.355 0v3.57c0 .01.003.02.003.031a.674.674 0 0 0 .196.512l2.524 2.524a.678.678 0 1 0 .958-.958L8.692 8.009Z"/></g><defs><clipPath id="da"><path d="M0 0h16v16H0z"/></clipPath></defs></symbol><symbol viewBox="0 0 24 24" id="fb" xmlns="http://www.w3.org/2000/svg"><path d="M13.397 20.997v-8.196h2.765l.411-3.209h-3.176V7.548c0-.926.258-1.56 1.587-1.56h1.684v-2.86A22.108 22.108 0 0 0 14.201 3c-2.444 0-4.122 1.492-4.122 4.231v2.355H7.332v3.21h2.753v8.201h3.312Z"/></symbol><symbol viewBox="0 0 56 56" id="for-you-1" xmlns="http://www.w3.org/2000/svg"><path d="M5.25 47.688a.875.875 0 0 1-.875-.875 7.884 7.884 0 0 1 7.875-7.875.875.875 0 1 1 0 1.75 6.132 6.132 0 0 0-6.125 6.125.874.874 0 0 1-.875.875Z"/><path d="m17.5 40.69-5.25-.002a.875.875 0 1 1 0-1.75l5.25.001a.875.875 0 1 1 0 1.75Zm15.907 0-3.657-.002a.875.875 0 1 1 0-1.75l3.657.001a.875.875 0 1 1 0 1.75ZM5.25 54.688a.875.875 0 0 1-.874-.875l-.001-7a.875.875 0 1 1 1.75 0v7a.875.875 0 0 1-.874.875Z"/><path d="M17.5 40.69a.877.877 0 0 1-.875-.876V34.8a.875.875 0 0 1 1.75 0v5.015a.873.873 0 0 1-.875.875Zm12.25-.002a.873.873 0 0 1-.875-.875v-5.014a.875.875 0 0 1 1.75 0v5.014a.873.873 0 0 1-.875.875Z"/><path d="M23.625 37.188a14.016 14.016 0 0 1-14-14 .875.875 0 1 1 1.75 0 12.25 12.25 0 1 0 24.5 0 .875.875 0 1 1 1.75 0 14.016 14.016 0 0 1-14 14Z"/><path d="M10.5 24.063a.875.875 0 0 1-.875-.875v-9.625a.875.875 0 1 1 1.75 0v9.625a.873.873 0 0 1-.875.875Zm26.25 0a.875.875 0 0 1-.875-.875V12.69a.875.875 0 1 1 1.75 0v10.5a.873.873 0 0 1-.875.874Z"/><path d="M36.75 13.564a.873.873 0 0 1-.875-.875 5.255 5.255 0 0 0-5.25-5.25.875.875 0 1 1 0-1.75 7.008 7.008 0 0 1 7 7 .873.873 0 0 1-.875.875Z"/><path d="M30.625 7.44a.874.874 0 0 1-.875-.876V2.187a.875.875 0 0 1 1.75 0v4.377a.873.873 0 0 1-.875.875Z"/><path d="M30.625 3.063h-8.75a.875.875 0 1 1 0-1.75h8.75a.875.875 0 1 1 0 1.75Z"/><path d="M10.5 14.438a.873.873 0 0 1-.875-.876 12.263 12.263 0 0 1 12.25-12.25.875.875 0 1 1 0 1.75 10.512 10.512 0 0 0-10.5 10.5.873.873 0 0 1-.875.876Zm26.25 4.374a.873.873 0 0 1-.619-.256l-3.5-3.5a.875.875 0 0 1 1.238-1.237l3.5 3.5a.875.875 0 0 1-.619 1.493Z"/><path d="M23.625 17.937a21.603 21.603 0 0 1-10.075-2.75.876.876 0 0 1 .9-1.5 20.152 20.152 0 0 0 9.175 2.5 20.17 20.17 0 0 0 9.176-2.5.875.875 0 0 1 .9 1.5 21.603 21.603 0 0 1-10.076 2.75Z"/><path d="M10.5 18.812a.875.875 0 0 1-.619-1.493l3.5-3.5a.875.875 0 0 1 1.238 1.237l-3.5 3.5a.873.873 0 0 1-.619.256Zm9.624 23.625a.874.874 0 0 1-.484-.147l-2.625-1.748a.876.876 0 0 1 .97-1.456l2.625 1.748a.875.875 0 0 1-.486 1.603Z"/><path d="M20.126 42.437a.875.875 0 0 1-.392-1.657l3.5-1.75a.875.875 0 0 1 .782 1.565l-3.5 1.75a.875.875 0 0 1-.39.092Zm7 .001a.874.874 0 0 1-.486-1.603l2.625-1.749a.876.876 0 0 1 .97 1.456l-2.625 1.749a.875.875 0 0 1-.484.147Z"/><path d="M27.124 42.438a.878.878 0 0 1-.39-.093l-3.5-1.75a.876.876 0 1 1 .782-1.565l3.5 1.75a.875.875 0 0 1-.392 1.658Zm-3.482 2.625a.874.874 0 0 1-.343-1.682.876.876 0 0 1 .335-.069h.008a.875.875 0 1 1 0 1.75Zm0 4.375a.874.874 0 0 1-.343-1.682.876.876 0 0 1 .335-.069h.008a.875.875 0 1 1 0 1.75Zm0 4.375a.874.874 0 0 1-.343-1.682.876.876 0 0 1 .335-.069h.008a.875.875 0 1 1 0 1.75ZM42 51.188a9.625 9.625 0 1 1 9.625-9.626A9.636 9.636 0 0 1 42 51.188Zm0-17.5a7.875 7.875 0 1 0 7.875 7.874A7.884 7.884 0 0 0 42 33.688Z"/><path d="M42 48.563a7 7 0 1 1 7-7 7.008 7.008 0 0 1-7 7Zm0-12.25a5.25 5.25 0 1 0 0 10.499 5.25 5.25 0 0 0 0-10.5Z"/><path d="M42 54.688a9.636 9.636 0 0 1-9.625-9.626.875.875 0 1 1 1.75 0 7.875 7.875 0 0 0 15.75 0 .875.875 0 1 1 1.75 0A9.636 9.636 0 0 1 42 54.688Z"/><path d="M50.75 45.938a.873.873 0 0 1-.875-.876v-3.5a.875.875 0 1 1 1.75 0v3.5a.873.873 0 0 1-.875.876Zm-17.5 0a.873.873 0 0 1-.875-.876v-3.5a.875.875 0 1 1 1.75 0v3.5a.873.873 0 0 1-.875.876Zm8.75-.875a.873.873 0 0 1-.875-.876v-5.25a.875.875 0 1 1 1.75 0v5.25a.873.873 0 0 1-.875.876Z"/></symbol><symbol viewBox="0 0 56 56" id="for-you-2" xmlns="http://www.w3.org/2000/svg"><path d="M8.116 23.855a2.39 2.39 0 0 0-2.385 2.384v4.769a2.39 2.39 0 0 0 2.385 2.384h6.365a2.39 2.39 0 0 0 2.385-2.384V26.25a2.39 2.39 0 0 0-2.385-2.385H8.116v-.01Zm0 1.596h.798v2.385H7.317V26.25c0-.438.361-.799.799-.799Zm-.799 5.568v-1.586h1.586v2.384h-.798a.8.8 0 0 1-.788-.798Zm3.183.798v-6.366h1.586v6.366H10.5Zm3.981 0h-.798v-2.384h1.586v1.586c0 .437-.35.798-.788.798Zm.788-5.567v1.586h-1.586V25.45h.798c.438 0 .788.361.788.799Z"/><path d="M52.664 35.787H3.336V22.27c0-.438.36-.799.798-.799h25.452v-1.586H4.134A2.39 2.39 0 0 0 1.75 22.27v27.048a2.39 2.39 0 0 0 2.384 2.385h47.732a2.39 2.39 0 0 0 2.384-2.385V31.02h-1.586v4.768Zm-.798 14.318H4.134a.803.803 0 0 1-.798-.799V37.384h49.317v11.933a.777.777 0 0 1-.787.788Z"/><path d="M5.731 39.769h1.586v3.182H5.731V39.77Zm3.183 0H10.5v3.182H8.914V39.77Zm3.172 0h1.586v3.182h-1.586V39.77Zm3.183 0h1.586v3.182h-1.586V39.77Zm7.164 0h1.586v3.182h-1.586V39.77Zm3.183 0H27.2v3.182h-1.585V39.77Zm3.183 0h1.585v3.182H28.8V39.77Zm3.182 0h1.586v3.182h-1.586V39.77Zm7.153 0h1.586v3.182h-1.586V39.77Zm3.183 0h1.586v3.182h-1.586V39.77Zm3.183 0h1.586v3.182H45.5V39.77Zm3.183 0h1.586v3.182h-1.586V39.77ZM5.731 45.336h14.317v1.586H5.731v-1.586Zm30.221 0h6.365v1.586h-6.365v-1.586Zm7.962 0h6.366v1.586h-6.366v-1.586Zm-1.126-14.919c4.221 0 7.678-3.38 7.678-7.602a7.52 7.52 0 0 0-2.254-5.38c-2.985-2.965-7.853-2.965-10.85 0a7.546 7.546 0 0 0 0 10.762 7.721 7.721 0 0 0 5.425 2.22Zm-4.299-11.845c2.373-2.352 6.235-2.352 8.608 0a5.962 5.962 0 0 1 0 8.498c-2.373 2.352-6.235 2.352-8.608 0a5.962 5.962 0 0 1 0-8.498Z"/><path d="M29.466 8.422c-.602-.47-1.477-.602-2.516-.394l.317 1.564c.547-.11 1.006-.077 1.225.098.044.033.197.154.23.536a2.541 2.541 0 0 0 1.772 2.636l.601.186c-.58.919-.437 2.1.328 2.855l.952.94c.23.23.284.58.131.875-3.839 7.602 1.772 16.494 10.27 16.494a11.46 11.46 0 0 0 8.477-3.686c3.981-4.287 3.949-11.232-.066-15.476-3.467-3.675-9.045-4.66-13.573-2.396a.75.75 0 0 1-.864-.142l-.962-.962a2.337 2.337 0 0 0-3.282 0l-.197.197-1.334-.416a.931.931 0 0 1-.656-1.006.313.313 0 0 0 0-.142c-.055-.963-.503-1.488-.853-1.761Zm5.195 4.265.962.963c.711.7 1.794.875 2.691.426 3.905-1.947 8.717-1.104 11.714 2.057 3.456 3.653 3.478 9.625.055 13.3a9.859 9.859 0 0 1-7.088 3.172c-7.404.164-12.425-7.547-9.067-14.175a2.34 2.34 0 0 0-.437-2.724l-.952-.94a.7.7 0 0 1 0-1.007l1.083-1.072a.74.74 0 0 1 1.039 0ZM23.231 7.93h2.34v1.586h-2.34V7.93Zm1.579 4.322 1.221-1.985 1.351.83-1.22 1.986-1.352-.831Zm.016-7.057 1.35-.831 1.222 1.985-1.352.83-1.22-1.984Z"/></symbol><symbol viewBox="0 0 56 56" id="for-you-3" xmlns="http://www.w3.org/2000/svg"><g clip-path="url(#ha)"><path d="M47.25 33.568v-2.943h.875A2.628 2.628 0 0 0 50.75 28V17.5a2.628 2.628 0 0 0-2.625-2.625h-.875v-5.25A2.628 2.628 0 0 0 44.625 7H42V2.625A2.628 2.628 0 0 0 39.375 0h-35A4.38 4.38 0 0 0 0 4.375v33.25A4.38 4.38 0 0 0 4.375 42h29.193a11.37 11.37 0 1 0 13.682-8.432Zm0-16.943h.875a.875.875 0 1 1 0 1.75h-.875v-1.75Zm.875 3.5c.298 0 .594-.05.875-.15V28a.876.876 0 0 1-.875.875h-7a4.375 4.375 0 1 1 0-8.75h7Zm-3.5-11.375a.876.876 0 0 1 .875.875v2.625H28.437l2.625-3.5h13.563Zm-40.25-7h35a.876.876 0 0 1 .875.875V7h-9.625a.873.873 0 0 0-.7.35l-5.25 7a.875.875 0 0 0-.042.989l4.006 6.41-4.274 4.274.984-3.936a.875.875 0 0 0-.19-.788l-5.697-6.511 4.03-6.45A.875.875 0 0 0 22.75 7H4.375a2.625 2.625 0 0 1 0-5.25ZM1.75 7.873c.756.57 1.678.878 2.625.877h16.796l-2.187 3.5H4.375A2.628 2.628 0 0 1 1.75 9.625V7.873Zm0 5.23A4.332 4.332 0 0 0 4.375 14H17.89l-.257.411a.876.876 0 0 0 .084 1.04l5.823 6.655-1.639 6.557a.875.875 0 0 0 1.468.83l7-7a.875.875 0 0 0 .123-1.081l-4.057-6.492.69-.92H45.5v4.375h-4.375a6.125 6.125 0 1 0 0 12.25H45.5v2.67c-.29-.023-.58-.045-.875-.045-2.136 0-4.229.608-6.034 1.75H4.375a2.628 2.628 0 0 1-2.625-2.625V13.103ZM4.375 40.25a2.628 2.628 0 0 1-2.625-2.625v-1.772a4.332 4.332 0 0 0 2.625.897h32.06a11.404 11.404 0 0 0-2.308 3.5H4.375Zm40.25 14a9.625 9.625 0 1 1 9.625-9.625 9.636 9.636 0 0 1-9.625 9.625Z"/><path d="M42.359 50.27v-2.334H41v-1.183h1.359v-1.31H41v-1.184h1.359V39h3.82c.821 0 1.514.139 2.078.416.576.277 1.008.66 1.295 1.15.299.49.448 1.066.448 1.727 0 .66-.15 1.226-.448 1.695-.298.468-.724.83-1.279 1.087-.554.245-1.225.367-2.014.367h-1.838v1.311h2.574v1.183H44.42v2.334h-2.062Zm2.03-6.01h1.583c.692 0 1.22-.155 1.582-.464.373-.31.56-.778.56-1.407 0-.64-.187-1.108-.56-1.407-.362-.309-.89-.463-1.582-.463h-1.583v3.74ZM38.5 24.5a2.625 2.625 0 1 0 5.25 0 2.625 2.625 0 0 0-5.25 0Zm3.5 0a.874.874 0 1 1-1.749 0 .874.874 0 0 1 1.749 0Z"/></g><defs><clipPath id="ha"><path d="M0 0h56v56H0z"/></clipPath></defs></symbol><symbol viewBox="0 0 56 56" id="for-you-4" xmlns="http://www.w3.org/2000/svg"><g clip-path="url(#ia)"><path d="M43.75 19.25a2.62 2.62 0 0 0 2.464-1.75h8.911v-14h-8.911a2.621 2.621 0 0 0-2.464-1.75h-3.5a2.621 2.621 0 0 0-2.52 1.935l-2.231-1.487A7.847 7.847 0 0 0 31.13.875H17.5c-.965 0-1.75.785-1.75 1.75 0 .64.185 1.233.486 1.75H12.25A2.628 2.628 0 0 0 9.625 7c0 .308.063.6.161.875H8.75A2.628 2.628 0 0 0 6.125 10.5a2.628 2.628 0 0 0 2.625 2.625h1.036a2.595 2.595 0 0 0-.161.875 2.62 2.62 0 0 0 1.943 2.523 2.606 2.606 0 0 0-.193.977A2.628 2.628 0 0 0 14 20.125h17.13c1.56 0 3.071-.458 4.369-1.323l2.23-1.487a2.623 2.623 0 0 0 2.521 1.935h.875v1.838a4.383 4.383 0 0 0-3.5 4.287 4.383 4.383 0 0 0 3.5 4.287v1.926a4.383 4.383 0 0 0-3.5 4.287c0 1.935 1.27 3.56 3.014 4.136a2.619 2.619 0 0 1-2.139 1.114h-2.625A2.628 2.628 0 0 0 33.25 38.5h-1.036a2.621 2.621 0 0 0-2.464-1.75h-3.728c-2.03-4.63-6.651-7.875-12.022-7.875C6.763 28.875.875 34.763.875 42S6.763 55.125 14 55.125c5.37 0 9.992-3.245 12.022-7.875h3.728a2.62 2.62 0 0 0 2.464-1.75h1.036a2.628 2.628 0 0 0 2.625-2.625H38.5a4.382 4.382 0 0 0 4.032-2.68c2.16-.265 3.843-2.09 3.843-4.32a4.383 4.383 0 0 0-3.5-4.287v-1.926a4.383 4.383 0 0 0 3.5-4.287 4.383 4.383 0 0 0-3.5-4.287V19.25h.875ZM14 53.375C7.728 53.375 2.625 48.272 2.625 42S7.728 30.625 14 30.625 25.375 35.728 25.375 42 20.272 53.375 14 53.375Zm16.625-8.75a.875.875 0 0 1-.875.875h-3.113c.31-1.117.488-2.286.488-3.5s-.178-2.383-.488-3.5h3.113c.483 0 .875.392.875.875v5.25Zm3.5-1.75a.875.875 0 0 1-.875.875h-.875v-3.5h.875c.483 0 .875.392.875.875v1.75Zm10.5-7a2.62 2.62 0 0 1-1.75 2.464V36.75h-1.75v1.589a2.621 2.621 0 0 1-1.75-2.464 2.62 2.62 0 0 1 1.75-2.464V35h1.75v-1.589a2.621 2.621 0 0 1 1.75 2.464Zm0-10.5a2.62 2.62 0 0 1-1.75 2.464V26.25h-1.75v1.589a2.621 2.621 0 0 1-1.75-2.464 2.62 2.62 0 0 1 1.75-2.464V24.5h1.75v-1.589a2.621 2.621 0 0 1 1.75 2.464Zm8.75-9.625h-7V5.25h7v10.5Zm-45.5-5.25c0-.482.392-.875.875-.875h14v1.75h-14a.876.876 0 0 1-.875-.875Zm4.375 2.625h10.5v1.75h-10.5a.876.876 0 0 1 0-1.75Zm22.278 4.221a6.105 6.105 0 0 1-3.397 1.029H14a.876.876 0 0 1 0-1.75h8.969c.188.555.486 1.068.912 1.494l1.238-1.238a2.098 2.098 0 0 1-.619-1.493V9.112c0-.564.22-1.094.619-1.493L23.88 6.38c-.426.427-.724.94-.912 1.495H12.25a.876.876 0 0 1 0-1.75h13.638l.83.831A6.088 6.088 0 0 0 31.05 8.75h1.326V7H31.05a4.35 4.35 0 0 1-3.094-1.281l-1.343-1.344H19.25c-.965 0-1.75-.785-1.75-1.75h13.63c1.214 0 2.389.356 3.398 1.029l3.097 2.064v9.564l-3.097 2.064Zm4.847-.721V4.375c0-.482.392-.875.875-.875h3.5c.483 0 .875.393.875.875v12.25a.876.876 0 0 1-.875.875h-3.5a.876.876 0 0 1-.875-.875Z"/><path d="M11.359 48.27v-2.334H10v-1.183h1.359v-1.31H10v-1.184h1.359V37h3.82c.821 0 1.514.139 2.079.416.575.277 1.007.66 1.294 1.15.299.49.448 1.066.448 1.727 0 .66-.15 1.226-.448 1.695-.298.468-.724.83-1.279 1.087-.554.245-1.225.367-2.014.367h-1.838v1.311h2.574v1.183H13.42v2.334h-2.062Zm2.03-6.01h1.583c.692 0 1.22-.155 1.582-.464.373-.31.56-.778.56-1.407 0-.64-.187-1.108-.56-1.407-.362-.309-.89-.463-1.582-.463h-1.583v3.74Z"/></g><defs><clipPath id="ia"><path d="M0 0h56v56H0z"/></clipPath></defs></symbol><symbol viewBox="0 0 56 56" id="for-you-5" xmlns="http://www.w3.org/2000/svg"><g clip-path="url(#ja)"><path d="M16.625 56a.875.875 0 0 1-.619-.256l-10.5-10.5a.876.876 0 0 1 .619-1.494h10.5c.483 0 .875.392.875.875v10.5a.875.875 0 0 1-.875.875ZM8.237 45.5l7.513 7.513V45.5H8.237Z"/><path d="M49.875 56h-33.25a.875.875 0 0 1-.619-.256l-10.5-10.5a.875.875 0 0 1-.256-.619v-14H7v13.638l9.987 9.987H49V42h1.75v13.125a.875.875 0 0 1-.875.875Zm.875-33.25H49v-21H7v4.375H5.25V.875c0-.483.392-.875.875-.875h43.75c.483 0 .875.392.875.875V22.75Z"/><path d="M19.25 41.125a.876.876 0 0 1-.83-1.151l1.75-5.25 1.662.553-1.197 3.587 3.588-1.197.553 1.663-5.25 1.75a.89.89 0 0 1-.276.045ZM48.125 38.5H36.75a.875.875 0 0 1-.619-.256l-2.368-2.369h-4.888a2.625 2.625 0 0 1 0-5.25h5.763l1.493-1.494a.875.875 0 0 1 .619-.256H42v1.75h-4.888l-1.493 1.494a.875.875 0 0 1-.619.256h-6.125a.875.875 0 0 0 0 1.75h5.25c.232 0 .455.092.619.256l2.368 2.369h11.013v1.75Z"/><path d="M24.5 39.375a.875.875 0 0 1-.619-.256l-3.5-3.5a.875.875 0 0 1 0-1.238l19.25-19.25a.875.875 0 0 1 1.238 0l3.5 3.5a.875.875 0 0 1 0 1.238l-12.25 12.25-1.238-1.238L42.513 19.25l-2.263-2.263L22.237 35l2.263 2.263 2.881-2.882 1.238 1.238-3.5 3.5a.875.875 0 0 1-.619.256Z"/><path d="m36.132 19.869 1.237-1.238 3.5 3.5-1.237 1.238-3.5-3.5ZM55.125 40.25h-7a.875.875 0 0 1-.875-.875v-14c0-.483.392-.875.875-.875h7c.483 0 .875.392.875.875v14a.875.875 0 0 1-.875.875ZM49 38.5h5.25V26.25H49V38.5Z"/><path d="M23.625 33.25h-1.75v-6.125c0-.232.092-.455.256-.619l9.625-9.625a.875.875 0 0 1 .619-.256H38.5v1.75h-5.763l-9.112 9.112v5.763Zm17.756-11.63 1.238-1.239 6.125 6.125-1.238 1.238-6.125-6.125Zm-30.006 8.13C5.093 29.75 0 24.657 0 18.375S5.093 7 11.375 7 22.75 12.093 22.75 18.375c-.007 6.28-5.096 11.368-11.375 11.375Zm0-21a9.625 9.625 0 0 0-9.625 9.625A9.625 9.625 0 0 0 11.375 28 9.625 9.625 0 0 0 21 18.375a9.636 9.636 0 0 0-9.625-9.625Z"/><path d="M11.375 26.25a7.875 7.875 0 1 1 0-15.75 7.875 7.875 0 0 1 7.875 7.875 7.884 7.884 0 0 1-7.875 7.875Zm0-14a6.125 6.125 0 1 0 6.125 6.125 6.132 6.132 0 0 0-6.125-6.125ZM35 3.5h12.25v1.75H35V3.5ZM36.75 7h10.5v1.75h-10.5V7Zm7 43.75H28a.875.875 0 0 1-.875-.875v-3.5c0-.483.392-.875.875-.875h9.625v-1.75h-17.5V42H38.5c.483 0 .875.392.875.875v3.5a.875.875 0 0 1-.875.875h-9.625V49H43.75v1.75ZM45.5 49h1.75v1.75H45.5V49Z"/><path d="M8.906 22.513v-1.556H8v-.788h.906v-.874H8v-.789h.906V15h2.547c.547 0 1.009.092 1.385.277.384.185.672.44.864.767.198.327.298.71.298 1.151 0 .44-.1.817-.298 1.13a1.947 1.947 0 0 1-.853.725c-.37.163-.817.245-1.343.245h-1.225v.874h1.715v.788h-1.715v1.556H8.906Zm1.353-4.007h1.055c.462 0 .814-.103 1.055-.309.25-.206.373-.518.373-.938 0-.426-.124-.739-.373-.938-.241-.206-.593-.309-1.055-.309H10.26v2.494Z"/></g><defs><clipPath id="ja"><path d="M0 0h56v56H0z"/></clipPath></defs></symbol><symbol viewBox="0 0 56 56" id="for-you-6" xmlns="http://www.w3.org/2000/svg"><g clip-path="url(#ka)"><path d="M5.6 10.267a5.6 5.6 0 1 0 0 11.199 5.6 5.6 0 0 0 0-11.2Zm0 9.333a3.733 3.733 0 1 1 0-7.467 3.733 3.733 0 0 1 0 7.467Zm3.05 19.19L3.982 50.924a3.74 3.74 0 0 0 3.574 5.073 3.733 3.733 0 0 0 3.395-2.39l3.871-10.068 8.275-1.106 1.23 6.769a3.733 3.733 0 0 0 2.393 2.838l10.274 3.733a3.733 3.733 0 1 0 2.552-7.017l-8.26-2.998-1.482-8.167a3.815 3.815 0 0 0-.622-1.477l-3.51-4.977 9.24 4.02a3.688 3.688 0 0 0 5.114-2.563 15.371 15.371 0 0 0 12.385-22.4l1.45-1.451A2.8 2.8 0 0 0 54.3 5.37c.33-.138.63-.339.883-.591A2.8 2.8 0 0 0 51.22.82a2.767 2.767 0 0 0-.592.882 2.8 2.8 0 0 0-3.371.438l-1.452 1.45a15.393 15.393 0 0 0-21.599 18.77l-7.78-3.383a3.734 3.734 0 0 0-4.544 5.577l7.643 10.827-7.885 1.054a3.708 3.708 0 0 0-2.992 2.355ZM52.54 2.14a.933.933 0 1 1 1.32 1.32.933.933 0 0 1-1.32-1.32Zm-3.963 1.32a.933.933 0 0 1 1.322 0l2.641 2.641a.933.933 0 0 1 0 1.322l-1.125 1.125a14.787 14.787 0 0 0-3.963-3.962l1.125-1.126ZM29.164 7.697a13.533 13.533 0 1 1 10.813 23.031 3.705 3.705 0 0 0-2.084-2.417l-11.185-4.863a13.595 13.595 0 0 1 2.456-15.75Zm-9.39 29.535a1.866 1.866 0 0 0 1.278-2.928l-7.645-10.827a1.867 1.867 0 0 1 2.273-2.788l21.467 9.334a1.866 1.866 0 0 1-1.494 3.421l-12.293-5.35-3.387-1.475a.934.934 0 0 0-.746 1.712l3.148 1.372 5.278 7.481c.157.224.264.478.314.747l1.482 8.162a1.875 1.875 0 0 0 1.199 1.42l8.257 2.998a1.877 1.877 0 0 1 1.12 2.399 1.92 1.92 0 0 1-2.398 1.113L27.361 50.29a1.86 1.86 0 0 1-1.191-1.418l-1.231-6.77a1.867 1.867 0 0 0-2.084-1.514l-8.282 1.104a1.867 1.867 0 0 0-1.493 1.18L9.21 52.94a1.903 1.903 0 0 1-2.418 1.07 1.871 1.871 0 0 1-1.067-2.415l4.667-12.133a1.867 1.867 0 0 1 1.493-1.173l7.89-1.056Z"/><path d="M36.326 23v-2.278H35v-1.155h1.326v-1.279H35v-1.155h1.326V12h3.73c.8 0 1.476.135 2.028.406.561.27.983.645 1.264 1.123.29.479.437 1.04.437 1.685s-.146 1.196-.437 1.654c-.292.458-.708.812-1.249 1.061-.54.24-1.196.359-1.966.359H38.34v1.28h2.512v1.154H38.34V23h-2.013Zm1.982-5.867h1.544c.677 0 1.192-.15 1.545-.452.364-.302.546-.76.546-1.373 0-.624-.182-1.082-.546-1.373-.353-.302-.868-.453-1.544-.453h-1.545v3.651Z"/></g><defs><clipPath id="ka"><path d="M0 0h56v56H0z"/></clipPath></defs></symbol><symbol viewBox="0 0 24 24" id="instagram" xmlns="http://www.w3.org/2000/svg"><path d="M11.999 7.377a4.624 4.624 0 1 0 0 9.248 4.624 4.624 0 0 0 0-9.248Zm0 7.627a3.004 3.004 0 1 1 0-6.008 3.004 3.004 0 0 1 0 6.008Zm4.807-6.719a1.078 1.078 0 1 0 0-2.156 1.078 1.078 0 0 0 0 2.156Z"/><path d="M20.533 6.11A4.605 4.605 0 0 0 17.9 3.48a6.607 6.607 0 0 0-2.186-.42c-.963-.042-1.268-.054-3.71-.054s-2.755 0-3.71.054a6.554 6.554 0 0 0-2.184.42 4.6 4.6 0 0 0-2.633 2.63 6.585 6.585 0 0 0-.419 2.186c-.043.962-.056 1.267-.056 3.71 0 2.442 0 2.753.056 3.71.015.748.156 1.486.419 2.187a4.61 4.61 0 0 0 2.634 2.632 6.583 6.583 0 0 0 2.185.45c.963.042 1.268.055 3.71.055s2.755 0 3.71-.055a6.616 6.616 0 0 0 2.186-.42 4.613 4.613 0 0 0 2.633-2.632c.263-.7.404-1.438.419-2.186.043-.962.056-1.267.056-3.71s0-2.753-.056-3.71a6.583 6.583 0 0 0-.421-2.217Zm-1.218 9.533a5.046 5.046 0 0 1-.311 1.688 2.987 2.987 0 0 1-1.712 1.71c-.535.2-1.1.305-1.67.312-.95.044-1.218.055-3.654.055-2.438 0-2.687 0-3.655-.055a4.961 4.961 0 0 1-1.67-.311 2.984 2.984 0 0 1-1.718-1.711 5.08 5.08 0 0 1-.311-1.67c-.043-.95-.053-1.217-.053-3.653 0-2.437 0-2.686.053-3.655a5.038 5.038 0 0 1 .311-1.687c.305-.79.93-1.41 1.719-1.712a5.01 5.01 0 0 1 1.669-.311c.95-.043 1.218-.055 3.655-.055s2.687 0 3.654.055a4.96 4.96 0 0 1 1.67.31 2.99 2.99 0 0 1 1.712 1.713 5.06 5.06 0 0 1 .311 1.669c.043.95.054 1.218.054 3.655 0 2.436 0 2.698-.043 3.654h-.011v-.001Z"/></symbol><symbol viewBox="0 0 16 16" id="phone" xmlns="http://www.w3.org/2000/svg"><g clip-path="url(#ma)"><path d="m15.175 10.165-3.614-.517a.967.967 0 0 0-.814.272l-1.533 1.533a.322.322 0 0 1-.39.054 13.124 13.124 0 0 1-4.331-4.331.322.322 0 0 1 .054-.39L6.08 5.251a.965.965 0 0 0 .271-.814L5.835.824A.965.965 0 0 0 4.885 0H.976a1.002 1.002 0 0 0-.721.305A.903.903 0 0 0 0 .973a15.68 15.68 0 0 0 4.593 10.434 15.68 15.68 0 0 0 10.472 4.594.905.905 0 0 0 .63-.256 1.002 1.002 0 0 0 .304-.722v-3.908a.965.965 0 0 0-.824-.95Z"/></g><defs><clipPath id="ma"><path d="M0 0h16v16H0z"/></clipPath></defs></symbol><symbol xml:space="preserve" viewBox="0 0 400 400" id="telegram" xmlns="http://www.w3.org/2000/svg"><path d="M200.04 100a100 100 0 1 0 100 100 100 100 0 0 0-100-100Zm31.8 151.52a7.05 7.05 0 0 1-10.02 3.52l-27.15-21.1-17.42 16.08a3 3 0 0 1-2.85.39l3.34-29.89.1.09.07-.59s48.85-44.48 50.84-46.37c2.02-1.89 1.35-2.3 1.35-2.3.12-2.3-3.61 0-3.61 0l-64.73 41.64-26.95-9.18s-4.14-1.48-4.53-4.75c-.41-3.24 4.66-5 4.66-5l107.17-42.58s8.81-3.92 8.81 2.58Z"/></symbol><symbol viewBox="0 0 16 16" id="telegram1" xmlns="http://www.w3.org/2000/svg"><path d="m14.629 3.698-2.012 9.618c-.152.679-.548.848-1.11.528l-3.066-2.29-1.48 1.442c-.163.166-.3.305-.616.305l.22-3.165 5.683-5.204c.247-.223-.054-.347-.384-.123L4.839 9.29l-3.024-.959c-.658-.208-.67-.667.137-.986L13.78 2.727c.548-.208 1.027.124.849.971Z"/></symbol><symbol viewBox="0 0 24 24" id="viber" xmlns="http://www.w3.org/2000/svg"><path d="M14.222.89H9.778C5.489.89 2 4.377 2 8.666V12a7.78 7.78 0 0 0 4.445 7.03v3.714c0 .323.402.49.63.262l3.228-3.225h3.92C18.51 19.78 22 16.29 22 12V8.666C22 4.378 18.511.889 14.222.889Zm2.911 14.577-1.125 1.1c-1.183 1.158-4.272-.164-6.994-2.944-2.722-2.784-3.917-5.9-2.792-7.059l1.125-1.1c.414-.405 1.117-.397 1.58.017L10.55 7.14c.578.592.333 1.584-.43 1.811-.528.17-.886.75-.717 1.278.28 1.233 1.844 2.775 3.011 3.08.525.123 1.114-.163 1.297-.688.242-.758 1.24-.983 1.82-.389l1.62 1.655c.405.414.4 1.117-.018 1.581Zm-4.122-9.3c-.11 0-.222.005-.33.02a.37.37 0 0 1-.08-.737 3.707 3.707 0 0 1 4.092 4.092.375.375 0 0 1-.41.328.374.374 0 0 1-.327-.409c.01-.108.02-.22.02-.33a2.968 2.968 0 0 0-2.965-2.964Zm2.222 2.964c0 .203-.169.37-.372.37-.2 0-.37-.167-.37-.37a1.48 1.48 0 0 0-1.48-1.48.372.372 0 1 1 0-.742c1.225 0 2.222.997 2.222 2.222Zm2.825 1.197a.377.377 0 0 1-.458.272.376.376 0 0 1-.264-.444 4.45 4.45 0 0 0-4.67-5.455.37.37 0 0 1-.056-.739 5.194 5.194 0 0 1 5.447 6.367Z"/></symbol><symbol viewBox="0 0 24 24" id="vk" xmlns="http://www.w3.org/2000/svg"><path d="M21.579 6.855c.14-.465 0-.806-.662-.806h-2.193c-.558 0-.813.295-.953.619 0 0-1.115 2.719-2.695 4.482-.51.513-.743.675-1.021.675-.139 0-.341-.162-.341-.627V6.855c0-.558-.161-.806-.626-.806H9.642c-.348 0-.558.258-.558.504 0 .528.79.65.871 2.138v3.228c0 .707-.127.836-.407.836-.743 0-2.551-2.73-3.624-5.853-.209-.607-.42-.852-.98-.852H2.752c-.627 0-.752.295-.752.619 0 .582.743 3.462 3.461 7.27 1.812 2.602 4.363 4.012 6.687 4.012 1.393 0 1.565-.313 1.565-.853v-1.966c0-.626.133-.752.574-.752.324 0 .882.164 2.183 1.417 1.486 1.486 1.732 2.153 2.567 2.153h2.192c.626 0 .939-.313.759-.931-.197-.615-.907-1.51-1.849-2.57-.512-.603-1.277-1.253-1.51-1.578-.325-.42-.231-.604 0-.976.001 0 2.672-3.761 2.95-5.04Z"/></symbol><symbol xml:space="preserve" viewBox="0 0 400 400" id="whatsapp" xmlns="http://www.w3.org/2000/svg"><path d="M200 99.95c-54.81 0-100.05 45.24-100.05 100.05 0 20.88 6.09 40.02 17.4 56.55l-11.31 33.93c-.87 1.74 0 3.48.87 4.35 1.74.87 3.48 1.74 5.22.87l34.8-11.31c15.66 10.44 34.8 15.66 53.07 15.66 54.81 0 100.05-45.24 100.05-100.05S254.81 99.95 200 99.95zm60.03 140.94c-2.61 7.83-13.05 14.79-21.75 16.53-1.74 0-3.48.87-6.09.87-6.96 0-15.66-2.61-29.58-7.83-17.4-6.96-34.8-22.62-48.72-42.63l-.87-.87c-5.22-6.96-13.05-19.14-13.05-32.19 0-14.79 7.83-22.62 10.44-26.1 3.48-3.48 7.83-5.22 13.05-5.22h3.48c4.35 0 6.96 1.74 9.57 6.96l1.74 3.48c2.61 6.09 6.09 15.66 6.96 17.4 1.74 3.48 1.74 6.09 0 8.7-.87 1.74-1.74 3.48-3.48 5.22-.87.87-1.74 1.74-1.74 2.61l-2.61 2.61v.87c2.61 4.35 7.83 12.18 14.79 18.27 9.57 8.7 16.53 11.31 20.01 13.05h.87c.87 0 1.74.87 1.74 0 1.74-1.74 3.48-5.22 6.09-7.83l.87-.87c2.61-3.48 6.09-4.35 7.83-4.35.87 0 2.61 0 3.48.87.87 0 2.61.87 19.14 9.57l1.74.87c2.61.87 4.35 1.74 5.22 4.35 3.48 1.74 2.61 9.57.87 15.66z"/></symbol><symbol viewBox="0 0 16 16" id="whatsapp2" xmlns="http://www.w3.org/2000/svg"><path fill-rule="evenodd" clip-rule="evenodd" d="M12.269 3.755A5.947 5.947 0 0 0 8.035 2 5.994 5.994 0 0 0 2.05 7.985a5.98 5.98 0 0 0 .799 2.992L2 14.077l3.173-.832c.877.477 1.86.728 2.86.728h.002a5.993 5.993 0 0 0 5.533-8.276 5.953 5.953 0 0 0-1.3-1.942Zm-4.234 9.208h-.002c-.89 0-1.765-.24-2.532-.694l-.181-.108-1.883.494.502-1.835-.118-.188a4.965 4.965 0 0 1-.76-2.647 4.982 4.982 0 0 1 6.88-4.597c.604.25 1.152.618 1.613 1.081a4.946 4.946 0 0 1 1.455 3.52 4.982 4.982 0 0 1-4.974 4.974Zm2.729-3.726c-.15-.075-.885-.436-1.022-.486-.137-.05-.236-.075-.336.074-.1.15-.387.486-.474.586-.087.1-.175.112-.324.038-.15-.075-.631-.233-1.203-.742a4.505 4.505 0 0 1-.832-1.036c-.087-.15-.009-.231.066-.306.068-.066.15-.174.224-.262.075-.087.1-.149.15-.249.05-.1.025-.187-.013-.262-.037-.075-.337-.811-.461-1.11-.121-.29-.244-.252-.336-.256a6.418 6.418 0 0 0-.286-.005.55.55 0 0 0-.4.186c-.137.15-.523.512-.523 1.248s.536 1.447.61 1.547c.075.1 1.055 1.61 2.555 2.258.358.154.636.246.853.315.358.114.684.098.942.06.287-.043.885-.362 1.01-.711.124-.35.124-.649.087-.711-.038-.063-.138-.101-.287-.176Z"/></symbol></svg>