<svg width="24" height="24" viewBox="0 0 24 24" fill="none" xmlns="http://www.w3.org/2000/svg">
<g clip-path="url(#clip0_1_332)">
<path d="M12 24C18.6274 24 24 18.6274 24 12C24 5.37258 18.6274 0 12 0C5.37258 0 0 5.37258 0 12C0 18.6274 5.37258 24 12 24Z" fill="url(#paint0_linear_1_332)"/>
<path fill-rule="evenodd" clip-rule="evenodd" d="M5.43178 11.8735C8.93002 10.3493 11.2628 9.3445 12.4299 8.85906C15.7624 7.47297 16.4549 7.23217 16.9062 7.2242C17.0055 7.22247 17.2275 7.24708 17.3712 7.36375C17.5845 7.53681 17.5857 7.91247 17.562 8.1611C17.3814 10.0586 16.6 14.6633 16.2025 16.7885C16.0343 17.6877 15.703 17.9893 15.3824 18.0188C14.6856 18.0829 14.1564 17.5582 13.4814 17.1158C12.4253 16.4235 11.8286 15.9925 10.8034 15.3169C9.61866 14.5362 10.3867 14.1071 11.0619 13.4058C11.2386 13.2223 14.309 10.4295 14.3684 10.1762C14.3759 10.1445 14.3828 10.0263 14.3126 9.964C14.2424 9.90166 14.1389 9.92294 14.0641 9.93991C13.9582 9.96395 12.271 11.0792 9.00249 13.2855C8.52356 13.6143 8.08978 13.7746 7.70114 13.7662C7.27266 13.7569 6.4485 13.5239 5.8358 13.3248C5.0843 13.0805 4.48702 12.9513 4.53905 12.5365C4.56614 12.3203 4.8637 12.0993 5.43178 11.8735V11.8735Z" fill="white"/>
</g>
<defs>
<linearGradient id="paint0_linear_1_332" x1="12" y1="0" x2="12" y2="23.8125" gradientUnits="userSpaceOnUse">
<stop stop-color="#2AABEE"/>
<stop offset="1" stop-color="#229ED9"/>
</linearGradient>
<clipPath id="clip0_1_332">
<rect width="24" height="24" fill="white"/>
</clipPath>
</defs>
</svg>
