<svg width="24" height="24" viewBox="0 0 24 24" fill="none" xmlns="http://www.w3.org/2000/svg">
<path d="M14.2223 0.88916H9.77794C5.4891 0.88916 2.00024 4.37801 2.00024 8.66686V12.0002C2.00024 15.014 3.73634 17.7445 6.44464 19.0306V22.7445C6.44464 23.0667 6.84741 23.2334 7.07519 23.0056L10.3029 19.7806H14.2223C18.5112 19.7806 22 16.2918 22 12.0002V8.66686C22 4.37801 18.5112 0.88916 14.2223 0.88916ZM17.1334 15.4671L16.0084 16.5671C14.8251 17.7254 11.7363 16.4032 9.01406 13.6226C6.29186 10.8393 5.09743 7.7227 6.22242 6.56438L7.34741 5.46439C7.76129 5.05884 8.46406 5.06717 8.92795 5.48106L10.5502 7.13937C11.1279 7.73103 10.8835 8.72269 10.1196 8.95046C9.59183 9.11991 9.2335 9.70046 9.40294 10.2282C9.6835 11.4615 11.2474 13.0032 12.414 13.3088C12.939 13.431 13.5279 13.1449 13.7112 12.6199C13.9529 11.8615 14.9501 11.6365 15.5307 12.231L17.1501 13.8865C17.5556 14.3001 17.5501 15.0032 17.1334 15.4671ZM13.0112 6.16688C12.9001 6.16688 12.789 6.17244 12.6807 6.18633C12.4779 6.20855 12.2946 6.06133 12.2724 5.85855C12.2501 5.65578 12.3974 5.47245 12.6001 5.45022C12.7362 5.43356 12.8751 5.428 13.0112 5.428C15.0529 5.428 16.714 7.08909 16.714 9.13074C16.714 9.26685 16.7084 9.40574 16.6918 9.54185C16.6695 9.74184 16.4834 9.89184 16.2834 9.86962C16.0834 9.8474 15.9334 9.66129 15.9557 9.46129C15.9668 9.35296 15.9751 9.24185 15.9751 9.13074C15.9751 7.49742 14.6446 6.16688 13.0112 6.16688V6.16688ZM15.2334 9.13074C15.2334 9.33351 15.064 9.50018 14.8612 9.50018C14.6612 9.50018 14.4918 9.33351 14.4918 9.13074C14.4918 8.31408 13.8279 7.6502 13.0112 7.6502C12.8057 7.6502 12.639 7.48353 12.639 7.27798C12.639 7.07521 12.8057 6.90854 13.0112 6.90854C14.2362 6.90854 15.2334 7.90575 15.2334 9.13074ZM18.0584 10.3279C18.0112 10.5279 17.7973 10.6529 17.6001 10.6002C17.4084 10.5474 17.2917 10.3474 17.3362 10.1557C17.4167 9.8224 17.4556 9.47796 17.4556 9.13074C17.4556 6.68077 15.4612 4.68634 13.0112 4.68634C12.8973 4.68634 12.7807 4.68912 12.6668 4.70023C12.464 4.71412 12.2862 4.56134 12.2696 4.35857C12.2557 4.15301 12.4085 3.97524 12.6112 3.96135C12.7446 3.95024 12.8779 3.94468 13.0112 3.94468C15.8695 3.94468 18.1973 6.27244 18.1973 9.13074C18.1973 9.53351 18.1501 9.93629 18.0584 10.3279Z" fill="#665CAC"/>
</svg>
