<?xml version="1.0" encoding="utf-8"?><svg xmlns="http://www.w3.org/2000/svg" xmlns:xlink="http://www.w3.org/1999/xlink"><symbol viewBox="0 0 22 24" id="basket" xmlns="http://www.w3.org/2000/svg"><g clip-path="url(#aa)"><path d="M10.363 18.443a2.046 2.046 0 0 0-2.045 2.042 2.046 2.046 0 0 0 4.09 0 2.046 2.046 0 0 0-2.045-2.042Zm6.134 0a2.046 2.046 0 0 0-2.045 2.042 2.046 2.046 0 0 0 4.089 0 2.046 2.046 0 0 0-2.044-2.042Zm3.978-8.199L7.413 6.891a.614.614 0 0 0-.75.73L8.67 16.4h-.786L5.482 5.895a.613.613 0 0 0-.474-.464l-4.27-.882A.614.614 0 0 0 .489 5.75l3.885.802L6.797 17.15a.613.613 0 0 0 .598.477h12.07a.615.615 0 0 0 .607-.53l.858-6.175a.613.613 0 0 0-.455-.678Zm-8.14 3.91a.613.613 0 0 1-1.227 0v-2.696a.613.613 0 0 1 1.227 0v2.696Zm2.625 0a.613.613 0 0 1-1.227 0v-1.88a.613.613 0 0 1 1.227 0v1.88Zm2.625 0a.613.613 0 0 1-1.227 0v-1.226a.613.613 0 0 1 1.227 0v1.226Z"/></g><path fill-rule="evenodd" clip-rule="evenodd" d="M16.268 4.568a2.996 2.996 0 0 0-1.693-.523c-.627 0-1.21.193-1.693.523-.28-.843-.492-1.752-.492-2.383C12.39.98 13.37 0 14.575 0s2.185.98 2.185 2.185c0 .631-.212 1.54-.492 2.383Zm-4.722 2.274.024.006v-.011l-.024.005Zm4.972 1.217c-1.333-.33-2.766-.681-4.129-1.013a2.185 2.185 0 1 1 4.129 1.013Zm4.436 1.103c-.866-.217-2.155-.538-3.618-.9a2.995 2.995 0 0 0 .243-1.425c.87.18 1.762.45 2.308.765.596.344.969.928 1.067 1.56ZM9.869 6.439c-.36-.086-.706-.167-1.03-.243a2.19 2.19 0 0 1-.376-2.667 2.188 2.188 0 0 1 3.147-.7c.098.738.338 1.599.61 2.353a3.01 3.01 0 0 0-.449.774c-.628.113-1.305.278-1.902.483Zm10.124.075a3.43 3.43 0 0 1-.217.114c-.696-.295-1.587-.526-2.397-.672a3.01 3.01 0 0 0-.449-.774c.262-.727.494-1.553.599-2.273.095-.067.189-.128.278-.18a2.188 2.188 0 0 1 2.986.8 2.188 2.188 0 0 1-.8 2.985Z"/><defs><clipPath id="aa"><path transform="translate(0 3.064)" d="M0 0h20.936v20.936H0z"/></clipPath></defs></symbol><symbol viewBox="0 0 344.96 344.96" id="check" xmlns="http://www.w3.org/2000/svg"><g data-name="Слой 2"><path class="bcls-1" d="m321.85 86.24-40-23.11-23.1-40H212.5L172.48 0l-40 23.11H86.24l-23.11 40-40 23.1v46.21L0 172.48l23.11 40v46.21l40 23.11 23.11 40h46.21l40 23.1 40-23.11h46.21l23.11-40 40-23.11V212.5l23.11-40-23.11-40V86.24ZM156.91 243.07a16.79 16.79 0 0 1-23.34 0l-50.45-50.44a16.19 16.19 0 0 1 0-22.89l13.35-13.35a16.19 16.19 0 0 1 22.89 0l25.87 25.87 80.34-80.35a16.19 16.19 0 0 1 22.89 0l13.35 13.35a16.19 16.19 0 0 1 0 22.89Z" data-name="Capa 1"/></g></symbol><symbol viewBox="0 0 24 24" id="fb" xmlns="http://www.w3.org/2000/svg"><path d="M13.397 20.997v-8.196h2.765l.411-3.209h-3.176V7.548c0-.926.258-1.56 1.587-1.56h1.684v-2.86A22.108 22.108 0 0 0 14.201 3c-2.444 0-4.122 1.492-4.122 4.231v2.355H7.332v3.21h2.753v8.201h3.312Z"/></symbol><symbol viewBox="0 0 24 24" id="instagram" xmlns="http://www.w3.org/2000/svg"><path d="M11.999 7.377a4.624 4.624 0 1 0 0 9.248 4.624 4.624 0 0 0 0-9.248Zm0 7.627a3.004 3.004 0 1 1 0-6.008 3.004 3.004 0 0 1 0 6.008Zm4.807-6.719a1.078 1.078 0 1 0 0-2.156 1.078 1.078 0 0 0 0 2.156Z"/><path d="M20.533 6.11A4.605 4.605 0 0 0 17.9 3.48a6.607 6.607 0 0 0-2.186-.42c-.963-.042-1.268-.054-3.71-.054s-2.755 0-3.71.054a6.554 6.554 0 0 0-2.184.42 4.6 4.6 0 0 0-2.633 2.63 6.585 6.585 0 0 0-.419 2.186c-.043.962-.056 1.267-.056 3.71 0 2.442 0 2.753.056 3.71.015.748.156 1.486.419 2.187a4.61 4.61 0 0 0 2.634 2.632 6.583 6.583 0 0 0 2.185.45c.963.042 1.268.055 3.71.055s2.755 0 3.71-.055a6.616 6.616 0 0 0 2.186-.42 4.613 4.613 0 0 0 2.633-2.632c.263-.7.404-1.438.419-2.186.043-.962.056-1.267.056-3.71s0-2.753-.056-3.71a6.583 6.583 0 0 0-.421-2.217Zm-1.218 9.533a5.046 5.046 0 0 1-.311 1.688 2.987 2.987 0 0 1-1.712 1.71c-.535.2-1.1.305-1.67.312-.95.044-1.218.055-3.654.055-2.438 0-2.687 0-3.655-.055a4.961 4.961 0 0 1-1.67-.311 2.984 2.984 0 0 1-1.718-1.711 5.08 5.08 0 0 1-.311-1.67c-.043-.95-.053-1.217-.053-3.653 0-2.437 0-2.686.053-3.655a5.038 5.038 0 0 1 .311-1.687c.305-.79.93-1.41 1.719-1.712a5.01 5.01 0 0 1 1.669-.311c.95-.043 1.218-.055 3.655-.055s2.687 0 3.654.055a4.96 4.96 0 0 1 1.67.31 2.99 2.99 0 0 1 1.712 1.713 5.06 5.06 0 0 1 .311 1.669c.043.95.054 1.218.054 3.655 0 2.436 0 2.698-.043 3.654h-.011v-.001Z"/></symbol><symbol viewBox="0 0 16 16" id="phone" xmlns="http://www.w3.org/2000/svg"><g clip-path="url(#ea)"><path d="m15.175 10.165-3.614-.517a.967.967 0 0 0-.814.272l-1.533 1.533a.322.322 0 0 1-.39.054 13.124 13.124 0 0 1-4.331-4.331.322.322 0 0 1 .054-.39L6.08 5.251a.965.965 0 0 0 .271-.814L5.835.824A.965.965 0 0 0 4.885 0H.976a1.002 1.002 0 0 0-.721.305A.903.903 0 0 0 0 .973a15.68 15.68 0 0 0 4.593 10.434 15.68 15.68 0 0 0 10.472 4.594.905.905 0 0 0 .63-.256 1.002 1.002 0 0 0 .304-.722v-3.908a.965.965 0 0 0-.824-.95Z"/></g><defs><clipPath id="ea"><path d="M0 0h16v16H0z"/></clipPath></defs></symbol><symbol xml:space="preserve" viewBox="0 0 400 400" id="telegram" xmlns="http://www.w3.org/2000/svg"><path d="M200.04 100a100 100 0 1 0 100 100 100 100 0 0 0-100-100Zm31.8 151.52a7.05 7.05 0 0 1-10.02 3.52l-27.15-21.1-17.42 16.08a3 3 0 0 1-2.85.39l3.34-29.89.1.09.07-.59s48.85-44.48 50.84-46.37c2.02-1.89 1.35-2.3 1.35-2.3.12-2.3-3.61 0-3.61 0l-64.73 41.64-26.95-9.18s-4.14-1.48-4.53-4.75c-.41-3.24 4.66-5 4.66-5l107.17-42.58s8.81-3.92 8.81 2.58Z"/></symbol><symbol viewBox="0 0 16 16" id="telegram1" xmlns="http://www.w3.org/2000/svg"><path d="m14.629 3.698-2.012 9.618c-.152.679-.548.848-1.11.528l-3.066-2.29-1.48 1.442c-.163.166-.3.305-.616.305l.22-3.165 5.683-5.204c.247-.223-.054-.347-.384-.123L4.839 9.29l-3.024-.959c-.658-.208-.67-.667.137-.986L13.78 2.727c.548-.208 1.027.124.849.971Z"/></symbol><symbol viewBox="0 0 24 24" id="viber" xmlns="http://www.w3.org/2000/svg"><path d="M14.222.89H9.778C5.489.89 2 4.377 2 8.666V12a7.78 7.78 0 0 0 4.445 7.03v3.714c0 .323.402.49.63.262l3.228-3.225h3.92C18.51 19.78 22 16.29 22 12V8.666C22 4.378 18.511.889 14.222.889Zm2.911 14.577-1.125 1.1c-1.183 1.158-4.272-.164-6.994-2.944-2.722-2.784-3.917-5.9-2.792-7.059l1.125-1.1c.414-.405 1.117-.397 1.58.017L10.55 7.14c.578.592.333 1.584-.43 1.811-.528.17-.886.75-.717 1.278.28 1.233 1.844 2.775 3.011 3.08.525.123 1.114-.163 1.297-.688.242-.758 1.24-.983 1.82-.389l1.62 1.655c.405.414.4 1.117-.018 1.581Zm-4.122-9.3c-.11 0-.222.005-.33.02a.37.37 0 0 1-.08-.737 3.707 3.707 0 0 1 4.092 4.092.375.375 0 0 1-.41.328.374.374 0 0 1-.327-.409c.01-.108.02-.22.02-.33a2.968 2.968 0 0 0-2.965-2.964Zm2.222 2.964c0 .203-.169.37-.372.37-.2 0-.37-.167-.37-.37a1.48 1.48 0 0 0-1.48-1.48.372.372 0 1 1 0-.742c1.225 0 2.222.997 2.222 2.222Zm2.825 1.197a.377.377 0 0 1-.458.272.376.376 0 0 1-.264-.444 4.45 4.45 0 0 0-4.67-5.455.37.37 0 0 1-.056-.739 5.194 5.194 0 0 1 5.447 6.367Z"/></symbol><symbol viewBox="0 0 24 24" id="vk" xmlns="http://www.w3.org/2000/svg"><path d="M21.579 6.855c.14-.465 0-.806-.662-.806h-2.193c-.558 0-.813.295-.953.619 0 0-1.115 2.719-2.695 4.482-.51.513-.743.675-1.021.675-.139 0-.341-.162-.341-.627V6.855c0-.558-.161-.806-.626-.806H9.642c-.348 0-.558.258-.558.504 0 .528.79.65.871 2.138v3.228c0 .707-.127.836-.407.836-.743 0-2.551-2.73-3.624-5.853-.209-.607-.42-.852-.98-.852H2.752c-.627 0-.752.295-.752.619 0 .582.743 3.462 3.461 7.27 1.812 2.602 4.363 4.012 6.687 4.012 1.393 0 1.565-.313 1.565-.853v-1.966c0-.626.133-.752.574-.752.324 0 .882.164 2.183 1.417 1.486 1.486 1.732 2.153 2.567 2.153h2.192c.626 0 .939-.313.759-.931-.197-.615-.907-1.51-1.849-2.57-.512-.603-1.277-1.253-1.51-1.578-.325-.42-.231-.604 0-.976.001 0 2.672-3.761 2.95-5.04Z"/></symbol><symbol xml:space="preserve" viewBox="0 0 400 400" id="whatsapp" xmlns="http://www.w3.org/2000/svg"><path d="M200 99.95c-54.81 0-100.05 45.24-100.05 100.05 0 20.88 6.09 40.02 17.4 56.55l-11.31 33.93c-.87 1.74 0 3.48.87 4.35 1.74.87 3.48 1.74 5.22.87l34.8-11.31c15.66 10.44 34.8 15.66 53.07 15.66 54.81 0 100.05-45.24 100.05-100.05S254.81 99.95 200 99.95zm60.03 140.94c-2.61 7.83-13.05 14.79-21.75 16.53-1.74 0-3.48.87-6.09.87-6.96 0-15.66-2.61-29.58-7.83-17.4-6.96-34.8-22.62-48.72-42.63l-.87-.87c-5.22-6.96-13.05-19.14-13.05-32.19 0-14.79 7.83-22.62 10.44-26.1 3.48-3.48 7.83-5.22 13.05-5.22h3.48c4.35 0 6.96 1.74 9.57 6.96l1.74 3.48c2.61 6.09 6.09 15.66 6.96 17.4 1.74 3.48 1.74 6.09 0 8.7-.87 1.74-1.74 3.48-3.48 5.22-.87.87-1.74 1.74-1.74 2.61l-2.61 2.61v.87c2.61 4.35 7.83 12.18 14.79 18.27 9.57 8.7 16.53 11.31 20.01 13.05h.87c.87 0 1.74.87 1.74 0 1.74-1.74 3.48-5.22 6.09-7.83l.87-.87c2.61-3.48 6.09-4.35 7.83-4.35.87 0 2.61 0 3.48.87.87 0 2.61.87 19.14 9.57l1.74.87c2.61.87 4.35 1.74 5.22 4.35 3.48 1.74 2.61 9.57.87 15.66z"/></symbol><symbol viewBox="0 0 16 16" id="whatsapp2" xmlns="http://www.w3.org/2000/svg"><path fill-rule="evenodd" clip-rule="evenodd" d="M12.269 3.755A5.947 5.947 0 0 0 8.035 2 5.994 5.994 0 0 0 2.05 7.985a5.98 5.98 0 0 0 .799 2.992L2 14.077l3.173-.832c.877.477 1.86.728 2.86.728h.002a5.993 5.993 0 0 0 5.533-8.276 5.953 5.953 0 0 0-1.3-1.942Zm-4.234 9.208h-.002c-.89 0-1.765-.24-2.532-.694l-.181-.108-1.883.494.502-1.835-.118-.188a4.965 4.965 0 0 1-.76-2.647 4.982 4.982 0 0 1 6.88-4.597c.604.25 1.152.618 1.613 1.081a4.946 4.946 0 0 1 1.455 3.52 4.982 4.982 0 0 1-4.974 4.974Zm2.729-3.726c-.15-.075-.885-.436-1.022-.486-.137-.05-.236-.075-.336.074-.1.15-.387.486-.474.586-.087.1-.175.112-.324.038-.15-.075-.631-.233-1.203-.742a4.505 4.505 0 0 1-.832-1.036c-.087-.15-.009-.231.066-.306.068-.066.15-.174.224-.262.075-.087.1-.149.15-.249.05-.1.025-.187-.013-.262-.037-.075-.337-.811-.461-1.11-.121-.29-.244-.252-.336-.256a6.418 6.418 0 0 0-.286-.005.55.55 0 0 0-.4.186c-.137.15-.523.512-.523 1.248s.536 1.447.61 1.547c.075.1 1.055 1.61 2.555 2.258.358.154.636.246.853.315.358.114.684.098.942.06.287-.043.885-.362 1.01-.711.124-.35.124-.649.087-.711-.038-.063-.138-.101-.287-.176Z"/></symbol></svg>