<svg width="16" height="16" viewBox="0 0 16 16" fill="none" xmlns="http://www.w3.org/2000/svg">
<g clip-path="url(#clip0_2_2363)">
<path d="M8 0C3.58873 0 0 3.58873 0 8C0 12.4113 3.58873 16 8 16C12.4113 16 16 12.4113 16 8C16 3.58873 12.4113 0 8 0ZM8 14.2514C4.55291 14.2514 1.74863 11.4471 1.74863 8C1.74863 4.55308 4.55291 1.74863 8 1.74863C11.4471 1.74863 14.2514 4.55308 14.2514 8C14.2514 11.4471 11.4471 14.2514 8 14.2514Z" fill="white"/>
<path d="M8.69243 8.00926V4.65628C8.69243 4.2819 8.38905 3.97852 8.0148 3.97852C7.64045 3.97852 7.33704 4.2819 7.33704 4.65628V8.22578C7.33704 8.23644 7.33966 8.24644 7.34018 8.2571C7.33126 8.44139 7.39475 8.62851 7.5355 8.76929L10.0597 11.2933C10.3244 11.558 10.7535 11.558 11.0181 11.2933C11.2827 11.0285 11.2828 10.5994 11.0181 10.3348L8.69243 8.00926Z" fill="white"/>
</g>
<defs>
<clipPath id="clip0_2_2363">
<rect width="16" height="16" fill="white"/>
</clipPath>
</defs>
</svg>
