<svg width="56" height="56" viewBox="0 0 56 56" fill="none" xmlns="http://www.w3.org/2000/svg">
<g clip-path="url(#clip0_1_1177)">
<path d="M47.25 33.568V30.625H48.125C48.821 30.6242 49.4882 30.3474 49.9803 29.8553C50.4724 29.3632 50.7492 28.696 50.75 28V17.5C50.7492 16.804 50.4724 16.1368 49.9803 15.6447C49.4882 15.1526 48.821 14.8758 48.125 14.875H47.25V9.625C47.2492 8.92904 46.9724 8.26181 46.4803 7.76969C45.9882 7.27757 45.321 7.00076 44.625 7H42V2.625C41.9992 1.92904 41.7224 1.26181 41.2303 0.769689C40.7382 0.277571 40.071 0.000764294 39.375 0L4.375 0C3.2151 0.00136627 2.10309 0.462741 1.28292 1.28292C0.462741 2.10309 0.00136627 3.2151 0 4.375L0 37.625C0.00136627 38.7849 0.462741 39.8969 1.28292 40.7171C2.10309 41.5373 3.2151 41.9986 4.375 42H33.568C33.0472 44.1883 33.1872 46.4818 33.9703 48.5905C34.7533 50.6992 36.1442 52.5283 37.967 53.8463C39.7897 55.1644 41.9625 55.9121 44.2103 55.9951C46.4582 56.078 48.6801 55.4923 50.5951 54.3122C52.51 53.132 54.0319 51.4104 54.9682 49.3652C55.9044 47.3199 56.2131 45.0429 55.855 42.8222C55.4969 40.6015 54.4882 38.5369 52.9564 36.8896C51.4247 35.2423 49.4388 34.0864 47.25 33.568ZM47.25 16.625H48.125C48.3571 16.625 48.5796 16.7172 48.7437 16.8813C48.9078 17.0454 49 17.2679 49 17.5C49 17.7321 48.9078 17.9546 48.7437 18.1187C48.5796 18.2828 48.3571 18.375 48.125 18.375H47.25V16.625ZM48.125 20.125C48.4231 20.1253 48.719 20.0745 49 19.975V28C48.9997 28.232 48.9074 28.4544 48.7434 28.6184C48.5794 28.7824 48.357 28.8747 48.125 28.875H41.125C39.9647 28.875 38.8519 28.4141 38.0314 27.5936C37.2109 26.7731 36.75 25.6603 36.75 24.5C36.75 23.3397 37.2109 22.2269 38.0314 21.4064C38.8519 20.5859 39.9647 20.125 41.125 20.125H48.125ZM44.625 8.75C44.857 8.7503 45.0794 8.84258 45.2434 9.00661C45.4074 9.17064 45.4997 9.39303 45.5 9.625V12.25H28.4375L31.0625 8.75H44.625ZM4.375 1.75H39.375C39.607 1.7503 39.8294 1.84258 39.9934 2.00661C40.1574 2.17064 40.2497 2.39303 40.25 2.625V7H30.625C30.4891 6.99988 30.3551 7.03146 30.2336 7.09222C30.1121 7.15298 30.0064 7.24124 29.925 7.35L24.675 14.35C24.569 14.4913 24.5082 14.6613 24.5007 14.8378C24.4931 15.0143 24.5392 15.1889 24.6327 15.3388L28.639 21.7487L24.365 26.0225L25.3487 22.0874C25.383 21.9503 25.3836 21.8069 25.3504 21.6696C25.3172 21.5322 25.2513 21.4049 25.1582 21.2986L19.4615 14.7875L23.4921 8.33875C23.5749 8.20629 23.6207 8.05409 23.6248 7.89795C23.6289 7.7418 23.5911 7.5874 23.5154 7.45079C23.4397 7.31417 23.3287 7.20032 23.1941 7.12105C23.0596 7.04178 22.9062 6.99998 22.75 7H4.375C3.67881 7 3.01113 6.72344 2.51884 6.23116C2.02656 5.73887 1.75 5.07119 1.75 4.375C1.75 3.67881 2.02656 3.01113 2.51884 2.51884C3.01113 2.02656 3.67881 1.75 4.375 1.75ZM1.75 7.8729C2.50632 8.44297 3.4279 8.7509 4.375 8.75H21.1713L18.9838 12.25H4.375C3.67904 12.2492 3.01181 11.9724 2.51969 11.4803C2.02757 10.9882 1.75076 10.321 1.75 9.625V7.8729ZM1.75 13.1026C2.50299 13.6814 3.42529 13.9967 4.375 14H17.89L17.6329 14.4112C17.5334 14.5706 17.4878 14.7578 17.5028 14.9451C17.5179 15.1324 17.5929 15.3098 17.7167 15.4512L23.5399 22.1063L21.9013 28.6626C21.8548 28.8483 21.8704 29.0441 21.9458 29.22C22.0212 29.3959 22.1523 29.5422 22.3188 29.6366C22.4853 29.7309 22.6782 29.768 22.8678 29.7422C23.0575 29.7165 23.2335 29.6292 23.3688 29.4939L30.3688 22.4939C30.5087 22.354 30.597 22.1709 30.6195 21.9743C30.6419 21.7778 30.597 21.5795 30.4923 21.4117L26.4352 14.9201L27.125 14H45.5V18.375H41.125C39.5005 18.375 37.9426 19.0203 36.794 20.169C35.6453 21.3176 35 22.8755 35 24.5C35 26.1245 35.6453 27.6824 36.794 28.831C37.9426 29.9797 39.5005 30.625 41.125 30.625H45.5V33.2944C45.2103 33.2721 44.9203 33.25 44.625 33.25C42.4885 33.2507 40.396 33.8576 38.5906 35H4.375C3.67904 34.9992 3.01181 34.7224 2.51969 34.2303C2.02757 33.7382 1.75076 33.071 1.75 32.375V13.1026ZM4.375 40.25C3.67904 40.2492 3.01181 39.9724 2.51969 39.4803C2.02757 38.9882 1.75076 38.321 1.75 37.625V35.8526C2.50299 36.4314 3.42529 36.7467 4.375 36.75H36.4358C35.4567 37.764 34.674 38.9507 34.1275 40.25H4.375ZM44.625 54.25C42.7214 54.25 40.8605 53.6855 39.2776 52.6279C37.6948 51.5703 36.4612 50.0671 35.7327 48.3083C35.0042 46.5496 34.8136 44.6143 35.1849 42.7473C35.5563 40.8802 36.473 39.1652 37.8191 37.8191C39.1652 36.473 40.8802 35.5563 42.7473 35.1849C44.6143 34.8136 46.5496 35.0042 48.3083 35.7327C50.0671 36.4612 51.5703 37.6948 52.6279 39.2776C53.6855 40.8605 54.25 42.7214 54.25 44.625C54.2471 47.1768 53.2321 49.6233 51.4277 51.4277C49.6233 53.2321 47.1768 54.2471 44.625 54.25Z" fill="#327FFC"/>
<path d="M42.3588 50.27V47.9361H41V46.7531H42.3588V45.4423H41V44.2593H42.3588V39H46.1794C47 39 47.6927 39.1385 48.2575 39.4156C48.833 39.6927 49.2647 40.0764 49.5524 40.5666C49.8508 41.0568 50 41.6323 50 42.2931C50 42.9538 49.8508 43.5187 49.5524 43.9876C49.254 44.4565 48.8277 44.8188 48.2735 45.0746C47.7194 45.3197 47.048 45.4423 46.2593 45.4423H44.421V46.7531H46.9947V47.9361H44.421V50.27H42.3588ZM44.389 44.2593H45.9716C46.6643 44.2593 47.1918 44.1048 47.5542 43.7957C47.9272 43.4867 48.1137 43.0178 48.1137 42.389C48.1137 41.7496 47.9272 41.2806 47.5542 40.9822C47.1918 40.6732 46.6643 40.5187 45.9716 40.5187H44.389V44.2593Z" fill="#327FFC"/>
<path d="M38.5 24.5C38.5 25.0192 38.654 25.5267 38.9424 25.9584C39.2308 26.3901 39.6408 26.7265 40.1205 26.9252C40.6001 27.1239 41.1279 27.1758 41.6371 27.0746C42.1463 26.9733 42.614 26.7233 42.9812 26.3562C43.3483 25.989 43.5983 25.5213 43.6996 25.0121C43.8008 24.5029 43.7489 23.9751 43.5502 23.4955C43.3515 23.0158 43.0151 22.6058 42.5834 22.3174C42.1517 22.029 41.6442 21.875 41.125 21.875C40.429 21.8758 39.7618 22.1526 39.2697 22.6447C38.7776 23.1368 38.5008 23.804 38.5 24.5ZM42 24.5C42 24.6731 41.9487 24.8422 41.8525 24.9861C41.7564 25.13 41.6197 25.2422 41.4598 25.3084C41.3 25.3746 41.124 25.3919 40.9543 25.3582C40.7846 25.3244 40.6287 25.2411 40.5063 25.1187C40.3839 24.9963 40.3006 24.8404 40.2668 24.6707C40.2331 24.501 40.2504 24.325 40.3166 24.1652C40.3828 24.0053 40.495 23.8686 40.6389 23.7725C40.7828 23.6763 40.9519 23.625 41.125 23.625C41.357 23.6253 41.5794 23.7176 41.7434 23.8816C41.9074 24.0456 41.9997 24.268 42 24.5Z" fill="#327FFC"/>
</g>
<defs>
<clipPath id="clip0_1_1177">
<rect width="56" height="56" fill="white"/>
</clipPath>
</defs>
</svg>
