<svg width="56" height="56" viewBox="0 0 56 56" fill="none" xmlns="http://www.w3.org/2000/svg">
<path d="M5.25 47.6885C5.13508 47.6885 5.02126 47.666 4.91507 47.622C4.80889 47.5781 4.7124 47.5136 4.63114 47.4323C4.54987 47.3511 4.48542 47.2546 4.44147 47.1484C4.39752 47.0422 4.37493 46.9284 4.375 46.8135C4.37728 44.7256 5.2077 42.7239 6.68405 41.2475C8.16041 39.7712 10.1621 38.9408 12.25 38.9385C12.4821 38.9385 12.7046 39.0307 12.8687 39.1948C13.0328 39.3589 13.125 39.5814 13.125 39.8135C13.125 40.0455 13.0328 40.2681 12.8687 40.4322C12.7046 40.5963 12.4821 40.6885 12.25 40.6885C10.6262 40.6904 9.06938 41.3364 7.92114 42.4846C6.77291 43.6329 6.12697 45.1896 6.125 46.8135C6.12507 46.9284 6.10248 47.0422 6.05853 47.1484C6.01458 47.2546 5.95013 47.3511 5.86886 47.4323C5.7876 47.5136 5.69112 47.5781 5.58493 47.622C5.47874 47.666 5.36493 47.6885 5.25 47.6885Z" fill="#327FFC"/>
<path d="M17.5 40.6894L12.25 40.6885C12.0179 40.6885 11.7954 40.5963 11.6313 40.4322C11.4672 40.2681 11.375 40.0455 11.375 39.8135C11.375 39.5814 11.4672 39.3589 11.6313 39.1948C11.7954 39.0307 12.0179 38.9385 12.25 38.9385L17.5 38.9394C17.7321 38.9394 17.9546 39.0315 18.1187 39.1956C18.2828 39.3597 18.375 39.5823 18.375 39.8144C18.375 40.0464 18.2828 40.269 18.1187 40.4331C17.9546 40.5972 17.7321 40.6894 17.5 40.6894Z" fill="#327FFC"/>
<path d="M33.4072 40.6892L29.75 40.6875C29.5179 40.6875 29.2954 40.5953 29.1313 40.4312C28.9672 40.2671 28.875 40.0446 28.875 39.8125C28.875 39.5804 28.9672 39.3579 29.1313 39.1938C29.2954 39.0297 29.5179 38.9375 29.75 38.9375L33.4072 38.9392C33.6393 38.9392 33.8619 39.0314 34.0259 39.1955C34.19 39.3596 34.2822 39.5822 34.2822 39.8142C34.2822 40.0463 34.19 40.2689 34.0259 40.433C33.8619 40.5971 33.6393 40.6892 33.4072 40.6892Z" fill="#327FFC"/>
<path d="M5.25087 54.6876C5.01881 54.6876 4.79626 54.5954 4.63217 54.4313C4.46808 54.2672 4.37589 54.0447 4.37587 53.8126L4.375 46.8135C4.375 46.5814 4.46719 46.3589 4.63128 46.1948C4.79538 46.0307 5.01794 45.9385 5.25 45.9385C5.48206 45.9385 5.70462 46.0307 5.86872 46.1948C6.03281 46.3589 6.125 46.5814 6.125 46.8135L6.12587 53.8126C6.12586 54.0447 6.03367 54.2672 5.86958 54.4313C5.70549 54.5954 5.48294 54.6876 5.25087 54.6876Z" fill="#327FFC"/>
<path d="M17.5 40.6894C17.3851 40.6894 17.2713 40.6668 17.1651 40.6229C17.0589 40.5789 16.9624 40.5145 16.8811 40.4332C16.7999 40.352 16.7354 40.2555 16.6915 40.1493C16.6475 40.0431 16.6249 39.9293 16.625 39.8144V34.7993C16.625 34.5673 16.7172 34.3447 16.8813 34.1806C17.0454 34.0165 17.2679 33.9243 17.5 33.9243C17.7321 33.9243 17.9546 34.0165 18.1187 34.1806C18.2828 34.3447 18.375 34.5673 18.375 34.7993V39.8144C18.3751 39.9293 18.3525 40.0431 18.3085 40.1493C18.2646 40.2555 18.2001 40.352 18.1189 40.4332C18.0376 40.5145 17.9411 40.5789 17.8349 40.6229C17.7287 40.6668 17.6149 40.6894 17.5 40.6894Z" fill="#327FFC"/>
<path d="M29.75 40.6876C29.6351 40.6877 29.5213 40.6651 29.4151 40.6211C29.3089 40.5772 29.2124 40.5127 29.1311 40.4315C29.0499 40.3502 28.9854 40.2537 28.9415 40.1475C28.8975 40.0414 28.8749 39.9275 28.875 39.8126V34.7993C28.875 34.5673 28.9672 34.3447 29.1313 34.1806C29.2954 34.0165 29.5179 33.9243 29.75 33.9243C29.9821 33.9243 30.2046 34.0165 30.3687 34.1806C30.5328 34.3447 30.625 34.5673 30.625 34.7993V39.8126C30.6251 39.9275 30.6025 40.0414 30.5585 40.1475C30.5146 40.2537 30.4501 40.3502 30.3689 40.4315C30.2876 40.5127 30.1911 40.5772 30.0849 40.6211C29.9787 40.6651 29.8649 40.6877 29.75 40.6876Z" fill="#327FFC"/>
<path d="M23.625 37.1885C19.9133 37.1842 16.3548 35.7079 13.7302 33.0833C11.1056 30.4587 9.62924 26.9002 9.625 23.1885C9.625 22.9564 9.71719 22.7339 9.88128 22.5698C10.0454 22.4057 10.2679 22.3135 10.5 22.3135C10.7321 22.3135 10.9546 22.4057 11.1187 22.5698C11.2828 22.7339 11.375 22.9564 11.375 23.1885C11.375 26.4374 12.6656 29.5532 14.9629 31.8505C17.2603 34.1479 20.3761 35.4385 23.625 35.4385C26.8739 35.4385 29.9897 34.1479 32.2871 31.8505C34.5844 29.5532 35.875 26.4374 35.875 23.1885C35.875 22.9564 35.9672 22.7339 36.1313 22.5698C36.2954 22.4057 36.5179 22.3135 36.75 22.3135C36.9821 22.3135 37.2046 22.4057 37.3687 22.5698C37.5328 22.7339 37.625 22.9564 37.625 23.1885C37.6208 26.9002 36.1444 30.4587 33.5198 33.0833C30.8952 35.7079 27.3367 37.1842 23.625 37.1885Z" fill="#327FFC"/>
<path d="M10.5 24.0634C10.3851 24.0634 10.2713 24.0409 10.1651 23.9969C10.0589 23.953 9.9624 23.8885 9.88114 23.8072C9.79987 23.726 9.73542 23.6295 9.69147 23.5233C9.64752 23.4171 9.62493 23.3033 9.625 23.1884V13.5625C9.625 13.3304 9.71719 13.1079 9.88128 12.9438C10.0454 12.7797 10.2679 12.6875 10.5 12.6875C10.7321 12.6875 10.9546 12.7797 11.1187 12.9438C11.2828 13.1079 11.375 13.3304 11.375 13.5625V23.1884C11.3751 23.3033 11.3525 23.4171 11.3085 23.5233C11.2646 23.6295 11.2001 23.726 11.1189 23.8072C11.0376 23.8885 10.9411 23.953 10.8349 23.9969C10.7287 24.0409 10.6149 24.0634 10.5 24.0634Z" fill="#327FFC"/>
<path d="M36.75 24.0633C36.6351 24.0634 36.5213 24.0408 36.4151 23.9969C36.3089 23.9529 36.2124 23.8885 36.1311 23.8072C36.0499 23.7259 35.9854 23.6294 35.9415 23.5233C35.8975 23.4171 35.8749 23.3033 35.875 23.1883V12.6892C35.875 12.4571 35.9672 12.2346 36.1313 12.0705C36.2954 11.9064 36.5179 11.8142 36.75 11.8142C36.9821 11.8142 37.2046 11.9064 37.3687 12.0705C37.5328 12.2346 37.625 12.4571 37.625 12.6892V23.1883C37.6251 23.3033 37.6025 23.4171 37.5585 23.5233C37.5146 23.6294 37.4501 23.7259 37.3689 23.8072C37.2876 23.8885 37.1911 23.9529 37.0849 23.9969C36.9787 24.0408 36.8649 24.0634 36.75 24.0633Z" fill="#327FFC"/>
<path d="M36.75 13.5642C36.6351 13.5643 36.5213 13.5417 36.4151 13.4977C36.3089 13.4538 36.2124 13.3893 36.1311 13.3081C36.0499 13.2268 35.9854 13.1303 35.9415 13.0241C35.8975 12.9179 35.8749 12.8041 35.875 12.6892C35.8735 11.2973 35.3199 9.96282 34.3356 8.97858C33.3514 7.99434 32.0169 7.44073 30.625 7.43921C30.3929 7.43921 30.1704 7.34702 30.0063 7.18293C29.8422 7.01883 29.75 6.79627 29.75 6.56421C29.75 6.33214 29.8422 6.10959 30.0063 5.94549C30.1704 5.7814 30.3929 5.68921 30.625 5.68921C32.4809 5.69133 34.2601 6.42951 35.5724 7.74181C36.8847 9.0541 37.6229 10.8333 37.625 12.6892C37.6251 12.8041 37.6025 12.9179 37.5585 13.0241C37.5146 13.1303 37.4501 13.2268 37.3689 13.3081C37.2876 13.3893 37.1911 13.4538 37.0849 13.4977C36.9787 13.5417 36.8649 13.5643 36.75 13.5642Z" fill="#327FFC"/>
<path d="M30.625 7.43925C30.5101 7.43932 30.3963 7.41673 30.2901 7.37278C30.1839 7.32883 30.0874 7.26438 30.0061 7.18312C29.9249 7.10185 29.8604 7.00537 29.8165 6.89918C29.7725 6.79299 29.7499 6.67918 29.75 6.56425V2.1875C29.75 1.95544 29.8422 1.73288 30.0063 1.56878C30.1704 1.40469 30.3929 1.3125 30.625 1.3125C30.8571 1.3125 31.0796 1.40469 31.2437 1.56878C31.4078 1.73288 31.5 1.95544 31.5 2.1875V6.56425C31.5001 6.67918 31.4775 6.79299 31.4335 6.89918C31.3896 7.00537 31.3251 7.10185 31.2439 7.18312C31.1626 7.26438 31.0661 7.32883 30.9599 7.37278C30.8537 7.41673 30.7399 7.43932 30.625 7.43925Z" fill="#327FFC"/>
<path d="M30.625 3.0625H21.875C21.6429 3.0625 21.4204 2.97031 21.2563 2.80622C21.0922 2.64212 21 2.41956 21 2.1875C21 1.95544 21.0922 1.73288 21.2563 1.56878C21.4204 1.40469 21.6429 1.3125 21.875 1.3125H30.625C30.8571 1.3125 31.0796 1.40469 31.2437 1.56878C31.4078 1.73288 31.5 1.95544 31.5 2.1875C31.5 2.41956 31.4078 2.64212 31.2437 2.80622C31.0796 2.97031 30.8571 3.0625 30.625 3.0625Z" fill="#327FFC"/>
<path d="M10.5 14.4375C10.3851 14.4376 10.2713 14.415 10.1651 14.371C10.0589 14.3271 9.9624 14.2626 9.88114 14.1814C9.79987 14.1001 9.73542 14.0036 9.69147 13.8974C9.64752 13.7912 9.62493 13.6774 9.625 13.5625C9.62864 10.3147 10.9204 7.20099 13.217 4.90446C15.5135 2.60793 18.6272 1.31614 21.875 1.3125C22.1071 1.3125 22.3296 1.40469 22.4937 1.56878C22.6578 1.73288 22.75 1.95544 22.75 2.1875C22.75 2.41956 22.6578 2.64212 22.4937 2.80622C22.3296 2.97031 22.1071 3.0625 21.875 3.0625C19.0912 3.06554 16.4222 4.17276 14.4537 6.14123C12.4853 8.10971 11.378 10.7787 11.375 13.5625C11.3751 13.6774 11.3525 13.7912 11.3085 13.8974C11.2646 14.0036 11.2001 14.1001 11.1189 14.1814C11.0376 14.2626 10.9411 14.3271 10.8349 14.371C10.7287 14.415 10.6149 14.4376 10.5 14.4375Z" fill="#327FFC"/>
<path d="M36.75 18.8124C36.6351 18.8125 36.5213 18.79 36.4151 18.746C36.309 18.702 36.2126 18.6374 36.1314 18.556L32.6314 15.056C32.4698 14.8915 32.3797 14.6697 32.3807 14.4391C32.3818 14.2084 32.4739 13.9875 32.637 13.8244C32.8001 13.6613 33.021 13.5692 33.2517 13.5681C33.4823 13.5671 33.7041 13.6572 33.8687 13.8188L37.3687 17.3188C37.491 17.4412 37.5743 17.5971 37.608 17.7668C37.6418 17.9365 37.6245 18.1124 37.5583 18.2722C37.492 18.4321 37.3799 18.5687 37.2361 18.6649C37.0922 18.761 36.9231 18.8124 36.75 18.8124Z" fill="#327FFC"/>
<path d="M23.6251 17.9374C20.0923 17.8587 16.6327 16.9145 13.5497 15.1877C13.3514 15.068 13.2087 14.8745 13.1527 14.6497C13.0968 14.425 13.1323 14.1872 13.2513 13.9885C13.3704 13.7898 13.5634 13.6465 13.788 13.5898C14.0126 13.5332 14.2505 13.5679 14.4495 13.6863C17.2647 15.2401 20.4108 16.0977 23.6251 16.1874C26.8393 16.0977 29.9854 15.2401 32.8006 13.6863C32.9997 13.5679 33.2375 13.5332 33.4621 13.5898C33.6867 13.6465 33.8797 13.7898 33.9988 13.9885C34.1179 14.1872 34.1533 14.425 34.0974 14.6497C34.0414 14.8745 33.8987 15.068 33.7004 15.1877C30.6174 16.9145 27.1578 17.8587 23.6251 17.9374Z" fill="#327FFC"/>
<path d="M10.5001 18.8124C10.327 18.8124 10.1579 18.761 10.014 18.6649C9.87017 18.5687 9.75805 18.4321 9.69184 18.2722C9.62563 18.1124 9.6083 17.9365 9.64205 17.7668C9.67579 17.5971 9.7591 17.4412 9.88143 17.3188L13.3814 13.8188C13.546 13.6572 13.7678 13.5671 13.9984 13.5681C14.2291 13.5692 14.45 13.6613 14.6131 13.8244C14.7762 13.9875 14.8683 14.2084 14.8693 14.4391C14.8704 14.6697 14.7803 14.8915 14.6187 15.056L11.1187 18.556C11.0375 18.6374 10.9411 18.702 10.835 18.746C10.7288 18.79 10.615 18.8125 10.5001 18.8124Z" fill="#327FFC"/>
<path d="M20.1241 42.4374C19.9517 42.4373 19.7831 42.3862 19.6396 42.2904L17.0146 40.5422C16.8233 40.4127 16.6909 40.2128 16.6463 39.9861C16.6018 39.7594 16.6487 39.5243 16.7768 39.332C16.905 39.1398 17.104 39.006 17.3304 38.96C17.5568 38.9139 17.7923 38.9592 17.9854 39.0861L20.6104 40.8344C20.7667 40.9386 20.8853 41.0903 20.9487 41.2672C21.0121 41.444 21.0169 41.6366 20.9624 41.8164C20.9079 41.9962 20.7969 42.1537 20.6459 42.2655C20.495 42.3774 20.312 42.4376 20.1241 42.4374Z" fill="#327FFC"/>
<path d="M20.1258 42.4374C19.9286 42.4377 19.7371 42.3713 19.5823 42.249C19.4276 42.1268 19.3187 41.9558 19.2733 41.7639C19.2279 41.572 19.2486 41.3703 19.3322 41.1917C19.4157 41.013 19.5572 40.8679 19.7336 40.7797L23.2336 39.0297C23.4411 38.9266 23.6811 38.9099 23.9008 38.9835C24.1206 39.057 24.3022 39.2147 24.4058 39.422C24.5095 39.6292 24.5267 39.8692 24.4537 40.0891C24.3806 40.309 24.2234 40.491 24.0163 40.5951L20.5163 42.3451C20.3951 42.4057 20.2614 42.4373 20.1258 42.4374Z" fill="#327FFC"/>
<path d="M27.1259 42.4376C26.938 42.4378 26.7551 42.3775 26.6042 42.2656C26.4533 42.1538 26.3423 41.9963 26.2878 41.8166C26.2333 41.6368 26.238 41.4443 26.3014 41.2674C26.3648 41.0906 26.4834 40.9388 26.6397 40.8346L29.2647 39.0863C29.4578 38.9605 29.6928 38.9159 29.9185 38.9622C30.1443 39.0086 30.3427 39.1422 30.4706 39.334C30.5984 39.5258 30.6455 39.7603 30.6014 39.9865C30.5574 40.2128 30.4258 40.4125 30.2354 40.5423L27.6104 42.2906C27.4669 42.3863 27.2984 42.4374 27.1259 42.4376Z" fill="#327FFC"/>
<path d="M27.1242 42.4376C26.9886 42.4374 26.8549 42.4058 26.7336 42.3453L23.2336 40.5953C23.1306 40.544 23.0386 40.473 22.9631 40.3862C22.8875 40.2994 22.8298 40.1985 22.7933 40.0893C22.7568 39.9802 22.7421 39.8649 22.7502 39.7501C22.7583 39.6353 22.789 39.5232 22.8404 39.4203C22.8919 39.3173 22.9632 39.2255 23.0502 39.1502C23.1372 39.0748 23.2382 39.0174 23.3474 38.9811C23.4566 38.9448 23.572 38.9305 23.6867 38.9388C23.8015 38.9472 23.9136 38.9781 24.0164 39.0298L27.5164 40.7798C27.6928 40.868 27.8343 41.0132 27.9178 41.1918C28.0014 41.3705 28.0221 41.5721 27.9767 41.764C27.9313 41.9559 27.8224 42.1269 27.6677 42.2492C27.5129 42.3714 27.3214 42.4378 27.1242 42.4376Z" fill="#327FFC"/>
<path d="M23.6421 45.0625C23.5272 45.0631 23.4133 45.041 23.3069 44.9975C23.2005 44.9541 23.1038 44.8901 23.0221 44.8092C22.9405 44.7284 22.8756 44.6322 22.8311 44.5263C22.7866 44.4203 22.7634 44.3067 22.7628 44.1918C22.7623 44.0769 22.7843 43.963 22.8278 43.8566C22.8713 43.7502 22.9352 43.6534 23.0161 43.5718C23.0969 43.4902 23.1931 43.4252 23.299 43.3807C23.405 43.3362 23.5187 43.3131 23.6336 43.3125H23.6421C23.8742 43.3125 24.0967 43.4047 24.2608 43.5688C24.4249 43.7329 24.5171 43.9554 24.5171 44.1875C24.5171 44.4196 24.4249 44.6421 24.2608 44.8062C24.0967 44.9703 23.8742 45.0625 23.6421 45.0625Z" fill="#327FFC"/>
<path d="M23.6421 49.4375C23.5272 49.4381 23.4133 49.416 23.3069 49.3725C23.2005 49.3291 23.1038 49.2651 23.0221 49.1842C22.9405 49.1034 22.8756 49.0072 22.8311 48.9013C22.7866 48.7953 22.7634 48.6817 22.7628 48.5668C22.7623 48.4519 22.7843 48.338 22.8278 48.2316C22.8713 48.1252 22.9352 48.0284 23.0161 47.9468C23.0969 47.8652 23.1931 47.8002 23.299 47.7557C23.405 47.7112 23.5187 47.6881 23.6336 47.6875H23.6421C23.8742 47.6875 24.0967 47.7797 24.2608 47.9438C24.4249 48.1079 24.5171 48.3304 24.5171 48.5625C24.5171 48.7946 24.4249 49.0171 24.2608 49.1812C24.0967 49.3453 23.8742 49.4375 23.6421 49.4375Z" fill="#327FFC"/>
<path d="M23.6421 53.8125C23.5272 53.8131 23.4133 53.791 23.3069 53.7475C23.2005 53.7041 23.1038 53.6401 23.0221 53.5592C22.9405 53.4784 22.8756 53.3822 22.8311 53.2763C22.7866 53.1703 22.7634 53.0567 22.7628 52.9418C22.7623 52.8269 22.7843 52.713 22.8278 52.6066C22.8713 52.5002 22.9352 52.4034 23.0161 52.3218C23.0969 52.2402 23.1931 52.1752 23.299 52.1307C23.405 52.0862 23.5187 52.0631 23.6336 52.0625H23.6421C23.8742 52.0625 24.0967 52.1547 24.2608 52.3188C24.4249 52.4829 24.5171 52.7054 24.5171 52.9375C24.5171 53.1696 24.4249 53.3921 24.2608 53.5562C24.0967 53.7203 23.8742 53.8125 23.6421 53.8125Z" fill="#327FFC"/>
<path d="M42 51.1875C40.0964 51.1875 38.2355 50.623 36.6526 49.5654C35.0698 48.5078 33.8362 47.0046 33.1077 45.2458C32.3792 43.4871 32.1886 41.5518 32.5599 39.6848C32.9313 37.8177 33.848 36.1027 35.1941 34.7566C36.5402 33.4105 38.2552 32.4938 40.1223 32.1224C41.9893 31.7511 43.9246 31.9417 45.6833 32.6702C47.4421 33.3987 48.9453 34.6323 50.0029 36.2151C51.0605 37.798 51.625 39.6589 51.625 41.5625C51.6221 44.1143 50.6071 46.5608 48.8027 48.3652C46.9983 50.1696 44.5518 51.1846 42 51.1875ZM42 33.6875C40.4425 33.6875 38.9199 34.1494 37.6249 35.0147C36.3299 35.88 35.3205 37.1099 34.7245 38.5489C34.1284 39.9878 33.9725 41.5712 34.2763 43.0988C34.5802 44.6264 35.3302 46.0296 36.4315 47.131C37.5329 48.2323 38.9361 48.9823 40.4637 49.2862C41.9913 49.59 43.5747 49.4341 45.0136 48.8381C46.4526 48.242 47.6825 47.2327 48.5478 45.9376C49.4131 44.6426 49.875 43.12 49.875 41.5625C49.8727 39.4746 49.0423 37.4729 47.566 35.9966C46.0896 34.5202 44.0879 33.6898 42 33.6875Z" fill="#327FFC"/>
<path d="M42 48.5625C40.6155 48.5625 39.2622 48.152 38.111 47.3828C36.9599 46.6136 36.0627 45.5204 35.5328 44.2413C35.003 42.9622 34.8644 41.5547 35.1345 40.1969C35.4046 38.839 36.0713 37.5917 37.0503 36.6128C38.0292 35.6338 39.2765 34.9671 40.6344 34.697C41.9922 34.4269 43.3997 34.5655 44.6788 35.0953C45.9579 35.6252 47.0511 36.5224 47.8203 37.6735C48.5895 38.8247 49 40.178 49 41.5625C48.9979 43.4184 48.2597 45.1976 46.9474 46.5099C45.6351 47.8222 43.8559 48.5604 42 48.5625ZM42 36.3125C40.9617 36.3125 39.9466 36.6204 39.0833 37.1973C38.2199 37.7742 37.547 38.5941 37.1496 39.5534C36.7523 40.5127 36.6483 41.5683 36.8509 42.5867C37.0535 43.6051 37.5535 44.5406 38.2877 45.2748C39.0219 46.009 39.9574 46.5091 40.9758 46.7116C41.9942 46.9142 43.0498 46.8102 44.0091 46.4129C44.9684 46.0155 45.7883 45.3426 46.3652 44.4792C46.9421 43.6159 47.25 42.6009 47.25 41.5625C47.2485 40.1706 46.6949 38.8361 45.7106 37.8519C44.7264 36.8676 43.3919 36.314 42 36.3125Z" fill="#327FFC"/>
<path d="M42 54.6875C39.4482 54.6846 37.0017 53.6696 35.1973 51.8652C33.3929 50.0608 32.3779 47.6143 32.375 45.0625C32.375 44.8304 32.4672 44.6079 32.6313 44.4438C32.7954 44.2797 33.0179 44.1875 33.25 44.1875C33.4821 44.1875 33.7046 44.2797 33.8687 44.4438C34.0328 44.6079 34.125 44.8304 34.125 45.0625C34.125 47.1511 34.9547 49.1541 36.4315 50.631C37.9084 52.1078 39.9114 52.9375 42 52.9375C44.0886 52.9375 46.0916 52.1078 47.5685 50.631C49.0453 49.1541 49.875 47.1511 49.875 45.0625C49.875 44.8304 49.9672 44.6079 50.1313 44.4438C50.2954 44.2797 50.5179 44.1875 50.75 44.1875C50.9821 44.1875 51.2046 44.2797 51.3687 44.4438C51.5328 44.6079 51.625 44.8304 51.625 45.0625C51.6221 47.6143 50.6071 50.0608 48.8027 51.8652C46.9983 53.6696 44.5518 54.6846 42 54.6875Z" fill="#327FFC"/>
<path d="M50.75 45.9375C50.6351 45.9376 50.5213 45.915 50.4151 45.871C50.3089 45.8271 50.2124 45.7626 50.1311 45.6814C50.0499 45.6001 49.9854 45.5036 49.9415 45.3974C49.8975 45.2912 49.8749 45.1774 49.875 45.0625V41.5625C49.875 41.3304 49.9672 41.1079 50.1313 40.9438C50.2954 40.7797 50.5179 40.6875 50.75 40.6875C50.9821 40.6875 51.2046 40.7797 51.3687 40.9438C51.5328 41.1079 51.625 41.3304 51.625 41.5625V45.0625C51.6251 45.1774 51.6025 45.2912 51.5585 45.3974C51.5146 45.5036 51.4501 45.6001 51.3689 45.6814C51.2876 45.7626 51.1911 45.8271 51.0849 45.871C50.9787 45.915 50.8649 45.9376 50.75 45.9375Z" fill="#327FFC"/>
<path d="M33.25 45.9375C33.1351 45.9376 33.0213 45.915 32.9151 45.871C32.8089 45.8271 32.7124 45.7626 32.6311 45.6814C32.5499 45.6001 32.4854 45.5036 32.4415 45.3974C32.3975 45.2912 32.3749 45.1774 32.375 45.0625V41.5625C32.375 41.3304 32.4672 41.1079 32.6313 40.9438C32.7954 40.7797 33.0179 40.6875 33.25 40.6875C33.4821 40.6875 33.7046 40.7797 33.8687 40.9438C34.0328 41.1079 34.125 41.3304 34.125 41.5625V45.0625C34.1251 45.1774 34.1025 45.2912 34.0585 45.3974C34.0146 45.5036 33.9501 45.6001 33.8689 45.6814C33.7876 45.7626 33.6911 45.8271 33.5849 45.871C33.4787 45.915 33.3649 45.9376 33.25 45.9375Z" fill="#327FFC"/>
<path d="M42 45.0625C41.8851 45.0626 41.7713 45.04 41.6651 44.996C41.5589 44.9521 41.4624 44.8876 41.3811 44.8064C41.2999 44.7251 41.2354 44.6286 41.1915 44.5224C41.1475 44.4162 41.1249 44.3024 41.125 44.1875V38.9375C41.125 38.7054 41.2172 38.4829 41.3813 38.3188C41.5454 38.1547 41.7679 38.0625 42 38.0625C42.2321 38.0625 42.4546 38.1547 42.6187 38.3188C42.7828 38.4829 42.875 38.7054 42.875 38.9375V44.1875C42.8751 44.3024 42.8525 44.4162 42.8085 44.5224C42.7646 44.6286 42.7001 44.7251 42.6189 44.8064C42.5376 44.8876 42.4411 44.9521 42.3349 44.996C42.2287 45.04 42.1149 45.0626 42 45.0625Z" fill="#327FFC"/>
</svg>
