<svg width="56" height="56" viewBox="0 0 56 56" fill="none" xmlns="http://www.w3.org/2000/svg">
<path d="M8.11558 23.8545C6.80308 23.8545 5.7312 24.9264 5.7312 26.2389V31.0076C5.7312 32.3201 6.80308 33.392 8.11558 33.392H14.4812C15.7937 33.392 16.8656 32.3201 16.8656 31.0076V26.2498C16.8656 24.9373 15.7937 23.8654 14.4812 23.8654H8.11558V23.8545ZM8.11558 25.4514H8.91401V27.8357H7.31714V26.2498C7.31714 25.8123 7.67808 25.4514 8.11558 25.4514ZM7.31714 31.0186V29.4326H8.90308V31.817H8.10464C7.67808 31.817 7.31714 31.4561 7.31714 31.0186ZM10.5 31.817V25.4514H12.0859V31.817H10.5ZM14.4812 31.817H13.6828V29.4326H15.2687V31.0186C15.2687 31.4561 14.9187 31.817 14.4812 31.817ZM15.2687 26.2498V27.8357H13.6828V25.4514H14.4812C14.9187 25.4514 15.2687 25.8123 15.2687 26.2498Z" fill="#327FFC"/>
<path d="M52.6641 35.7874H3.33594V22.2687C3.33594 21.8312 3.69687 21.4702 4.13437 21.4702H29.5859V19.8843H4.13437C2.82187 19.8843 1.75 20.9562 1.75 22.2687V49.3171C1.75 50.6296 2.82187 51.7015 4.13437 51.7015H51.8656C53.1781 51.7015 54.25 50.6296 54.25 49.3171V31.0187H52.6641V35.7874ZM51.8656 50.1046H4.13437C3.69687 50.1046 3.33594 49.7437 3.33594 49.3062V37.3843H52.6531V49.3171C52.6641 49.7546 52.3031 50.1046 51.8656 50.1046Z" fill="#327FFC"/>
<path d="M5.7312 39.7686H7.31714V42.9514H5.7312V39.7686Z" fill="#327FFC"/>
<path d="M8.91406 39.7686H10.5V42.9514H8.91406V39.7686Z" fill="#327FFC"/>
<path d="M12.0859 39.7686H13.6719V42.9514H12.0859V39.7686Z" fill="#327FFC"/>
<path d="M15.2688 39.7686H16.8547V42.9514H15.2688V39.7686Z" fill="#327FFC"/>
<path d="M22.4329 39.7686H24.0188V42.9514H22.4329V39.7686Z" fill="#327FFC"/>
<path d="M25.6156 39.7686H27.2015V42.9514H25.6156V39.7686Z" fill="#327FFC"/>
<path d="M28.7985 39.7686H30.3844V42.9514H28.7985V39.7686Z" fill="#327FFC"/>
<path d="M31.9812 39.7686H33.5671V42.9514H31.9812V39.7686Z" fill="#327FFC"/>
<path d="M39.1344 39.7686H40.7203V42.9514H39.1344V39.7686Z" fill="#327FFC"/>
<path d="M42.3171 39.7686H43.9031V42.9514H42.3171V39.7686Z" fill="#327FFC"/>
<path d="M45.5 39.7686H47.0859V42.9514H45.5V39.7686Z" fill="#327FFC"/>
<path d="M48.6829 39.7686H50.2688V42.9514H48.6829V39.7686Z" fill="#327FFC"/>
<path d="M5.7312 45.3359H20.0484V46.9219H5.7312V45.3359Z" fill="#327FFC"/>
<path d="M35.9515 45.3359H42.3172V46.9219H35.9515V45.3359Z" fill="#327FFC"/>
<path d="M43.9141 45.3359H50.2797V46.9219H43.9141V45.3359Z" fill="#327FFC"/>
<path d="M42.7875 30.417C47.0094 30.417 50.4657 27.0374 50.4657 22.8155C50.4657 20.7811 49.6672 18.878 48.2125 17.4342C45.2266 14.4702 40.3594 14.4702 37.3625 17.4342C34.3547 20.4092 34.3547 25.2217 37.3625 28.1967C38.861 29.6733 40.8297 30.417 42.7875 30.417ZM38.4891 18.5717C40.8625 16.2202 44.7235 16.2202 47.0969 18.5717C49.4704 20.9233 49.4704 24.7186 47.0969 27.0702C44.7235 29.4217 40.8625 29.4217 38.4891 27.0702C36.1157 24.7186 36.1157 20.9124 38.4891 18.5717Z" fill="#327FFC"/>
<path d="M29.4656 8.42165C28.864 7.95134 27.989 7.82009 26.95 8.0279L27.2671 9.59196C27.814 9.48259 28.2734 9.5154 28.4921 9.6904C28.5359 9.72321 28.689 9.84352 28.7218 10.2263C28.6234 11.3966 29.3453 12.5013 30.4937 12.8623L31.0953 13.0482C30.5156 13.967 30.6578 15.1482 31.4234 15.9029L32.375 16.8435C32.6046 17.0732 32.6593 17.4232 32.5062 17.7185C28.6671 25.3201 34.2781 34.2123 42.7765 34.2123C46.1343 34.2123 49.1203 32.8232 51.2531 30.5263C55.2343 26.2388 55.2015 19.2935 51.1875 15.0498C47.7203 11.3748 42.1421 10.3904 37.614 12.6545C37.3296 12.7966 36.9796 12.742 36.75 12.5123L35.7875 11.5498C34.8796 10.6529 33.414 10.6529 32.5062 11.5498L32.3093 11.7466L30.975 11.331C30.5375 11.1998 30.264 10.7732 30.3187 10.3248C30.3296 10.281 30.3296 10.2263 30.3187 10.1826C30.264 9.22009 29.8156 8.69509 29.4656 8.42165ZM34.6609 12.6873L35.6234 13.6498C36.3343 14.3498 37.4171 14.5248 38.314 14.0763C42.2187 12.1295 47.0312 12.9717 50.0281 16.1326C53.4843 19.7857 53.5062 25.7576 50.0828 29.4326C48.2343 31.4232 45.7187 32.5498 42.9953 32.6045C35.5906 32.7685 30.5703 25.0576 33.9281 18.4295C34.3875 17.5107 34.2125 16.417 33.4906 15.706L32.539 14.7654C32.2546 14.492 32.2546 14.0326 32.539 13.7592L33.6218 12.6873C33.9062 12.4029 34.3765 12.4029 34.6609 12.6873Z" fill="#327FFC"/>
<path d="M23.2312 7.92969H25.5718V9.51562H23.2312V7.92969Z" fill="#327FFC"/>
<path d="M24.8104 12.2517L26.0312 10.2668L27.3824 11.0978L26.1616 13.0827L24.8104 12.2517Z" fill="#327FFC"/>
<path d="M24.8256 5.19482L26.1768 4.36379L27.3975 6.34869L26.0463 7.17972L24.8256 5.19482Z" fill="#327FFC"/>
</svg>
