<svg width="56" height="56" viewBox="0 0 56 56" fill="none" xmlns="http://www.w3.org/2000/svg">
<g clip-path="url(#clip0_1_1070)">
<path d="M16.625 56C16.393 56 16.1704 55.9077 16.0064 55.7437L5.50638 45.2437C5.25644 44.9933 5.18124 44.6169 5.31668 44.29C5.45212 43.9632 5.77127 43.75 6.12503 43.75H16.625C17.1082 43.75 17.5 44.1418 17.5 44.625V55.125C17.5 55.6082 17.1082 56 16.625 56ZM8.23734 45.5L15.75 53.0127V45.5H8.23734Z" fill="#327FFC"/>
<path d="M49.875 56H16.625C16.393 56 16.1704 55.9077 16.0063 55.7437L5.50635 45.2437C5.34229 45.0796 5.25 44.857 5.25 44.625V30.625H7V44.2627L16.9873 54.25H49V42H50.75V55.125C50.75 55.6082 50.3582 56 49.875 56Z" fill="#327FFC"/>
<path d="M50.75 22.75H49V1.75H7V6.125H5.25V0.875C5.25 0.391785 5.64178 0 6.125 0H49.875C50.3582 0 50.75 0.391785 50.75 0.875V22.75Z" fill="#327FFC"/>
<path d="M19.25 41.1251C18.9689 41.1251 18.7044 40.9901 18.5399 40.7619C18.3755 40.5338 18.3306 40.2402 18.4195 39.9736L20.1695 34.7236L21.8323 35.2765L20.6352 38.8641L24.2227 37.6669L24.7756 39.3298L19.5256 41.0798C19.4367 41.1093 19.3436 41.1246 19.25 41.1251Z" fill="#327FFC"/>
<path d="M48.125 38.5H36.75C36.518 38.5 36.2954 38.4077 36.1313 38.2437L33.7627 35.875H28.875C27.4254 35.875 26.25 34.6996 26.25 33.25C26.25 31.8004 27.4254 30.625 28.875 30.625H34.6377L36.1313 29.1313C36.2954 28.9673 36.518 28.875 36.75 28.875H42V30.625H37.1123L35.6187 32.1187C35.4546 32.2827 35.232 32.375 35 32.375H28.875C28.3918 32.375 28 32.7668 28 33.25C28 33.7332 28.3918 34.125 28.875 34.125H34.125C34.357 34.125 34.5796 34.2173 34.7437 34.3813L37.1123 36.75H48.125V38.5Z" fill="#327FFC"/>
<path d="M24.5 39.3749C24.2681 39.3749 24.0455 39.2826 23.8814 39.1186L20.3814 35.6186C20.04 35.2768 20.04 34.7231 20.3814 34.3813L39.6314 15.1313C39.9732 14.7899 40.5269 14.7899 40.8687 15.1313L44.3687 18.6313C44.7101 18.9731 44.7101 19.5268 44.3687 19.8686L32.1187 32.1186L30.8814 30.8813L42.5127 19.2499L40.25 16.9872L22.2374 34.9999L24.5 37.2626L27.3814 34.3813L28.6187 35.6186L25.1187 39.1186C24.9546 39.2826 24.732 39.3749 24.5 39.3749Z" fill="#327FFC"/>
<path d="M36.1317 19.8687L37.369 18.6313L40.8694 22.1313L39.6317 23.3691L36.1317 19.8687Z" fill="#327FFC"/>
<path d="M55.125 40.25H48.125C47.6418 40.25 47.25 39.8582 47.25 39.375V25.375C47.25 24.8918 47.6418 24.5 48.125 24.5H55.125C55.6082 24.5 56 24.8918 56 25.375V39.375C56 39.8582 55.6082 40.25 55.125 40.25ZM49 38.5H54.25V26.25H49V38.5Z" fill="#327FFC"/>
<path d="M23.625 33.25H21.875V27.125C21.875 26.893 21.9673 26.6704 22.1313 26.5063L31.7563 16.8813C31.9204 16.7173 32.143 16.625 32.375 16.625H38.5V18.375H32.7373L23.625 27.4873V33.25Z" fill="#327FFC"/>
<path d="M41.3813 21.6191L42.6191 20.3813L48.7437 26.5063L47.5063 27.7437L41.3813 21.6191Z" fill="#327FFC"/>
<path d="M11.375 29.75C5.09277 29.75 0 24.6572 0 18.375C0 12.0928 5.09277 7 11.375 7C17.6572 7 22.75 12.0928 22.75 18.375C22.7427 24.6542 17.6542 29.7427 11.375 29.75ZM11.375 8.75C6.0592 8.75 1.75 13.0592 1.75 18.375C1.75 23.6908 6.0592 28 11.375 28C16.6908 28 21 23.6908 21 18.375C20.9936 13.0618 16.6882 8.75641 11.375 8.75Z" fill="#327FFC"/>
<path d="M11.375 26.25C7.02563 26.25 3.5 22.7244 3.5 18.375C3.5 14.0256 7.02563 10.5 11.375 10.5C15.7244 10.5 19.25 14.0256 19.25 18.375C19.2449 22.7222 15.7222 26.2449 11.375 26.25ZM11.375 12.25C7.99207 12.25 5.25 14.9921 5.25 18.375C5.25 21.7579 7.99207 24.5 11.375 24.5C14.7579 24.5 17.5 21.7579 17.5 18.375C17.4962 14.9938 14.7562 12.2538 11.375 12.25Z" fill="#327FFC"/>
<path d="M35 3.5H47.25V5.25H35V3.5Z" fill="#327FFC"/>
<path d="M36.75 7H47.25V8.75H36.75V7Z" fill="#327FFC"/>
<path d="M43.75 50.75H28C27.5168 50.75 27.125 50.3582 27.125 49.875V46.375C27.125 45.8918 27.5168 45.5 28 45.5H37.625V43.75H20.125V42H38.5C38.9832 42 39.375 42.3918 39.375 42.875V46.375C39.375 46.8582 38.9832 47.25 38.5 47.25H28.875V49H43.75V50.75Z" fill="#327FFC"/>
<path d="M45.5 49H47.25V50.75H45.5V49Z" fill="#327FFC"/>
<path d="M8.90586 22.5133V20.9574H8V20.1687H8.90586V19.2948H8V18.5062H8.90586V15H11.4529C12 15 12.4618 15.0924 12.8384 15.2771C13.222 15.4618 13.5098 15.7176 13.7016 16.0444C13.9005 16.3712 14 16.7549 14 17.1954C14 17.6359 13.9005 18.0124 13.7016 18.325C13.5027 18.6377 13.2185 18.8792 12.849 19.0497C12.4796 19.2131 12.032 19.2948 11.5062 19.2948H10.2806V20.1687H11.9964V20.9574H10.2806V22.5133H8.90586ZM10.2593 18.5062H11.3144C11.7762 18.5062 12.1279 18.4032 12.3694 18.1972C12.6181 17.9911 12.7425 17.6785 12.7425 17.2593C12.7425 16.833 12.6181 16.5204 12.3694 16.3215C12.1279 16.1155 11.7762 16.0124 11.3144 16.0124H10.2593V18.5062Z" fill="#327FFC"/>
</g>
<defs>
<clipPath id="clip0_1_1070">
<rect width="56" height="56" fill="white"/>
</clipPath>
</defs>
</svg>
