<svg width="56" height="56" viewBox="0 0 56 56" fill="none" xmlns="http://www.w3.org/2000/svg">
<g clip-path="url(#clip0_1_1173)">
<path d="M5.6 10.2666C4.49243 10.2666 3.40972 10.595 2.48881 11.2104C1.56789 11.8257 0.850128 12.7003 0.426277 13.7236C0.0024264 14.7468 -0.108472 15.8728 0.107605 16.9591C0.323682 18.0454 0.857031 19.0432 1.6402 19.8264C2.42338 20.6096 3.4212 21.1429 4.5075 21.359C5.59379 21.5751 6.71977 21.4642 7.74303 21.0403C8.7663 20.6165 9.6409 19.8987 10.2562 18.9778C10.8716 18.0569 11.2 16.9742 11.2 15.8666C11.1985 14.3818 10.608 12.9583 9.55817 11.9084C8.50828 10.8586 7.08476 10.2681 5.6 10.2666ZM5.6 19.5999C4.86162 19.5999 4.13982 19.381 3.52587 18.9708C2.91193 18.5605 2.43342 17.9775 2.15085 17.2953C1.86829 16.6131 1.79435 15.8625 1.9384 15.1383C2.08246 14.4141 2.43802 13.7489 2.96014 13.2267C3.48225 12.7046 4.14747 12.3491 4.87167 12.205C5.59586 12.061 6.34651 12.1349 7.02869 12.4175C7.71087 12.7 8.29393 13.1785 8.70416 13.7925C9.11438 14.4064 9.33334 15.1282 9.33334 15.8666C9.33334 16.8567 8.94001 17.8063 8.23987 18.5065C7.53973 19.2066 6.59015 19.5999 5.6 19.5999Z" fill="#327FFC"/>
<path d="M8.64927 38.7903L3.9826 50.9237C3.6293 51.8469 3.65591 52.8725 4.05659 53.7762C4.45728 54.6799 5.19946 55.3882 6.12087 55.7462C6.5785 55.9233 7.06656 56.0084 7.55712 55.9968C8.04768 55.9851 8.53113 55.8768 8.97981 55.6781C9.42849 55.4794 9.8336 55.1942 10.172 54.8389C10.5103 54.4835 10.7753 54.0649 10.9518 53.607L14.8233 43.5391L23.0982 42.4331L24.3283 49.2017C24.4449 49.8423 24.727 50.4413 25.1467 50.9392C25.5663 51.4371 26.1089 51.8165 26.7205 52.0399L36.9955 55.7733C37.4033 55.9207 37.8332 55.9974 38.2667 56.0001C39.1458 56.0023 39.9974 55.6943 40.6717 55.1302C41.3459 54.5662 41.7995 53.7823 41.9525 52.9167C42.1055 52.051 41.9482 51.1592 41.5082 50.3981C41.0682 49.6371 40.3738 49.0558 39.5473 48.7565L31.2863 45.7577L29.8051 37.591C29.7049 37.0601 29.493 36.5565 29.1835 36.1135L25.6723 31.137L34.9123 35.1569C35.4119 35.3818 35.9553 35.4925 36.503 35.4811C37.0507 35.4698 37.5891 35.3365 38.0788 35.0911C38.5686 34.8457 38.9976 34.4942 39.3346 34.0623C39.6716 33.6303 39.9081 33.1287 40.027 32.5939C42.5516 32.3867 44.9859 31.5586 47.1133 30.1836C49.2406 28.8085 50.9952 26.929 52.2209 24.7121C53.4466 22.4953 54.1055 20.01 54.1389 17.4771C54.1723 14.9442 53.5792 12.4423 52.4123 10.1939L53.8627 8.74261C54.2954 8.30652 54.5727 7.74024 54.6518 7.13105C54.7309 6.52185 54.6074 5.90354 54.3005 5.37141C54.6299 5.23297 54.9294 5.03202 55.1825 4.77968C55.7075 4.25429 56.0023 3.54185 56.002 2.79909C56.0018 2.05633 55.7065 1.3441 55.1811 0.819079C54.6557 0.294056 53.9432 -0.000750646 53.2005 -0.000488106C52.4577 -0.000225566 51.7455 0.295085 51.2205 0.820479C50.9681 1.07351 50.7672 1.37303 50.6287 1.70248C50.0966 1.39552 49.4783 1.27208 48.8691 1.35118C48.2599 1.43028 47.6936 1.70754 47.2575 2.14021L45.8062 3.59061C43.0676 2.17292 39.9664 1.61048 36.9044 1.97619C33.8424 2.34191 30.9608 3.61892 28.6331 5.64171C26.3055 7.66449 24.6391 10.3398 23.8499 13.3209C23.0607 16.302 23.1851 19.4514 24.207 22.3609L16.4267 18.9775C15.6794 18.6508 14.8456 18.5778 14.0528 18.7697C13.2601 18.9615 12.552 19.4078 12.0368 20.0401C11.5216 20.6725 11.2277 21.4561 11.1999 22.2713C11.1722 23.0865 11.4122 23.8883 11.8833 24.5542L19.5263 35.3809L11.6406 36.4355C10.9757 36.5209 10.3463 36.785 9.81958 37.1996C9.29283 37.6143 8.88837 38.164 8.64927 38.7903ZM52.5402 2.14021C52.6707 2.00965 52.837 1.92074 53.0181 1.8847C53.1991 1.84866 53.3868 1.86713 53.5574 1.93776C53.7279 2.0084 53.8737 2.12803 53.9763 2.28152C54.0789 2.43501 54.1336 2.61547 54.1336 2.80008C54.1336 2.98469 54.0789 3.16515 53.9763 3.31864C53.8737 3.47213 53.7279 3.59176 53.5574 3.66239C53.3868 3.73303 53.1991 3.75149 53.0181 3.71546C52.837 3.67942 52.6707 3.5905 52.5402 3.45995C52.3652 3.28492 52.2669 3.04757 52.2669 2.80008C52.2669 2.55259 52.3652 2.31524 52.5402 2.14021ZM48.5773 3.45995C48.664 3.37303 48.767 3.30407 48.8804 3.25702C48.9937 3.20996 49.1153 3.18574 49.2381 3.18574C49.3608 3.18574 49.4824 3.20996 49.5958 3.25702C49.7092 3.30407 49.8122 3.37303 49.8989 3.45995L52.5402 6.10128C52.6271 6.18798 52.6961 6.29097 52.7431 6.40436C52.7902 6.51775 52.8144 6.63931 52.8144 6.76208C52.8144 6.88484 52.7902 7.0064 52.7431 7.1198C52.6961 7.23319 52.6271 7.33618 52.5402 7.42288L51.4146 8.54848C50.3583 6.98695 49.0132 5.64182 47.4517 4.58555L48.5773 3.45995ZM29.1639 7.69728C30.699 6.15702 32.5826 5.00936 34.6553 4.35148C36.728 3.69359 38.9287 3.54486 41.071 3.91787C43.2134 4.29088 45.2343 5.17466 46.9626 6.49435C48.691 7.81405 50.0759 9.5308 51 11.4992C51.9242 13.4677 52.3604 15.6298 52.2717 17.8026C52.183 19.9754 51.572 22.0948 50.4905 23.9813C49.409 25.8679 47.8888 27.4661 46.0586 28.6405C44.2285 29.8149 42.1422 30.5311 39.9766 30.7282C39.8313 30.1954 39.5688 29.7019 39.2082 29.2836C38.8476 28.8654 38.398 28.533 37.8925 28.3109L26.7083 23.4482C25.4074 20.8985 24.9443 18.0033 25.3853 15.1751C25.8262 12.3468 27.1486 9.72992 29.1639 7.69728ZM19.7746 37.2317C20.093 37.1893 20.3951 37.0654 20.6516 36.872C20.9082 36.6787 21.1104 36.4224 21.2389 36.128C21.3674 35.8336 21.4178 35.511 21.3851 35.1914C21.3524 34.8718 21.2378 34.5661 21.0523 34.3038L13.4074 23.4771C13.1719 23.1441 13.0519 22.7431 13.0658 22.3355C13.0797 21.9278 13.2268 21.5359 13.4846 21.2198C13.7423 20.9036 14.0965 20.6806 14.493 20.5848C14.8895 20.489 15.3064 20.5257 15.6801 20.6893L37.1467 30.0226C37.5979 30.2223 37.9516 30.5925 38.1306 31.0523C38.3095 31.5121 38.2992 32.024 38.1019 32.4762C37.9045 32.9283 37.5362 33.284 37.0774 33.4654C36.6186 33.6468 36.1066 33.6392 35.6534 33.4442L23.3605 28.0934L19.9734 26.6187C19.7464 26.5197 19.4894 26.5149 19.2589 26.6054C19.0283 26.6959 18.8432 26.8743 18.7442 27.1013C18.6452 27.3283 18.6404 27.5853 18.7309 27.8158C18.8214 28.0463 18.9997 28.2315 19.2267 28.3305L22.3749 29.7034L27.6529 37.1841C27.8098 37.4077 27.9171 37.6623 27.9674 37.9307L29.4486 46.0927C29.5078 46.4134 29.6495 46.713 29.8598 46.9621C30.0701 47.2112 30.3418 47.4012 30.6479 47.5133L38.9051 50.5111C39.3709 50.6818 39.7502 51.0299 39.96 51.4794C40.1699 51.9289 40.1933 52.4431 40.0251 52.9098C39.8442 53.3673 39.4946 53.7378 39.0485 53.945C38.6023 54.1522 38.0936 54.1802 37.6274 54.0233L27.3607 50.2899C27.0557 50.1783 26.7852 49.9886 26.5762 49.7399C26.3673 49.4911 26.2271 49.192 26.1698 48.8722L24.9387 42.1027C24.8605 41.6738 24.6345 41.2857 24.3 41.0059C23.9655 40.7262 23.5436 40.5723 23.1075 40.5711C23.023 40.5717 22.9385 40.5773 22.8546 40.5879L14.5731 41.6921C14.2412 41.7368 13.9274 41.87 13.6646 42.0777C13.4019 42.2855 13.1999 42.5601 13.0798 42.8727L9.20927 52.9387C9.02341 53.3955 8.66753 53.7622 8.21661 53.9617C7.76569 54.1613 7.25493 54.178 6.79193 54.0083C6.3311 53.8286 5.96018 53.4737 5.76027 53.0212C5.56036 52.5688 5.54773 52.0556 5.72513 51.5938L10.3918 39.4605C10.5131 39.1494 10.7157 38.8765 10.9783 38.6703C11.241 38.4641 11.5541 38.3322 11.8851 38.2882L19.7746 37.2317Z" fill="#327FFC"/>
<path d="M36.3263 23.0001V20.722H35V19.5674H36.3263V18.288H35V17.1334H36.3263V12H40.0554C40.8563 12 41.5324 12.1352 42.0837 12.4057C42.6454 12.6761 43.0667 13.0506 43.3476 13.5291C43.6388 14.0076 43.7845 14.5693 43.7845 15.2142C43.7845 15.8591 43.6388 16.4104 43.3476 16.8681C43.0563 17.3258 42.6402 17.6795 42.0993 17.9291C41.5584 18.1684 40.9031 18.288 40.1334 18.288H38.339V19.5674H40.8511V20.722H38.339V23.0001H36.3263ZM38.3078 17.1334H39.8525C40.5286 17.1334 41.0435 16.9825 41.3972 16.6809C41.7613 16.3792 41.9433 15.9215 41.9433 15.3078C41.9433 14.6837 41.7613 14.226 41.3972 13.9348C41.0435 13.6331 40.5286 13.4823 39.8525 13.4823H38.3078V17.1334Z" fill="#327FFC"/>
</g>
<defs>
<clipPath id="clip0_1_1173">
<rect width="56" height="56" fill="white"/>
</clipPath>
</defs>
</svg>
