<svg width="56" height="56" viewBox="0 0 56 56" fill="none" xmlns="http://www.w3.org/2000/svg">
<g clip-path="url(#clip0_1_1037)">
<path d="M43.75 19.25C44.8893 19.25 45.8518 18.5159 46.214 17.5H55.125V3.5H46.214C45.8518 2.48413 44.8893 1.75 43.75 1.75H40.25C39.0434 1.75 38.0345 2.57337 37.7291 3.68462L35.4987 2.198C34.2011 1.33263 32.6909 0.875 31.1307 0.875H17.5C16.5349 0.875 15.75 1.65987 15.75 2.625C15.75 3.2655 15.9355 3.85787 16.2365 4.375H12.25C10.8027 4.375 9.625 5.55275 9.625 7C9.625 7.308 9.688 7.60025 9.786 7.875H8.75C7.30275 7.875 6.125 9.05275 6.125 10.5C6.125 11.9473 7.30275 13.125 8.75 13.125H9.786C9.688 13.3997 9.625 13.692 9.625 14C9.625 15.2101 10.4519 16.2216 11.5675 16.5235C11.4459 16.8263 11.375 17.1544 11.375 17.5C11.375 18.9473 12.5527 20.125 14 20.125H31.1307C32.6909 20.125 34.2011 19.6674 35.4987 18.802L37.7282 17.3154C38.0345 18.4266 39.0434 19.25 40.25 19.25H41.125V21.0884C39.1309 21.4953 37.625 23.2619 37.625 25.375C37.625 27.4881 39.1309 29.2547 41.125 29.6616V31.5884C39.1309 31.9953 37.625 33.7619 37.625 35.875C37.625 37.8096 38.8955 39.4354 40.6394 40.0111C40.1634 40.6831 39.3838 41.125 38.5 41.125H35.875C35.875 39.6777 34.6973 38.5 33.25 38.5H32.214C31.8518 37.4841 30.8892 36.75 29.75 36.75H26.0216C23.9916 32.1204 19.3708 28.875 14 28.875C6.76288 28.875 0.875 34.7629 0.875 42C0.875 49.2371 6.76288 55.125 14 55.125C19.3708 55.125 23.9916 51.8796 26.0216 47.25H29.75C30.8892 47.25 31.8518 46.5159 32.214 45.5H33.25C34.6973 45.5 35.875 44.3223 35.875 42.875H38.5C40.3112 42.875 41.8679 41.7681 42.532 40.1958C44.6915 39.9297 46.375 38.1054 46.375 35.875C46.375 33.7627 44.8691 31.9953 42.875 31.5884V29.6616C44.8691 29.2547 46.375 27.4881 46.375 25.375C46.375 23.2619 44.8691 21.4953 42.875 21.0884V19.25H43.75ZM14 53.375C7.728 53.375 2.625 48.272 2.625 42C2.625 35.728 7.728 30.625 14 30.625C20.272 30.625 25.375 35.728 25.375 42C25.375 48.272 20.272 53.375 14 53.375ZM30.625 44.625C30.625 45.108 30.233 45.5 29.75 45.5H26.6367C26.9465 44.3835 27.125 43.2136 27.125 42C27.125 40.7864 26.9465 39.6165 26.6367 38.5H29.75C30.233 38.5 30.625 38.892 30.625 39.375V44.625ZM34.125 42.875C34.125 43.358 33.733 43.75 33.25 43.75H32.375V40.25H33.25C33.733 40.25 34.125 40.642 34.125 41.125V42.875ZM44.625 35.875C44.625 37.0143 43.8909 37.9768 42.875 38.339V36.75H41.125V38.339C40.1091 37.9768 39.375 37.0143 39.375 35.875C39.375 34.7357 40.1091 33.7732 41.125 33.411V35H42.875V33.411C43.8909 33.7732 44.625 34.7357 44.625 35.875ZM44.625 25.375C44.625 26.5142 43.8909 27.4767 42.875 27.839V26.25H41.125V27.839C40.1091 27.4767 39.375 26.5142 39.375 25.375C39.375 24.2358 40.1091 23.2733 41.125 22.911V24.5H42.875V22.911C43.8909 23.2733 44.625 24.2358 44.625 25.375ZM53.375 15.75H46.375V5.25H53.375V15.75ZM7.875 10.5C7.875 10.0179 8.267 9.625 8.75 9.625H12.25H22.75V11.375H12.25H8.75C8.267 11.375 7.875 10.9821 7.875 10.5ZM12.25 13.125H22.75V14.875H14H12.25C11.767 14.875 11.375 14.4821 11.375 14C11.375 13.5179 11.767 13.125 12.25 13.125ZM34.5284 17.346C33.5195 18.0189 32.3444 18.375 31.1307 18.375H14C13.517 18.375 13.125 17.9821 13.125 17.5C13.125 17.0179 13.517 16.625 14 16.625H22.9688C23.1569 17.1798 23.4552 17.6934 23.8814 18.1195L25.1186 16.8814C24.7196 16.4824 24.5 15.9521 24.5 15.3878V9.11225C24.5 8.54787 24.7196 8.01762 25.1186 7.61862L23.8814 6.3805C23.4552 6.80662 23.1569 7.32025 22.9688 7.875H12.25C11.767 7.875 11.375 7.48212 11.375 7C11.375 6.51788 11.767 6.125 12.25 6.125H19.25H25.8878L26.7181 6.95625C27.8757 8.113 29.414 8.75 31.0494 8.75H32.375V7H31.0494C29.8813 7 28.7822 6.545 27.9554 5.719L26.6122 4.375H26.25H19.25C18.2849 4.375 17.5 3.59013 17.5 2.625H31.1307C32.3444 2.625 33.5186 2.98113 34.5284 3.654L37.625 5.71812V15.2819L34.5284 17.346ZM39.375 16.625V4.375C39.375 3.89287 39.767 3.5 40.25 3.5H43.75C44.233 3.5 44.625 3.89287 44.625 4.375V16.625C44.625 17.1071 44.233 17.5 43.75 17.5H40.25C39.767 17.5 39.375 17.1071 39.375 16.625Z" fill="#327FFC"/>
<path d="M11.3588 48.27V45.9361H10V44.7531H11.3588V43.4423H10V42.2593H11.3588V37H15.1794C16 37 16.6927 37.1385 17.2575 37.4156C17.833 37.6927 18.2647 38.0764 18.5524 38.5666C18.8508 39.0568 19 39.6323 19 40.2931C19 40.9538 18.8508 41.5187 18.5524 41.9876C18.254 42.4565 17.8277 42.8188 17.2735 43.0746C16.7194 43.3197 16.048 43.4423 15.2593 43.4423H13.421V44.7531H15.9947V45.9361H13.421V48.27H11.3588ZM13.389 42.2593H14.9716C15.6643 42.2593 16.1918 42.1048 16.5542 41.7957C16.9272 41.4867 17.1137 41.0178 17.1137 40.389C17.1137 39.7496 16.9272 39.2806 16.5542 38.9822C16.1918 38.6732 15.6643 38.5187 14.9716 38.5187H13.389V42.2593Z" fill="#327FFC"/>
</g>
<defs>
<clipPath id="clip0_1_1037">
<rect width="56" height="56" fill="white"/>
</clipPath>
</defs>
</svg>
