<svg width="16" height="16" viewBox="0 0 16 16" fill="none" xmlns="http://www.w3.org/2000/svg">
<g clip-path="url(#clip0_1_363)">
<path d="M15.1752 10.1647L11.5614 9.64843C11.4139 9.62789 11.2637 9.64171 11.1224 9.68881C10.9812 9.73592 10.8527 9.81504 10.7471 9.92L9.21393 11.4528C9.16402 11.5036 9.09867 11.5365 9.0281 11.5462C8.95753 11.5559 8.88573 11.542 8.82393 11.5066C7.05893 10.4248 5.57487 8.94085 4.49297 7.17594C4.45741 7.11406 4.4434 7.04214 4.45313 6.97144C4.46286 6.90074 4.49578 6.83528 4.54673 6.78531L6.07954 5.25248C6.18464 5.14688 6.26386 5.01837 6.31098 4.87702C6.35809 4.73568 6.37183 4.58534 6.3511 4.43779L5.83485 0.824065C5.8012 0.595747 5.68682 0.387056 5.51246 0.235861C5.3381 0.0846654 5.11532 0.000983937 4.88453 8.82725e-07H0.976098C0.84156 -0.000177678 0.708364 0.0267354 0.58445 0.0791356C0.460536 0.131536 0.348442 0.20835 0.25485 0.304999C0.169065 0.393179 0.102197 0.497953 0.0583472 0.612897C0.0144978 0.72784 -0.0054087 0.85053 -0.000151379 0.973441C0.167659 4.90444 1.80714 8.62869 4.59297 11.4072C7.37129 14.1926 11.0952 15.8319 15.0258 15.9997C15.0389 16.0003 15.052 16.0006 15.0652 16.0006C15.3003 16.0004 15.526 15.9086 15.6945 15.7447C15.7912 15.6511 15.868 15.539 15.9204 15.4151C15.9728 15.2912 15.9997 15.158 15.9995 15.0234V11.115C15.9985 10.8842 15.9148 10.6614 15.7636 10.487C15.6123 10.3126 15.4035 10.1983 15.1752 10.1647Z" fill="#4294FF"/>
</g>
<defs>
<clipPath id="clip0_1_363">
<rect width="16" height="16" fill="white"/>
</clipPath>
</defs>
</svg>
