<?xml version="1.0" encoding="UTF-8" standalone="no" ?>
<!DOCTYPE svg PUBLIC "-//W3C//DTD SVG 1.1//EN" "http://www.w3.org/Graphics/SVG/1.1/DTD/svg11.dtd">
<svg xmlns="http://www.w3.org/2000/svg" xmlns:xlink="http://www.w3.org/1999/xlink" version="1.1" width="400" height="400" viewBox="0 0 400 400" xml:space="preserve">
<desc>Created with Fabric.js 3.6.2</desc>
<defs>
</defs>
<g transform="matrix(8.7 0 0 8.7 200 200)" id="Layer_1"  >
<path style="stroke: none; stroke-width: 1; stroke-dasharray: none; stroke-linecap: butt; stroke-dashoffset: 0; stroke-linejoin: miter; stroke-miterlimit: 4; fill: rgb(0,0,0); fill-rule: nonzero; opacity: 1;"  transform=" translate(-12, -12)" d="M 12 0.5 C 5.7 0.5 0.5 5.7 0.5 12 c 0 2.4 0.7 4.6 2 6.5 l -1.3 3.9 c -0.1 0.2 0 0.4 0.1 0.5 C 1.5 23 1.7 23.1 1.9 23 l 4 -1.3 c 1.8 1.2 4 1.8 6.1 1.8 c 6.3 0 11.5 -5.2 11.5 -11.5 C 23.5 5.7 18.3 0.5 12 0.5 z M 18.9 16.7 c -0.3 0.9 -1.5 1.7 -2.5 1.9 c -0.2 0 -0.4 0.1 -0.7 0.1 c -0.8 0 -1.8 -0.3 -3.4 -0.9 c -2 -0.8 -4 -2.6 -5.6 -4.9 c 0 0 -0.1 -0.1 -0.1 -0.1 C 6 12 5.1 10.6 5.1 9.1 c 0 -1.7 0.9 -2.6 1.2 -3 c 0.4 -0.4 0.9 -0.6 1.5 -0.6 c 0.1 0 0.2 0 0.3 0 c 0 0 0.1 0 0.1 0 c 0.5 0 0.8 0.2 1.1 0.8 l 0.2 0.4 c 0.3 0.7 0.7 1.8 0.8 2 c 0.2 0.4 0.2 0.7 0 1 c -0.1 0.2 -0.2 0.4 -0.4 0.6 c -0.1 0.1 -0.2 0.2 -0.2 0.3 c -0.1 0.1 -0.2 0.2 -0.3 0.3 C 9.4 11 9.4 11 9.4 11 c 0.3 0.5 0.9 1.4 1.7 2.1 c 1.1 1 1.9 1.3 2.3 1.5 l 0.1 0 c 0.1 0 0.2 0.1 0.2 0 c 0.2 -0.2 0.4 -0.6 0.7 -0.9 l 0.1 -0.1 c 0.3 -0.4 0.7 -0.5 0.9 -0.5 c 0.1 0 0.3 0 0.4 0.1 c 0.1 0 0.3 0.1 2.2 1.1 l 0.2 0.1 c 0.3 0.1 0.5 0.2 0.6 0.5 C 19.2 15.1 19.1 16 18.9 16.7 z" stroke-linecap="round" />
</g>
</svg>